ISO-10303-21;
HEADER;
/* Generated by software containing ST-Developer
 * from STEP Tools, Inc. (www.steptools.com) 
 */

FILE_DESCRIPTION(
/* description */ (''),
/* implementation_level */ '2;1');

FILE_NAME(
/* name */ 
'K:\\ba\\DCC\\STP_Files\\02_02_2017\\SOD80 MiniMELF_6.560-5005.01\\6.5
60-5005.01.stp',
/* time_stamp */ '2017-02-02T07:37:50+01:00',
/* author */ ('vo_cad_user'),
/* organization */ (''),
/* preprocessor_version */ 'ST-DEVELOPER v15.2',
/* originating_system */ 'Autodesk Inventor 2014',
/* authorisation */ '');

FILE_SCHEMA (('AUTOMOTIVE_DESIGN { 1 0 10303 214 3 1 1 }'));
ENDSEC;

DATA;
#10=MECHANICAL_DESIGN_GEOMETRIC_PRESENTATION_REPRESENTATION('',(#218,#227,
#220,#221,#222,#223,#224,#225,#219,#226),#494);
#11=SHAPE_REPRESENTATION_RELATIONSHIP('SRR','None',#503,#12);
#12=ADVANCED_BREP_SHAPE_REPRESENTATION($,(#248),#493);
#13=(
BOUNDED_CURVE()
B_SPLINE_CURVE(2,(#440,#441,#442),.UNSPECIFIED.,.F.,.F.)
B_SPLINE_CURVE_WITH_KNOTS((3,3),(-0.0142862002389931,0.120289882394788),
 .UNSPECIFIED.)
CURVE()
GEOMETRIC_REPRESENTATION_ITEM()
RATIONAL_B_SPLINE_CURVE((1.,0.997737013780974,1.))
REPRESENTATION_ITEM('')
);
#14=(
BOUNDED_CURVE()
B_SPLINE_CURVE(2,(#483,#484,#485),.UNSPECIFIED.,.F.,.F.)
B_SPLINE_CURVE_WITH_KNOTS((3,3),(-0.0142862002389931,0.120289882394788),
 .UNSPECIFIED.)
CURVE()
GEOMETRIC_REPRESENTATION_ITEM()
RATIONAL_B_SPLINE_CURVE((1.,0.997737013780974,1.))
REPRESENTATION_ITEM('')
);
#15=(
BOUNDED_SURFACE()
B_SPLINE_SURFACE(2,2,((#412,#413,#414,#415,#416,#417,#418,#419,#420),(#421,
#422,#423,#424,#425,#426,#427,#428,#429),(#430,#431,#432,#433,#434,#435,
#436,#437,#438)),.UNSPECIFIED.,.F.,.T.,.F.)
B_SPLINE_SURFACE_WITH_KNOTS((3,3),(3,2,2,2,3),(-0.0142862002389931,0.120289882394788),
(-3.14159265358979,-1.5707963267949,0.,1.5707963267949,3.14159265358979),
 .UNSPECIFIED.)
GEOMETRIC_REPRESENTATION_ITEM()
RATIONAL_B_SPLINE_SURFACE(((1.,0.707106781186548,1.,0.707106781186548,1.,
0.707106781186548,1.,0.707106781186548,1.),(0.997737013780974,0.705506608285342,
0.997737013780974,0.705506608285342,0.997737013780974,0.705506608285342,
0.997737013780974,0.705506608285342,0.997737013780974),(1.,0.707106781186548,
1.,0.707106781186548,1.,0.707106781186548,1.,0.707106781186548,1.)))
REPRESENTATION_ITEM('')
SURFACE()
);
#16=(
BOUNDED_SURFACE()
B_SPLINE_SURFACE(2,2,((#455,#456,#457,#458,#459,#460,#461,#462,#463),(#464,
#465,#466,#467,#468,#469,#470,#471,#472),(#473,#474,#475,#476,#477,#478,
#479,#480,#481)),.UNSPECIFIED.,.F.,.T.,.F.)
B_SPLINE_SURFACE_WITH_KNOTS((3,3),(3,2,2,2,3),(-0.0142862002389931,0.120289882394788),
(-3.14159265358979,-1.5707963267949,0.,1.5707963267949,3.14159265358979),
 .UNSPECIFIED.)
GEOMETRIC_REPRESENTATION_ITEM()
RATIONAL_B_SPLINE_SURFACE(((1.,0.707106781186548,1.,0.707106781186548,1.,
0.707106781186548,1.,0.707106781186548,1.),(0.997737013780974,0.705506608285342,
0.997737013780974,0.705506608285342,0.997737013780974,0.705506608285342,
0.997737013780974,0.705506608285342,0.997737013780974),(1.,0.707106781186548,
1.,0.707106781186548,1.,0.707106781186548,1.,0.707106781186548,1.)))
REPRESENTATION_ITEM('')
SURFACE()
);
#17=TOROIDAL_SURFACE('',#259,0.55,0.15);
#18=TOROIDAL_SURFACE('',#265,0.55,0.15);
#19=TOROIDAL_SURFACE('',#273,0.699857135567769,0.1);
#20=TOROIDAL_SURFACE('',#281,0.699857135567769,0.1);
#21=PLANE('',#253);
#22=PLANE('',#255);
#23=PLANE('',#263);
#24=PLANE('',#267);
#25=PLANE('',#279);
#26=PLANE('',#280);
#27=PLANE('',#287);
#28=PLANE('',#288);
#29=FACE_BOUND('',#64,.T.);
#30=FACE_BOUND('',#65,.T.);
#31=FACE_BOUND('',#66,.T.);
#32=FACE_BOUND('',#67,.T.);
#33=FACE_BOUND('',#68,.T.);
#34=FACE_BOUND('',#70,.T.);
#35=FACE_BOUND('',#72,.T.);
#36=FACE_BOUND('',#74,.T.);
#37=FACE_BOUND('',#75,.T.);
#38=FACE_BOUND('',#76,.T.);
#39=FACE_BOUND('',#78,.T.);
#40=FACE_BOUND('',#79,.T.);
#41=FACE_BOUND('',#80,.T.);
#42=FACE_BOUND('',#82,.T.);
#43=FACE_BOUND('',#84,.T.);
#44=FACE_BOUND('',#86,.T.);
#45=FACE_BOUND('',#89,.T.);
#46=FACE_BOUND('',#90,.T.);
#47=FACE_BOUND('',#92,.T.);
#48=FACE_BOUND('',#95,.T.);
#49=FACE_BOUND('',#96,.T.);
#50=FACE_OUTER_BOUND('',#63,.T.);
#51=FACE_OUTER_BOUND('',#69,.T.);
#52=FACE_OUTER_BOUND('',#71,.T.);
#53=FACE_OUTER_BOUND('',#73,.T.);
#54=FACE_OUTER_BOUND('',#77,.T.);
#55=FACE_OUTER_BOUND('',#81,.T.);
#56=FACE_OUTER_BOUND('',#83,.T.);
#57=FACE_OUTER_BOUND('',#85,.T.);
#58=FACE_OUTER_BOUND('',#87,.T.);
#59=FACE_OUTER_BOUND('',#88,.T.);
#60=FACE_OUTER_BOUND('',#91,.T.);
#61=FACE_OUTER_BOUND('',#93,.T.);
#62=FACE_OUTER_BOUND('',#94,.T.);
#63=EDGE_LOOP('',(#165));
#64=EDGE_LOOP('',(#166));
#65=EDGE_LOOP('',(#167));
#66=EDGE_LOOP('',(#168));
#67=EDGE_LOOP('',(#169));
#68=EDGE_LOOP('',(#170));
#69=EDGE_LOOP('',(#171));
#70=EDGE_LOOP('',(#172));
#71=EDGE_LOOP('',(#173));
#72=EDGE_LOOP('',(#174));
#73=EDGE_LOOP('',(#175));
#74=EDGE_LOOP('',(#176));
#75=EDGE_LOOP('',(#177));
#76=EDGE_LOOP('',(#178));
#77=EDGE_LOOP('',(#179));
#78=EDGE_LOOP('',(#180));
#79=EDGE_LOOP('',(#181));
#80=EDGE_LOOP('',(#182));
#81=EDGE_LOOP('',(#183));
#82=EDGE_LOOP('',(#184));
#83=EDGE_LOOP('',(#185));
#84=EDGE_LOOP('',(#186));
#85=EDGE_LOOP('',(#187,#188));
#86=EDGE_LOOP('',(#189));
#87=EDGE_LOOP('',(#190,#191,#192,#193,#194,#195));
#88=EDGE_LOOP('',(#196));
#89=EDGE_LOOP('',(#197));
#90=EDGE_LOOP('',(#198,#199));
#91=EDGE_LOOP('',(#200,#201));
#92=EDGE_LOOP('',(#202));
#93=EDGE_LOOP('',(#203,#204,#205,#206,#207,#208));
#94=EDGE_LOOP('',(#209));
#95=EDGE_LOOP('',(#210));
#96=EDGE_LOOP('',(#211,#212));
#97=CIRCLE('',#251,0.702);
#98=CIRCLE('',#252,0.702);
#99=CIRCLE('',#254,0.7);
#100=CIRCLE('',#256,0.7);
#101=CIRCLE('',#258,0.7);
#102=CIRCLE('',#260,0.55);
#103=CIRCLE('',#262,0.7);
#104=CIRCLE('',#264,0.35);
#105=CIRCLE('',#266,0.55);
#106=CIRCLE('',#268,0.35);
#107=CIRCLE('',#270,0.35);
#108=CIRCLE('',#272,0.35);
#109=CIRCLE('',#274,0.799846930965467);
#110=CIRCLE('',#275,0.799846930965467);
#111=CIRCLE('',#276,0.699857135567769);
#112=CIRCLE('',#277,0.789160837518903);
#113=CIRCLE('',#278,0.789160837518903);
#114=CIRCLE('',#282,0.799846930965467);
#115=CIRCLE('',#283,0.799846930965467);
#116=CIRCLE('',#284,0.699857135567769);
#117=CIRCLE('',#285,0.789160837518903);
#118=CIRCLE('',#286,0.789160837518903);
#119=VERTEX_POINT('',#371);
#120=VERTEX_POINT('',#373);
#121=VERTEX_POINT('',#376);
#122=VERTEX_POINT('',#379);
#123=VERTEX_POINT('',#382);
#124=VERTEX_POINT('',#385);
#125=VERTEX_POINT('',#388);
#126=VERTEX_POINT('',#391);
#127=VERTEX_POINT('',#394);
#128=VERTEX_POINT('',#397);
#129=VERTEX_POINT('',#400);
#130=VERTEX_POINT('',#403);
#131=VERTEX_POINT('',#406);
#132=VERTEX_POINT('',#407);
#133=VERTEX_POINT('',#410);
#134=VERTEX_POINT('',#439);
#135=VERTEX_POINT('',#443);
#136=VERTEX_POINT('',#449);
#137=VERTEX_POINT('',#450);
#138=VERTEX_POINT('',#453);
#139=VERTEX_POINT('',#482);
#140=VERTEX_POINT('',#486);
#141=EDGE_CURVE('',#119,#119,#97,.T.);
#142=EDGE_CURVE('',#120,#120,#98,.T.);
#143=EDGE_CURVE('',#121,#121,#99,.T.);
#144=EDGE_CURVE('',#122,#122,#100,.T.);
#145=EDGE_CURVE('',#123,#123,#101,.T.);
#146=EDGE_CURVE('',#124,#124,#102,.T.);
#147=EDGE_CURVE('',#125,#125,#103,.T.);
#148=EDGE_CURVE('',#126,#126,#104,.T.);
#149=EDGE_CURVE('',#127,#127,#105,.T.);
#150=EDGE_CURVE('',#128,#128,#106,.T.);
#151=EDGE_CURVE('',#129,#129,#107,.T.);
#152=EDGE_CURVE('',#130,#130,#108,.T.);
#153=EDGE_CURVE('',#131,#132,#109,.T.);
#154=EDGE_CURVE('',#132,#131,#110,.T.);
#155=EDGE_CURVE('',#133,#133,#111,.T.);
#156=EDGE_CURVE('',#132,#134,#13,.T.);
#157=EDGE_CURVE('',#135,#134,#112,.T.);
#158=EDGE_CURVE('',#134,#135,#113,.T.);
#159=EDGE_CURVE('',#136,#137,#114,.T.);
#160=EDGE_CURVE('',#137,#136,#115,.T.);
#161=EDGE_CURVE('',#138,#138,#116,.T.);
#162=EDGE_CURVE('',#137,#139,#14,.T.);
#163=EDGE_CURVE('',#140,#139,#117,.T.);
#164=EDGE_CURVE('',#139,#140,#118,.T.);
#165=ORIENTED_EDGE('',*,*,#141,.T.);
#166=ORIENTED_EDGE('',*,*,#142,.T.);
#167=ORIENTED_EDGE('',*,*,#143,.F.);
#168=ORIENTED_EDGE('',*,*,#142,.F.);
#169=ORIENTED_EDGE('',*,*,#144,.F.);
#170=ORIENTED_EDGE('',*,*,#141,.F.);
#171=ORIENTED_EDGE('',*,*,#145,.F.);
#172=ORIENTED_EDGE('',*,*,#144,.T.);
#173=ORIENTED_EDGE('',*,*,#145,.T.);
#174=ORIENTED_EDGE('',*,*,#146,.T.);
#175=ORIENTED_EDGE('',*,*,#143,.T.);
#176=ORIENTED_EDGE('',*,*,#147,.F.);
#177=ORIENTED_EDGE('',*,*,#148,.F.);
#178=ORIENTED_EDGE('',*,*,#146,.F.);
#179=ORIENTED_EDGE('',*,*,#149,.T.);
#180=ORIENTED_EDGE('',*,*,#147,.T.);
#181=ORIENTED_EDGE('',*,*,#150,.F.);
#182=ORIENTED_EDGE('',*,*,#149,.F.);
#183=ORIENTED_EDGE('',*,*,#151,.F.);
#184=ORIENTED_EDGE('',*,*,#148,.T.);
#185=ORIENTED_EDGE('',*,*,#150,.T.);
#186=ORIENTED_EDGE('',*,*,#152,.F.);
#187=ORIENTED_EDGE('',*,*,#153,.T.);
#188=ORIENTED_EDGE('',*,*,#154,.T.);
#189=ORIENTED_EDGE('',*,*,#155,.T.);
#190=ORIENTED_EDGE('',*,*,#153,.F.);
#191=ORIENTED_EDGE('',*,*,#154,.F.);
#192=ORIENTED_EDGE('',*,*,#156,.T.);
#193=ORIENTED_EDGE('',*,*,#157,.F.);
#194=ORIENTED_EDGE('',*,*,#158,.F.);
#195=ORIENTED_EDGE('',*,*,#156,.F.);
#196=ORIENTED_EDGE('',*,*,#155,.F.);
#197=ORIENTED_EDGE('',*,*,#151,.T.);
#198=ORIENTED_EDGE('',*,*,#157,.T.);
#199=ORIENTED_EDGE('',*,*,#158,.T.);
#200=ORIENTED_EDGE('',*,*,#159,.T.);
#201=ORIENTED_EDGE('',*,*,#160,.T.);
#202=ORIENTED_EDGE('',*,*,#161,.T.);
#203=ORIENTED_EDGE('',*,*,#159,.F.);
#204=ORIENTED_EDGE('',*,*,#160,.F.);
#205=ORIENTED_EDGE('',*,*,#162,.T.);
#206=ORIENTED_EDGE('',*,*,#163,.F.);
#207=ORIENTED_EDGE('',*,*,#164,.F.);
#208=ORIENTED_EDGE('',*,*,#162,.F.);
#209=ORIENTED_EDGE('',*,*,#161,.F.);
#210=ORIENTED_EDGE('',*,*,#152,.T.);
#211=ORIENTED_EDGE('',*,*,#163,.T.);
#212=ORIENTED_EDGE('',*,*,#164,.T.);
#213=CYLINDRICAL_SURFACE('',#250,0.702);
#214=CYLINDRICAL_SURFACE('',#257,0.7);
#215=CYLINDRICAL_SURFACE('',#261,0.7);
#216=CYLINDRICAL_SURFACE('',#269,0.35);
#217=CYLINDRICAL_SURFACE('',#271,0.35);
#218=STYLED_ITEM('',(#513),#228);
#219=STYLED_ITEM('',(#513),#229);
#220=STYLED_ITEM('',(#513),#230);
#221=STYLED_ITEM('',(#514),#231);
#222=STYLED_ITEM('',(#514),#232);
#223=STYLED_ITEM('',(#514),#233);
#224=STYLED_ITEM('',(#514),#234);
#225=STYLED_ITEM('',(#514),#235);
#226=STYLED_ITEM('',(#514),#236);
#227=STYLED_ITEM('',(#512),#248);
#228=ADVANCED_FACE('',(#50,#29),#213,.T.);
#229=ADVANCED_FACE('',(#30,#31),#21,.F.);
#230=ADVANCED_FACE('',(#32,#33),#22,.T.);
#231=ADVANCED_FACE('',(#51,#34),#214,.T.);
#232=ADVANCED_FACE('',(#52,#35),#17,.T.);
#233=ADVANCED_FACE('',(#53,#36),#215,.T.);
#234=ADVANCED_FACE('',(#37,#38),#23,.T.);
#235=ADVANCED_FACE('',(#54,#39),#18,.T.);
#236=ADVANCED_FACE('',(#40,#41),#24,.F.);
#237=ADVANCED_FACE('',(#55,#42),#216,.T.);
#238=ADVANCED_FACE('',(#56,#43),#217,.T.);
#239=ADVANCED_FACE('',(#57,#44),#19,.T.);
#240=ADVANCED_FACE('',(#58),#15,.F.);
#241=ADVANCED_FACE('',(#59),#25,.T.);
#242=ADVANCED_FACE('',(#45,#46),#26,.F.);
#243=ADVANCED_FACE('',(#60,#47),#20,.T.);
#244=ADVANCED_FACE('',(#61),#16,.T.);
#245=ADVANCED_FACE('',(#62),#27,.F.);
#246=ADVANCED_FACE('',(#48,#49),#28,.T.);
#247=CLOSED_SHELL('',(#228,#229,#230,#231,#232,#233,#234,#235,#236,#237,
#238,#239,#240,#241,#242,#243,#244,#245,#246));
#248=MANIFOLD_SOLID_BREP('Volumenk\X\F6rper1',#247);
#249=AXIS2_PLACEMENT_3D('placement',#369,#289,#290);
#250=AXIS2_PLACEMENT_3D('',#370,#291,#292);
#251=AXIS2_PLACEMENT_3D('',#372,#293,#294);
#252=AXIS2_PLACEMENT_3D('',#374,#295,#296);
#253=AXIS2_PLACEMENT_3D('',#375,#297,#298);
#254=AXIS2_PLACEMENT_3D('',#377,#299,#300);
#255=AXIS2_PLACEMENT_3D('',#378,#301,#302);
#256=AXIS2_PLACEMENT_3D('',#380,#303,#304);
#257=AXIS2_PLACEMENT_3D('',#381,#305,#306);
#258=AXIS2_PLACEMENT_3D('',#383,#307,#308);
#259=AXIS2_PLACEMENT_3D('',#384,#309,#310);
#260=AXIS2_PLACEMENT_3D('',#386,#311,#312);
#261=AXIS2_PLACEMENT_3D('',#387,#313,#314);
#262=AXIS2_PLACEMENT_3D('',#389,#315,#316);
#263=AXIS2_PLACEMENT_3D('',#390,#317,#318);
#264=AXIS2_PLACEMENT_3D('',#392,#319,#320);
#265=AXIS2_PLACEMENT_3D('',#393,#321,#322);
#266=AXIS2_PLACEMENT_3D('',#395,#323,#324);
#267=AXIS2_PLACEMENT_3D('',#396,#325,#326);
#268=AXIS2_PLACEMENT_3D('',#398,#327,#328);
#269=AXIS2_PLACEMENT_3D('',#399,#329,#330);
#270=AXIS2_PLACEMENT_3D('',#401,#331,#332);
#271=AXIS2_PLACEMENT_3D('',#402,#333,#334);
#272=AXIS2_PLACEMENT_3D('',#404,#335,#336);
#273=AXIS2_PLACEMENT_3D('',#405,#337,#338);
#274=AXIS2_PLACEMENT_3D('',#408,#339,#340);
#275=AXIS2_PLACEMENT_3D('',#409,#341,#342);
#276=AXIS2_PLACEMENT_3D('',#411,#343,#344);
#277=AXIS2_PLACEMENT_3D('',#444,#345,#346);
#278=AXIS2_PLACEMENT_3D('',#445,#347,#348);
#279=AXIS2_PLACEMENT_3D('',#446,#349,#350);
#280=AXIS2_PLACEMENT_3D('',#447,#351,#352);
#281=AXIS2_PLACEMENT_3D('',#448,#353,#354);
#282=AXIS2_PLACEMENT_3D('',#451,#355,#356);
#283=AXIS2_PLACEMENT_3D('',#452,#357,#358);
#284=AXIS2_PLACEMENT_3D('',#454,#359,#360);
#285=AXIS2_PLACEMENT_3D('',#487,#361,#362);
#286=AXIS2_PLACEMENT_3D('',#488,#363,#364);
#287=AXIS2_PLACEMENT_3D('',#489,#365,#366);
#288=AXIS2_PLACEMENT_3D('',#490,#367,#368);
#289=DIRECTION('axis',(0.,0.,1.));
#290=DIRECTION('refdir',(1.,0.,0.));
#291=DIRECTION('center_axis',(0.,0.,-1.));
#292=DIRECTION('ref_axis',(-1.,0.,0.));
#293=DIRECTION('center_axis',(0.,0.,1.));
#294=DIRECTION('ref_axis',(-1.,0.,0.));
#295=DIRECTION('center_axis',(0.,0.,-1.));
#296=DIRECTION('ref_axis',(-1.,0.,0.));
#297=DIRECTION('center_axis',(0.,0.,-1.));
#298=DIRECTION('ref_axis',(-1.,0.,0.));
#299=DIRECTION('center_axis',(0.,0.,1.));
#300=DIRECTION('ref_axis',(-1.,0.,0.));
#301=DIRECTION('center_axis',(0.,0.,-1.));
#302=DIRECTION('ref_axis',(-1.,0.,0.));
#303=DIRECTION('center_axis',(0.,0.,-1.));
#304=DIRECTION('ref_axis',(-1.,0.,0.));
#305=DIRECTION('center_axis',(0.,0.,1.));
#306=DIRECTION('ref_axis',(-1.,0.,0.));
#307=DIRECTION('center_axis',(0.,0.,-1.));
#308=DIRECTION('ref_axis',(-1.,0.,0.));
#309=DIRECTION('center_axis',(0.,0.,-1.));
#310=DIRECTION('ref_axis',(-1.,0.,0.));
#311=DIRECTION('center_axis',(0.,0.,1.));
#312=DIRECTION('ref_axis',(-1.,0.,0.));
#313=DIRECTION('center_axis',(0.,0.,1.));
#314=DIRECTION('ref_axis',(-1.,0.,0.));
#315=DIRECTION('center_axis',(0.,0.,1.));
#316=DIRECTION('ref_axis',(-1.,0.,0.));
#317=DIRECTION('center_axis',(0.,0.,-1.));
#318=DIRECTION('ref_axis',(-1.,0.,0.));
#319=DIRECTION('center_axis',(0.,0.,-1.));
#320=DIRECTION('ref_axis',(-1.,0.,0.));
#321=DIRECTION('center_axis',(0.,0.,-1.));
#322=DIRECTION('ref_axis',(-1.,0.,0.));
#323=DIRECTION('center_axis',(0.,0.,-1.));
#324=DIRECTION('ref_axis',(-1.,0.,0.));
#325=DIRECTION('center_axis',(0.,0.,-1.));
#326=DIRECTION('ref_axis',(-1.,0.,0.));
#327=DIRECTION('center_axis',(0.,0.,1.));
#328=DIRECTION('ref_axis',(-1.,0.,0.));
#329=DIRECTION('center_axis',(0.,0.,1.));
#330=DIRECTION('ref_axis',(-1.,0.,0.));
#331=DIRECTION('center_axis',(0.,0.,-1.));
#332=DIRECTION('ref_axis',(-1.,0.,0.));
#333=DIRECTION('center_axis',(0.,0.,1.));
#334=DIRECTION('ref_axis',(-1.,0.,0.));
#335=DIRECTION('center_axis',(0.,0.,1.));
#336=DIRECTION('ref_axis',(-1.,0.,0.));
#337=DIRECTION('center_axis',(0.,0.,-1.));
#338=DIRECTION('ref_axis',(-1.,0.,0.));
#339=DIRECTION('center_axis',(0.,0.,-1.));
#340=DIRECTION('ref_axis',(-1.,-1.22460635382238E-016,0.));
#341=DIRECTION('center_axis',(0.,0.,-1.));
#342=DIRECTION('ref_axis',(-1.,-1.22460635382238E-016,0.));
#343=DIRECTION('center_axis',(0.,0.,1.));
#344=DIRECTION('ref_axis',(-1.,-1.22460635382238E-016,0.));
#345=DIRECTION('center_axis',(0.,0.,1.));
#346=DIRECTION('ref_axis',(1.,0.,0.));
#347=DIRECTION('center_axis',(0.,0.,1.));
#348=DIRECTION('ref_axis',(1.,0.,0.));
#349=DIRECTION('center_axis',(0.,0.,-1.));
#350=DIRECTION('ref_axis',(-1.,0.,0.));
#351=DIRECTION('center_axis',(0.,0.,-1.));
#352=DIRECTION('ref_axis',(-1.,0.,0.));
#353=DIRECTION('center_axis',(0.,0.,1.));
#354=DIRECTION('ref_axis',(1.,0.,0.));
#355=DIRECTION('center_axis',(0.,0.,1.));
#356=DIRECTION('ref_axis',(-1.,0.,0.));
#357=DIRECTION('center_axis',(0.,0.,1.));
#358=DIRECTION('ref_axis',(-1.,0.,0.));
#359=DIRECTION('center_axis',(0.,0.,-1.));
#360=DIRECTION('ref_axis',(-1.,0.,0.));
#361=DIRECTION('center_axis',(0.,0.,-1.));
#362=DIRECTION('ref_axis',(-1.,0.,0.));
#363=DIRECTION('center_axis',(0.,0.,-1.));
#364=DIRECTION('ref_axis',(-1.,0.,0.));
#365=DIRECTION('center_axis',(0.,0.,-1.));
#366=DIRECTION('ref_axis',(-1.,0.,0.));
#367=DIRECTION('center_axis',(0.,0.,-1.));
#368=DIRECTION('ref_axis',(-1.,0.,0.));
#369=CARTESIAN_POINT('',(0.,0.,0.));
#370=CARTESIAN_POINT('Origin',(0.,0.,1.1));
#371=CARTESIAN_POINT('',(0.702,8.59702053001442E-017,0.65));
#372=CARTESIAN_POINT('Origin',(0.,0.,0.65));
#373=CARTESIAN_POINT('',(0.702,8.59702053001442E-017,1.1));
#374=CARTESIAN_POINT('Origin',(0.,0.,1.1));
#375=CARTESIAN_POINT('Origin',(0.,0.,1.1));
#376=CARTESIAN_POINT('',(0.7,8.57252759403147E-017,1.1));
#377=CARTESIAN_POINT('Origin',(0.,0.,1.1));
#378=CARTESIAN_POINT('Origin',(0.,0.,0.65));
#379=CARTESIAN_POINT('',(0.7,8.57252759403147E-017,0.65));
#380=CARTESIAN_POINT('Origin',(0.,0.,0.65));
#381=CARTESIAN_POINT('Origin',(0.,0.,-1.548));
#382=CARTESIAN_POINT('',(0.7,-8.57224447675664E-017,-1.398));
#383=CARTESIAN_POINT('Origin',(0.,0.,-1.398));
#384=CARTESIAN_POINT('Origin',(0.,0.,-1.398));
#385=CARTESIAN_POINT('',(0.55,6.73533494602307E-017,-1.548));
#386=CARTESIAN_POINT('Origin',(0.,0.,-1.548));
#387=CARTESIAN_POINT('Origin',(0.,0.,-1.548));
#388=CARTESIAN_POINT('',(0.7,8.57224447675664E-017,1.252));
#389=CARTESIAN_POINT('Origin',(0.,0.,1.252));
#390=CARTESIAN_POINT('Origin',(0.,0.,-1.548));
#391=CARTESIAN_POINT('',(0.35,4.28626379701574E-017,-1.548));
#392=CARTESIAN_POINT('Origin',(0.,0.,-1.548));
#393=CARTESIAN_POINT('Origin',(0.,0.,1.252));
#394=CARTESIAN_POINT('',(0.55,-6.73533494602307E-017,1.402));
#395=CARTESIAN_POINT('Origin',(0.,0.,1.402));
#396=CARTESIAN_POINT('Origin',(0.,0.,1.402));
#397=CARTESIAN_POINT('',(0.35,4.28626379701574E-017,1.402));
#398=CARTESIAN_POINT('Origin',(0.,0.,1.402));
#399=CARTESIAN_POINT('Origin',(0.,0.,-1.55));
#400=CARTESIAN_POINT('',(0.35,4.28626379701574E-017,-1.55));
#401=CARTESIAN_POINT('Origin',(0.,0.,-1.55));
#402=CARTESIAN_POINT('Origin',(0.,0.,-1.55));
#403=CARTESIAN_POINT('',(0.35,-4.28612223837832E-017,1.55));
#404=CARTESIAN_POINT('Origin',(0.,0.,1.55));
#405=CARTESIAN_POINT('Origin',(0.,0.,-1.75));
#406=CARTESIAN_POINT('',(0.799846930965467,-1.54074395550979E-032,-1.75142857142857));
#407=CARTESIAN_POINT('',(-0.799846930965467,0.,-1.75142857142857));
#408=CARTESIAN_POINT('Origin',(0.,0.,-1.75142857142857));
#409=CARTESIAN_POINT('Origin',(0.,0.,-1.75142857142857));
#410=CARTESIAN_POINT('',(0.699857135567769,1.71409898996844E-016,-1.85));
#411=CARTESIAN_POINT('Origin',(0.,0.,-1.85));
#412=CARTESIAN_POINT('Ctrl Pts',(-0.799846930965467,0.,-1.75142857142857));
#413=CARTESIAN_POINT('Ctrl Pts',(-0.799846930965467,-0.799846930965467,
-1.75142857142857));
#414=CARTESIAN_POINT('Ctrl Pts',(0.,-0.799846930965467,-1.75142857142857));
#415=CARTESIAN_POINT('Ctrl Pts',(0.799846930965467,-0.799846930965467,-1.75142857142857));
#416=CARTESIAN_POINT('Ctrl Pts',(0.799846930965467,0.,-1.75142857142857));
#417=CARTESIAN_POINT('Ctrl Pts',(0.799846930965467,0.799846930965467,-1.75142857142857));
#418=CARTESIAN_POINT('Ctrl Pts',(0.,0.799846930965467,-1.75142857142857));
#419=CARTESIAN_POINT('Ctrl Pts',(-0.799846930965467,0.799846930965467,-1.75142857142857));
#420=CARTESIAN_POINT('Ctrl Pts',(-0.799846930965467,0.,-1.75142857142857));
#421=CARTESIAN_POINT('Ctrl Pts',(-0.801290997647435,0.,-1.65035421897913));
#422=CARTESIAN_POINT('Ctrl Pts',(-0.801290997647435,-0.801290997647435,
-1.65035421897913));
#423=CARTESIAN_POINT('Ctrl Pts',(0.,-0.801290997647435,-1.65035421897913));
#424=CARTESIAN_POINT('Ctrl Pts',(0.801290997647435,-0.801290997647435,-1.65035421897913));
#425=CARTESIAN_POINT('Ctrl Pts',(0.801290997647435,0.,-1.65035421897913));
#426=CARTESIAN_POINT('Ctrl Pts',(0.801290997647435,0.801290997647435,-1.65035421897913));
#427=CARTESIAN_POINT('Ctrl Pts',(0.,0.801290997647435,-1.65035421897913));
#428=CARTESIAN_POINT('Ctrl Pts',(-0.801290997647435,0.801290997647435,-1.65035421897913));
#429=CARTESIAN_POINT('Ctrl Pts',(-0.801290997647435,0.,-1.65035421897913));
#430=CARTESIAN_POINT('Ctrl Pts',(-0.789160837518903,0.,-1.55));
#431=CARTESIAN_POINT('Ctrl Pts',(-0.789160837518903,-0.789160837518903,
-1.55));
#432=CARTESIAN_POINT('Ctrl Pts',(0.,-0.789160837518903,-1.55));
#433=CARTESIAN_POINT('Ctrl Pts',(0.789160837518903,-0.789160837518903,-1.55));
#434=CARTESIAN_POINT('Ctrl Pts',(0.789160837518903,0.,-1.55));
#435=CARTESIAN_POINT('Ctrl Pts',(0.789160837518903,0.789160837518903,-1.55));
#436=CARTESIAN_POINT('Ctrl Pts',(0.,0.789160837518903,-1.55));
#437=CARTESIAN_POINT('Ctrl Pts',(-0.789160837518903,0.789160837518903,-1.55));
#438=CARTESIAN_POINT('Ctrl Pts',(-0.789160837518903,0.,-1.55));
#439=CARTESIAN_POINT('',(-0.789160837518903,0.,-1.55));
#440=CARTESIAN_POINT('Ctrl Pts',(-0.799846930965467,0.,-1.75142857142857));
#441=CARTESIAN_POINT('Ctrl Pts',(-0.801290997647435,0.,-1.65035421897913));
#442=CARTESIAN_POINT('Ctrl Pts',(-0.789160837518903,0.,-1.55));
#443=CARTESIAN_POINT('',(0.789160837518903,0.,-1.55));
#444=CARTESIAN_POINT('Origin',(0.,0.,-1.55));
#445=CARTESIAN_POINT('Origin',(0.,0.,-1.55));
#446=CARTESIAN_POINT('Origin',(0.,0.,-1.85));
#447=CARTESIAN_POINT('Origin',(0.,0.,-1.55));
#448=CARTESIAN_POINT('Origin',(0.,0.,1.75));
#449=CARTESIAN_POINT('',(0.799846930965467,9.7949763374564E-017,1.75142857142857));
#450=CARTESIAN_POINT('',(-0.799846930965467,0.,1.75142857142857));
#451=CARTESIAN_POINT('Origin',(0.,0.,1.75142857142857));
#452=CARTESIAN_POINT('Origin',(0.,0.,1.75142857142857));
#453=CARTESIAN_POINT('',(0.699857135567769,-8.57049494984219E-017,1.85));
#454=CARTESIAN_POINT('Origin',(0.,0.,1.85));
#455=CARTESIAN_POINT('Ctrl Pts',(-0.799846930965467,0.,1.75142857142857));
#456=CARTESIAN_POINT('Ctrl Pts',(-0.799846930965467,-0.799846930965467,
1.75142857142857));
#457=CARTESIAN_POINT('Ctrl Pts',(0.,-0.799846930965467,1.75142857142857));
#458=CARTESIAN_POINT('Ctrl Pts',(0.799846930965467,-0.799846930965467,1.75142857142857));
#459=CARTESIAN_POINT('Ctrl Pts',(0.799846930965467,0.,1.75142857142857));
#460=CARTESIAN_POINT('Ctrl Pts',(0.799846930965467,0.799846930965467,1.75142857142857));
#461=CARTESIAN_POINT('Ctrl Pts',(0.,0.799846930965467,1.75142857142857));
#462=CARTESIAN_POINT('Ctrl Pts',(-0.799846930965467,0.799846930965467,1.75142857142857));
#463=CARTESIAN_POINT('Ctrl Pts',(-0.799846930965467,0.,1.75142857142857));
#464=CARTESIAN_POINT('Ctrl Pts',(-0.801290997647435,0.,1.65035421897913));
#465=CARTESIAN_POINT('Ctrl Pts',(-0.801290997647435,-0.801290997647435,
1.65035421897913));
#466=CARTESIAN_POINT('Ctrl Pts',(0.,-0.801290997647435,1.65035421897913));
#467=CARTESIAN_POINT('Ctrl Pts',(0.801290997647435,-0.801290997647435,1.65035421897913));
#468=CARTESIAN_POINT('Ctrl Pts',(0.801290997647435,0.,1.65035421897913));
#469=CARTESIAN_POINT('Ctrl Pts',(0.801290997647435,0.801290997647435,1.65035421897913));
#470=CARTESIAN_POINT('Ctrl Pts',(0.,0.801290997647435,1.65035421897913));
#471=CARTESIAN_POINT('Ctrl Pts',(-0.801290997647435,0.801290997647435,1.65035421897913));
#472=CARTESIAN_POINT('Ctrl Pts',(-0.801290997647435,0.,1.65035421897913));
#473=CARTESIAN_POINT('Ctrl Pts',(-0.789160837518903,0.,1.55));
#474=CARTESIAN_POINT('Ctrl Pts',(-0.789160837518903,-0.789160837518903,
1.55));
#475=CARTESIAN_POINT('Ctrl Pts',(0.,-0.789160837518903,1.55));
#476=CARTESIAN_POINT('Ctrl Pts',(0.789160837518903,-0.789160837518903,1.55));
#477=CARTESIAN_POINT('Ctrl Pts',(0.789160837518903,0.,1.55));
#478=CARTESIAN_POINT('Ctrl Pts',(0.789160837518903,0.789160837518903,1.55));
#479=CARTESIAN_POINT('Ctrl Pts',(0.,0.789160837518903,1.55));
#480=CARTESIAN_POINT('Ctrl Pts',(-0.789160837518903,0.789160837518903,1.55));
#481=CARTESIAN_POINT('Ctrl Pts',(-0.789160837518903,0.,1.55));
#482=CARTESIAN_POINT('',(-0.789160837518903,0.,1.55));
#483=CARTESIAN_POINT('Ctrl Pts',(-0.799846930965467,0.,1.75142857142857));
#484=CARTESIAN_POINT('Ctrl Pts',(-0.801290997647435,0.,1.65035421897913));
#485=CARTESIAN_POINT('Ctrl Pts',(-0.789160837518903,0.,1.55));
#486=CARTESIAN_POINT('',(0.789160837518903,0.,1.55));
#487=CARTESIAN_POINT('Origin',(0.,0.,1.55));
#488=CARTESIAN_POINT('Origin',(0.,0.,1.55));
#489=CARTESIAN_POINT('Origin',(0.,0.,1.85));
#490=CARTESIAN_POINT('Origin',(0.,0.,1.55));
#491=UNCERTAINTY_MEASURE_WITH_UNIT(LENGTH_MEASURE(0.01),#495,
'DISTANCE_ACCURACY_VALUE',
'Maximum model space distance between geometric entities at asserted c
onnectivities');
#492=UNCERTAINTY_MEASURE_WITH_UNIT(LENGTH_MEASURE(1.E-006),#495,
'DISTANCE_ACCURACY_VALUE',
'Maximum model space distance between geometric entities at asserted c
onnectivities');
#493=(
GEOMETRIC_REPRESENTATION_CONTEXT(3)
GLOBAL_UNCERTAINTY_ASSIGNED_CONTEXT((#491))
GLOBAL_UNIT_ASSIGNED_CONTEXT((#495,#498,#496))
REPRESENTATION_CONTEXT('','3D')
);
#494=(
GEOMETRIC_REPRESENTATION_CONTEXT(3)
GLOBAL_UNCERTAINTY_ASSIGNED_CONTEXT((#492))
GLOBAL_UNIT_ASSIGNED_CONTEXT((#495,#498,#496))
REPRESENTATION_CONTEXT('','3D')
);
#495=(
LENGTH_UNIT()
NAMED_UNIT(*)
SI_UNIT(.MILLI.,.METRE.)
);
#496=(
NAMED_UNIT(*)
SI_UNIT($,.STERADIAN.)
SOLID_ANGLE_UNIT()
);
#497=DIMENSIONAL_EXPONENTS(0.,0.,0.,0.,0.,0.,0.);
#498=(
CONVERSION_BASED_UNIT('degree',#500)
NAMED_UNIT(#497)
PLANE_ANGLE_UNIT()
);
#499=(
NAMED_UNIT(*)
PLANE_ANGLE_UNIT()
SI_UNIT($,.RADIAN.)
);
#500=PLANE_ANGLE_MEASURE_WITH_UNIT(PLANE_ANGLE_MEASURE(0.01745329252),#499);
#501=SHAPE_DEFINITION_REPRESENTATION(#502,#503);
#502=PRODUCT_DEFINITION_SHAPE('',$,#505);
#503=SHAPE_REPRESENTATION('',(#249),#493);
#504=PRODUCT_DEFINITION_CONTEXT('part definition',#509,'design');
#505=PRODUCT_DEFINITION('6.560-5005.01','6.560-5005.01',#506,#504);
#506=PRODUCT_DEFINITION_FORMATION('',$,#511);
#507=PRODUCT_RELATED_PRODUCT_CATEGORY('6.560-5005.01','6.560-5005.01',(#511));
#508=APPLICATION_PROTOCOL_DEFINITION('international standard',
'automotive_design',2009,#509);
#509=APPLICATION_CONTEXT(
'Core Data for Automotive Mechanical Design Process');
#510=PRODUCT_CONTEXT('part definition',#509,'mechanical');
#511=PRODUCT('6.560-5005.01','6.560-5005.01',$,(#510));
#512=PRESENTATION_STYLE_ASSIGNMENT((#515));
#513=PRESENTATION_STYLE_ASSIGNMENT((#516));
#514=PRESENTATION_STYLE_ASSIGNMENT((#517));
#515=SURFACE_STYLE_USAGE(.BOTH.,#518);
#516=SURFACE_STYLE_USAGE(.BOTH.,#519);
#517=SURFACE_STYLE_USAGE(.BOTH.,#520);
#518=SURFACE_SIDE_STYLE($,(#521));
#519=SURFACE_SIDE_STYLE($,(#522));
#520=SURFACE_SIDE_STYLE($,(#523));
#521=SURFACE_STYLE_FILL_AREA(#524);
#522=SURFACE_STYLE_FILL_AREA(#525);
#523=SURFACE_STYLE_FILL_AREA(#526);
#524=FILL_AREA_STYLE($,(#527));
#525=FILL_AREA_STYLE($,(#528));
#526=FILL_AREA_STYLE($,(#529));
#527=FILL_AREA_STYLE_COLOUR($,#530);
#528=FILL_AREA_STYLE_COLOUR($,#531);
#529=FILL_AREA_STYLE_COLOUR($,#532);
#530=COLOUR_RGB('',1.,1.,1.);
#531=COLOUR_RGB('',0.32156862745098,0.32156862745098,0.32156862745098);
#532=COLOUR_RGB('',0.831372549019608,0.,0.);
ENDSEC;
END-ISO-10303-21;
