M48
; DRILL file {KiCad 9.0.2} date 2026-05-30T15:20:28-0600
; FORMAT={-:-/ absolute / metric / decimal}
; #@! TF.CreationDate,2026-05-30T15:20:28-06:00
; #@! TF.GenerationSoftware,Kicad,Pcbnew,9.0.2
; #@! TF.FileFunction,Plated,1,4,PTH
FMAT,2
METRIC
; #@! TA.AperFunction,Plated,PTH,ViaDrill
T1C0.300
; #@! TA.AperFunction,Plated,PTH,ComponentDrill
T2C0.813
; #@! TA.AperFunction,Plated,PTH,ComponentDrill
T3C1.000
; #@! TA.AperFunction,Plated,PTH,ComponentDrill
T4C1.016
; #@! TA.AperFunction,Plated,PTH,ComponentDrill
T5C1.200
; #@! TA.AperFunction,Plated,PTH,ComponentDrill
T6C1.499
%
G90
G05
T1
X184.05Y-88.475
X184.55Y-77.375
X185.741Y-67.71
X185.775Y-77.5
X185.775Y-84.475
X186.112Y-66.062
X187.675Y-65.525
X188.75Y-60.075
X189.215Y-68.36
X189.475Y-82.4
X189.525Y-69.425
X190.561Y-78.414
X191.875Y-65.475
X193.275Y-62.175
X193.292Y-67.533
X194.225Y-60.35
X194.475Y-64.65
X194.85Y-74.925
X194.85Y-80.175
X195.3Y-84.35
X195.9Y-85.875
X196.35Y-81.45
X197.025Y-69.55
X198.25Y-64.65
X199.25Y-71.3
X199.4Y-84.4
X199.65Y-73.075
X199.675Y-78.025
X199.875Y-65.725
X200.749Y-83.335
X200.8Y-74.85
X201.15Y-71.575
X202.099Y-89.01
X202.28Y-84.95
X203.625Y-67.45
X203.75Y-78.075
X204.3Y-81.775
T2
X182.66Y-64.36
X182.66Y-66.36
X182.66Y-68.36
X182.7Y-76.15
X182.7Y-78.15
X182.7Y-80.15
X192.583Y-71.806
X192.583Y-74.346
X192.583Y-76.886
X192.583Y-79.426
T3
X193.98Y-48.212
X193.98Y-55.911
X196.52Y-55.911
X199.06Y-55.911
X201.6Y-48.212
X201.6Y-55.911
X203.2Y-91.796
X207.874Y-56.921
X207.874Y-69.799
X207.874Y-80.95
T4
X192.583Y-84.633
X192.583Y-87.173
X192.583Y-89.713
X192.583Y-92.253
X207.92Y-84.58
X207.92Y-87.12
X207.92Y-89.66
X207.92Y-92.2
T5
X182.758Y-50.597
X182.758Y-57.597
X186.258Y-50.597
X186.258Y-57.597
T6
X182.66Y-62.26
X182.66Y-70.46
X182.7Y-74.05
X182.7Y-82.25
M30
