%TF.GenerationSoftware,KiCad,Pcbnew,9.0.2*%
%TF.CreationDate,2026-05-30T15:19:48-06:00*%
%TF.ProjectId,DaFO,4461464f-2e6b-4696-9361-645f70636258,v.1*%
%TF.SameCoordinates,Original*%
%TF.FileFunction,Copper,L3,Inr*%
%TF.FilePolarity,Positive*%
%FSLAX46Y46*%
G04 Gerber Fmt 4.6, Leading zero omitted, Abs format (unit mm)*
G04 Created by KiCad (PCBNEW 9.0.2) date 2026-05-30 15:19:48*
%MOMM*%
%LPD*%
G01*
G04 APERTURE LIST*
%TA.AperFunction,ComponentPad*%
%ADD10R,1.800000X1.800000*%
%TD*%
%TA.AperFunction,ComponentPad*%
%ADD11C,1.800000*%
%TD*%
%TA.AperFunction,ComponentPad*%
%ADD12C,1.320800*%
%TD*%
%TA.AperFunction,ComponentPad*%
%ADD13C,2.006600*%
%TD*%
%TA.AperFunction,ComponentPad*%
%ADD14C,2.000000*%
%TD*%
%TA.AperFunction,ComponentPad*%
%ADD15R,1.524000X1.524000*%
%TD*%
%TA.AperFunction,ComponentPad*%
%ADD16C,1.524000*%
%TD*%
%TA.AperFunction,ComponentPad*%
%ADD17R,1.500000X1.500000*%
%TD*%
%TA.AperFunction,ComponentPad*%
%ADD18C,1.500000*%
%TD*%
%TA.AperFunction,ComponentPad*%
%ADD19R,1.320800X1.320800*%
%TD*%
%TA.AperFunction,ViaPad*%
%ADD20C,0.600000*%
%TD*%
G04 APERTURE END LIST*
D10*
%TO.N,Net-(J5-1)*%
%TO.C,J5*%
X186258200Y-57596800D03*
%TO.N,N/C*%
X186258200Y-50596800D03*
D11*
%TO.N,GND*%
X182758200Y-57596800D03*
%TO.N,N/C*%
X182758200Y-50596800D03*
%TD*%
D12*
%TO.N,Net-(BUFF1-A)*%
%TO.C,S1*%
X182700000Y-76150000D03*
%TO.N,/PWM*%
X182700000Y-78150000D03*
%TO.N,Net-(INV1-Pad2)*%
X182700000Y-80150001D03*
D13*
%TO.N,N/C*%
X182700000Y-74050001D03*
X182700000Y-82249999D03*
%TD*%
D12*
%TO.N,Net-(D1-Pad1)*%
%TO.C,S2*%
X182660000Y-64360000D03*
%TO.N,/NEG*%
X182660000Y-66360000D03*
%TO.N,/TM*%
X182660000Y-68360001D03*
D13*
%TO.N,N/C*%
X182660000Y-62260001D03*
X182660000Y-70459999D03*
%TD*%
D14*
%TO.N,/TM*%
%TO.C,TP2*%
X207873600Y-80949800D03*
%TD*%
%TO.N,/V_INV2*%
%TO.C,TP4*%
X207873600Y-56921400D03*
%TD*%
D15*
%TO.N,VCC*%
%TO.C,J1*%
X192582800Y-84632800D03*
D16*
%TO.N,/PWM*%
X192582800Y-87172800D03*
%TO.N,GND*%
X192582800Y-89712800D03*
%TO.N,/EN*%
X192582800Y-92252800D03*
%TD*%
D14*
%TO.N,/NEG*%
%TO.C,TP1*%
X203200000Y-91795600D03*
%TD*%
D17*
%TO.N,/V_INV2*%
%TO.C,Tx1*%
X193980000Y-55911500D03*
D18*
%TO.N,GND*%
X196520000Y-55911500D03*
%TO.N,unconnected-(Tx1-GROUND_1-Pad3)*%
X199060000Y-55911500D03*
%TO.N,unconnected-(Tx1-GROUND_2-Pad4)*%
X201600000Y-55911500D03*
%TO.N,unconnected-(Tx1-GROUND_3-Pad5)*%
X201600000Y-48211500D03*
%TO.N,unconnected-(Tx1-GROUND_4-Pad8)*%
X193980000Y-48211500D03*
%TD*%
D14*
%TO.N,/V_EN*%
%TO.C,TP3*%
X207873600Y-69799200D03*
%TD*%
D15*
%TO.N,VCC*%
%TO.C,J4*%
X207920000Y-84580000D03*
D16*
%TO.N,/PWM*%
X207920000Y-87120000D03*
%TO.N,GND*%
X207920000Y-89660000D03*
%TO.N,/EN*%
X207920000Y-92200000D03*
%TD*%
D19*
%TO.N,VCC*%
%TO.C,J2*%
X192582800Y-71805800D03*
D12*
%TO.N,/PWM*%
X192582800Y-74345800D03*
%TO.N,GND*%
X192582800Y-76885800D03*
%TO.N,/EN*%
X192582800Y-79425800D03*
%TD*%
D20*
%TO.N,Net-(INV1-Pad2)*%
X202279999Y-84950000D03*
%TO.N,GND*%
X187675000Y-65525000D03*
X189525000Y-69425000D03*
X200749200Y-83335100D03*
X200800000Y-74850000D03*
X195300000Y-84350000D03*
X188750000Y-60075000D03*
X199250000Y-71300000D03*
X204300000Y-81775000D03*
X189475000Y-82400000D03*
X193275000Y-62175000D03*
X196350000Y-81450000D03*
X202099200Y-89010100D03*
X203625000Y-67450000D03*
X199675000Y-78025000D03*
%TO.N,/NEG*%
X194850000Y-80175000D03*
X194850000Y-74925000D03*
%TO.N,VCC*%
X199400000Y-84400000D03*
X197025000Y-69550000D03*
X203750000Y-78075000D03*
X191875000Y-65475000D03*
X193292000Y-67533000D03*
%TO.N,Net-(BUFF1-A)*%
X190560600Y-78414400D03*
%TO.N,/TM*%
X189214999Y-68360001D03*
X194225000Y-60350000D03*
X184550000Y-77375000D03*
X184050000Y-88475000D03*
%TO.N,Net-(INV1-Pad2)*%
X195900000Y-85875000D03*
%TO.N,/V_EN*%
X198250000Y-64650000D03*
X199650000Y-73075000D03*
X194475000Y-64650000D03*
X201150000Y-71575000D03*
%TO.N,/V_INV2*%
X199875000Y-65725000D03*
%TO.N,Net-(D1-Pad1)*%
X185740763Y-67710001D03*
X185775000Y-77500000D03*
X186112500Y-66062500D03*
X185775000Y-84475000D03*
%TD*%
%TA.AperFunction,Conductor*%
%TO.N,GND*%
G36*
X210892539Y-46345185D02*
G01*
X210938294Y-46397989D01*
X210949500Y-46449500D01*
X210949500Y-93060500D01*
X210929815Y-93127539D01*
X210877011Y-93173294D01*
X210825500Y-93184500D01*
X209008618Y-93184500D01*
X208941579Y-93164815D01*
X208895824Y-93112011D01*
X208885880Y-93042853D01*
X208908298Y-92987616D01*
X208999787Y-92861694D01*
X209090005Y-92684632D01*
X209151413Y-92495636D01*
X209182500Y-92299361D01*
X209182500Y-92100639D01*
X209151413Y-91904364D01*
X209090005Y-91715368D01*
X209090005Y-91715367D01*
X209026690Y-91591106D01*
X208999787Y-91538306D01*
X208882981Y-91377536D01*
X208742464Y-91237019D01*
X208581694Y-91120213D01*
X208424667Y-91040203D01*
X208373872Y-90992229D01*
X208357077Y-90924408D01*
X208379614Y-90858273D01*
X208424669Y-90819234D01*
X208581422Y-90739364D01*
X208618716Y-90712268D01*
X208055942Y-90149494D01*
X208116081Y-90133381D01*
X208231920Y-90066502D01*
X208326502Y-89971920D01*
X208393381Y-89856081D01*
X208409495Y-89795942D01*
X208972268Y-90358715D01*
X208999362Y-90321425D01*
X209089542Y-90144437D01*
X209150924Y-89955523D01*
X209150924Y-89955520D01*
X209182000Y-89759321D01*
X209182000Y-89560678D01*
X209150924Y-89364479D01*
X209150924Y-89364476D01*
X209089542Y-89175562D01*
X208999358Y-88998567D01*
X208972268Y-88961283D01*
X208409494Y-89524057D01*
X208393381Y-89463919D01*
X208326502Y-89348080D01*
X208231920Y-89253498D01*
X208116081Y-89186619D01*
X208055942Y-89170504D01*
X208618716Y-88607731D01*
X208618715Y-88607730D01*
X208581432Y-88580641D01*
X208424668Y-88500765D01*
X208373872Y-88452790D01*
X208357077Y-88384969D01*
X208379615Y-88318834D01*
X208424667Y-88279796D01*
X208581694Y-88199787D01*
X208742464Y-88082981D01*
X208882981Y-87942464D01*
X208999787Y-87781694D01*
X209090005Y-87604632D01*
X209151413Y-87415636D01*
X209182500Y-87219361D01*
X209182500Y-87020639D01*
X209151413Y-86824364D01*
X209103044Y-86675499D01*
X209090006Y-86635370D01*
X209090005Y-86635367D01*
X209026690Y-86511106D01*
X208999787Y-86458306D01*
X208882981Y-86297536D01*
X208742464Y-86157019D01*
X208618310Y-86066816D01*
X208575646Y-86011487D01*
X208569667Y-85941874D01*
X208602273Y-85880079D01*
X208663112Y-85845721D01*
X208691196Y-85842499D01*
X208729872Y-85842499D01*
X208789483Y-85836091D01*
X208924331Y-85785796D01*
X209039546Y-85699546D01*
X209125796Y-85584331D01*
X209176091Y-85449483D01*
X209182500Y-85389873D01*
X209182499Y-83770128D01*
X209176091Y-83710517D01*
X209174131Y-83705263D01*
X209125797Y-83575671D01*
X209125793Y-83575664D01*
X209039547Y-83460455D01*
X209039544Y-83460452D01*
X208924335Y-83374206D01*
X208924328Y-83374202D01*
X208789482Y-83323908D01*
X208789483Y-83323908D01*
X208729883Y-83317501D01*
X208729881Y-83317500D01*
X208729873Y-83317500D01*
X208729864Y-83317500D01*
X207110129Y-83317500D01*
X207110123Y-83317501D01*
X207050516Y-83323908D01*
X206915671Y-83374202D01*
X206915664Y-83374206D01*
X206800455Y-83460452D01*
X206800452Y-83460455D01*
X206714206Y-83575664D01*
X206714202Y-83575671D01*
X206663908Y-83710517D01*
X206657986Y-83765606D01*
X206657501Y-83770123D01*
X206657500Y-83770135D01*
X206657500Y-85389870D01*
X206657501Y-85389876D01*
X206663908Y-85449483D01*
X206714202Y-85584328D01*
X206714206Y-85584335D01*
X206800452Y-85699544D01*
X206800455Y-85699547D01*
X206915664Y-85785793D01*
X206915671Y-85785797D01*
X207050517Y-85836091D01*
X207050516Y-85836091D01*
X207057444Y-85836835D01*
X207110127Y-85842500D01*
X207148801Y-85842499D01*
X207215838Y-85862182D01*
X207261594Y-85914985D01*
X207271539Y-85984143D01*
X207242516Y-86047699D01*
X207221687Y-86066816D01*
X207097542Y-86157014D01*
X207097533Y-86157021D01*
X206957021Y-86297533D01*
X206840213Y-86458305D01*
X206749994Y-86635367D01*
X206749993Y-86635370D01*
X206688587Y-86824362D01*
X206657500Y-87020639D01*
X206657500Y-87219360D01*
X206688587Y-87415637D01*
X206749993Y-87604629D01*
X206749994Y-87604632D01*
X206832014Y-87765602D01*
X206840213Y-87781694D01*
X206957019Y-87942464D01*
X207097536Y-88082981D01*
X207258306Y-88199787D01*
X207415332Y-88279796D01*
X207466127Y-88327769D01*
X207482922Y-88395590D01*
X207460385Y-88461725D01*
X207415332Y-88500764D01*
X207258566Y-88580641D01*
X207221283Y-88607729D01*
X207221282Y-88607730D01*
X207784058Y-89170504D01*
X207723919Y-89186619D01*
X207608080Y-89253498D01*
X207513498Y-89348080D01*
X207446619Y-89463919D01*
X207430504Y-89524057D01*
X206867730Y-88961282D01*
X206867729Y-88961283D01*
X206840643Y-88998564D01*
X206750457Y-89175562D01*
X206689075Y-89364476D01*
X206689075Y-89364479D01*
X206658000Y-89560678D01*
X206658000Y-89759321D01*
X206689075Y-89955520D01*
X206689075Y-89955523D01*
X206750457Y-90144437D01*
X206840641Y-90321432D01*
X206867730Y-90358715D01*
X206867731Y-90358716D01*
X207430504Y-89795942D01*
X207446619Y-89856081D01*
X207513498Y-89971920D01*
X207608080Y-90066502D01*
X207723919Y-90133381D01*
X207784057Y-90149494D01*
X207221283Y-90712268D01*
X207221283Y-90712269D01*
X207258567Y-90739358D01*
X207415331Y-90819234D01*
X207466127Y-90867209D01*
X207482922Y-90935030D01*
X207460384Y-91001165D01*
X207415331Y-91040204D01*
X207258305Y-91120213D01*
X207097533Y-91237021D01*
X206957021Y-91377533D01*
X206840213Y-91538305D01*
X206749994Y-91715367D01*
X206749993Y-91715370D01*
X206688587Y-91904362D01*
X206657500Y-92100639D01*
X206657500Y-92299360D01*
X206688587Y-92495637D01*
X206749993Y-92684629D01*
X206749994Y-92684632D01*
X206795078Y-92773112D01*
X206840213Y-92861694D01*
X206931700Y-92987616D01*
X206955180Y-93053421D01*
X206939355Y-93121474D01*
X206889249Y-93170169D01*
X206831382Y-93184500D01*
X204222778Y-93184500D01*
X204155739Y-93164815D01*
X204109984Y-93112011D01*
X204100040Y-93042853D01*
X204129065Y-92979297D01*
X204149893Y-92960182D01*
X204150264Y-92959911D01*
X204177510Y-92940117D01*
X204344517Y-92773110D01*
X204483343Y-92582033D01*
X204590568Y-92371592D01*
X204663553Y-92146968D01*
X204693615Y-91957164D01*
X204700500Y-91913697D01*
X204700500Y-91677502D01*
X204663553Y-91444231D01*
X204590566Y-91219603D01*
X204520858Y-91082795D01*
X204483343Y-91009167D01*
X204344517Y-90818090D01*
X204177510Y-90651083D01*
X203986433Y-90512257D01*
X203775996Y-90405033D01*
X203551368Y-90332046D01*
X203318097Y-90295100D01*
X203318092Y-90295100D01*
X203081908Y-90295100D01*
X203081903Y-90295100D01*
X202848631Y-90332046D01*
X202624003Y-90405033D01*
X202413566Y-90512257D01*
X202304550Y-90591462D01*
X202222490Y-90651083D01*
X202222488Y-90651085D01*
X202222487Y-90651085D01*
X202055485Y-90818087D01*
X202055485Y-90818088D01*
X202055483Y-90818090D01*
X202019796Y-90867209D01*
X201916657Y-91009166D01*
X201809433Y-91219603D01*
X201736446Y-91444231D01*
X201699500Y-91677502D01*
X201699500Y-91913697D01*
X201736446Y-92146968D01*
X201809433Y-92371596D01*
X201872636Y-92495637D01*
X201916657Y-92582033D01*
X202055483Y-92773110D01*
X202222490Y-92940117D01*
X202222493Y-92940119D01*
X202250107Y-92960182D01*
X202292773Y-93015512D01*
X202298752Y-93085125D01*
X202266146Y-93146920D01*
X202205307Y-93181278D01*
X202177222Y-93184500D01*
X193709780Y-93184500D01*
X193642741Y-93164815D01*
X193596986Y-93112011D01*
X193587042Y-93042853D01*
X193609462Y-92987614D01*
X193615505Y-92979297D01*
X193662587Y-92914494D01*
X193752805Y-92737432D01*
X193814213Y-92548436D01*
X193845300Y-92352161D01*
X193845300Y-92153439D01*
X193814213Y-91957164D01*
X193752805Y-91768168D01*
X193752805Y-91768167D01*
X193662586Y-91591105D01*
X193545781Y-91430336D01*
X193405264Y-91289819D01*
X193244494Y-91173013D01*
X193087467Y-91093003D01*
X193036672Y-91045029D01*
X193019877Y-90977208D01*
X193042414Y-90911073D01*
X193087469Y-90872034D01*
X193244222Y-90792164D01*
X193281516Y-90765068D01*
X192718742Y-90202294D01*
X192778881Y-90186181D01*
X192894720Y-90119302D01*
X192989302Y-90024720D01*
X193056181Y-89908881D01*
X193072295Y-89848742D01*
X193635068Y-90411515D01*
X193662162Y-90374225D01*
X193752342Y-90197237D01*
X193813724Y-90008323D01*
X193813724Y-90008320D01*
X193844800Y-89812121D01*
X193844800Y-89613477D01*
X193838738Y-89575203D01*
X193813724Y-89417279D01*
X193813724Y-89417276D01*
X193752342Y-89228362D01*
X193662158Y-89051367D01*
X193635068Y-89014083D01*
X193072294Y-89576857D01*
X193056181Y-89516719D01*
X192989302Y-89400880D01*
X192894720Y-89306298D01*
X192778881Y-89239419D01*
X192718742Y-89223304D01*
X193281516Y-88660531D01*
X193281515Y-88660530D01*
X193244232Y-88633441D01*
X193087468Y-88553565D01*
X193036672Y-88505590D01*
X193019877Y-88437769D01*
X193042415Y-88371634D01*
X193087467Y-88332596D01*
X193244494Y-88252587D01*
X193405264Y-88135781D01*
X193545781Y-87995264D01*
X193662587Y-87834494D01*
X193752805Y-87657432D01*
X193814213Y-87468436D01*
X193845300Y-87272161D01*
X193845300Y-87073439D01*
X193814213Y-86877164D01*
X193752805Y-86688168D01*
X193752805Y-86688167D01*
X193662586Y-86511105D01*
X193652183Y-86496786D01*
X193545781Y-86350336D01*
X193405264Y-86209819D01*
X193281110Y-86119616D01*
X193238446Y-86064287D01*
X193232467Y-85994674D01*
X193265073Y-85932879D01*
X193325912Y-85898521D01*
X193353996Y-85895299D01*
X193392672Y-85895299D01*
X193452283Y-85888891D01*
X193587131Y-85838596D01*
X193643827Y-85796153D01*
X195099500Y-85796153D01*
X195099500Y-85953846D01*
X195130261Y-86108489D01*
X195130264Y-86108501D01*
X195190602Y-86254172D01*
X195190609Y-86254185D01*
X195278210Y-86385288D01*
X195278213Y-86385292D01*
X195389707Y-86496786D01*
X195389711Y-86496789D01*
X195520814Y-86584390D01*
X195520827Y-86584397D01*
X195643884Y-86635368D01*
X195666503Y-86644737D01*
X195821153Y-86675499D01*
X195821156Y-86675500D01*
X195821158Y-86675500D01*
X195978844Y-86675500D01*
X195978845Y-86675499D01*
X196133497Y-86644737D01*
X196279179Y-86584394D01*
X196410289Y-86496789D01*
X196521789Y-86385289D01*
X196609394Y-86254179D01*
X196669737Y-86108497D01*
X196700500Y-85953842D01*
X196700500Y-85796158D01*
X196700500Y-85796155D01*
X196700499Y-85796153D01*
X196685298Y-85719735D01*
X196669737Y-85641503D01*
X196667925Y-85637128D01*
X196609397Y-85495827D01*
X196609390Y-85495814D01*
X196521789Y-85364711D01*
X196521786Y-85364707D01*
X196410292Y-85253213D01*
X196410288Y-85253210D01*
X196279185Y-85165609D01*
X196279172Y-85165602D01*
X196133501Y-85105264D01*
X196133489Y-85105261D01*
X195978845Y-85074500D01*
X195978842Y-85074500D01*
X195821158Y-85074500D01*
X195821155Y-85074500D01*
X195666510Y-85105261D01*
X195666498Y-85105264D01*
X195520827Y-85165602D01*
X195520814Y-85165609D01*
X195389711Y-85253210D01*
X195389707Y-85253213D01*
X195278213Y-85364707D01*
X195278210Y-85364711D01*
X195190609Y-85495814D01*
X195190602Y-85495827D01*
X195130264Y-85641498D01*
X195130261Y-85641510D01*
X195099500Y-85796153D01*
X193643827Y-85796153D01*
X193702346Y-85752346D01*
X193788596Y-85637131D01*
X193838891Y-85502283D01*
X193845300Y-85442673D01*
X193845299Y-84321153D01*
X198599500Y-84321153D01*
X198599500Y-84478846D01*
X198630261Y-84633489D01*
X198630264Y-84633501D01*
X198690602Y-84779172D01*
X198690609Y-84779185D01*
X198778210Y-84910288D01*
X198778213Y-84910292D01*
X198889707Y-85021786D01*
X198889711Y-85021789D01*
X199020814Y-85109390D01*
X199020827Y-85109397D01*
X199156520Y-85165602D01*
X199166503Y-85169737D01*
X199321153Y-85200499D01*
X199321156Y-85200500D01*
X199321158Y-85200500D01*
X199478844Y-85200500D01*
X199478845Y-85200499D01*
X199633497Y-85169737D01*
X199779179Y-85109394D01*
X199910289Y-85021789D01*
X200021789Y-84910289D01*
X200047939Y-84871153D01*
X201479499Y-84871153D01*
X201479499Y-85028846D01*
X201510260Y-85183489D01*
X201510263Y-85183501D01*
X201570601Y-85329172D01*
X201570608Y-85329185D01*
X201658209Y-85460288D01*
X201658212Y-85460292D01*
X201769706Y-85571786D01*
X201769710Y-85571789D01*
X201900813Y-85659390D01*
X201900826Y-85659397D01*
X202036886Y-85715754D01*
X202046502Y-85719737D01*
X202201152Y-85750499D01*
X202201155Y-85750500D01*
X202201157Y-85750500D01*
X202358843Y-85750500D01*
X202358844Y-85750499D01*
X202513496Y-85719737D01*
X202659178Y-85659394D01*
X202790288Y-85571789D01*
X202901788Y-85460289D01*
X202989393Y-85329179D01*
X203049736Y-85183497D01*
X203080499Y-85028842D01*
X203080499Y-84871158D01*
X203080499Y-84871155D01*
X203080498Y-84871153D01*
X203065584Y-84796175D01*
X203049736Y-84716503D01*
X203049734Y-84716498D01*
X202989396Y-84570827D01*
X202989389Y-84570814D01*
X202901788Y-84439711D01*
X202901785Y-84439707D01*
X202790291Y-84328213D01*
X202790287Y-84328210D01*
X202659184Y-84240609D01*
X202659171Y-84240602D01*
X202513500Y-84180264D01*
X202513488Y-84180261D01*
X202358844Y-84149500D01*
X202358841Y-84149500D01*
X202201157Y-84149500D01*
X202201154Y-84149500D01*
X202046509Y-84180261D01*
X202046497Y-84180264D01*
X201900826Y-84240602D01*
X201900813Y-84240609D01*
X201769710Y-84328210D01*
X201769706Y-84328213D01*
X201658212Y-84439707D01*
X201658209Y-84439711D01*
X201570608Y-84570814D01*
X201570601Y-84570827D01*
X201510263Y-84716498D01*
X201510260Y-84716510D01*
X201479499Y-84871153D01*
X200047939Y-84871153D01*
X200109394Y-84779179D01*
X200169737Y-84633497D01*
X200200500Y-84478842D01*
X200200500Y-84321158D01*
X200200500Y-84321155D01*
X200200499Y-84321153D01*
X200184657Y-84241510D01*
X200169737Y-84166503D01*
X200162694Y-84149500D01*
X200109397Y-84020827D01*
X200109390Y-84020814D01*
X200021789Y-83889711D01*
X200021786Y-83889707D01*
X199910292Y-83778213D01*
X199910288Y-83778210D01*
X199779185Y-83690609D01*
X199779172Y-83690602D01*
X199633501Y-83630264D01*
X199633489Y-83630261D01*
X199478845Y-83599500D01*
X199478842Y-83599500D01*
X199321158Y-83599500D01*
X199321155Y-83599500D01*
X199166510Y-83630261D01*
X199166498Y-83630264D01*
X199020827Y-83690602D01*
X199020814Y-83690609D01*
X198889711Y-83778210D01*
X198889707Y-83778213D01*
X198778213Y-83889707D01*
X198778210Y-83889711D01*
X198690609Y-84020814D01*
X198690602Y-84020827D01*
X198630264Y-84166498D01*
X198630261Y-84166510D01*
X198599500Y-84321153D01*
X193845299Y-84321153D01*
X193845299Y-83822928D01*
X193838891Y-83763317D01*
X193817238Y-83705263D01*
X193788597Y-83628471D01*
X193788593Y-83628464D01*
X193702347Y-83513255D01*
X193702344Y-83513252D01*
X193587135Y-83427006D01*
X193587128Y-83427002D01*
X193452282Y-83376708D01*
X193452283Y-83376708D01*
X193392683Y-83370301D01*
X193392681Y-83370300D01*
X193392673Y-83370300D01*
X193392664Y-83370300D01*
X191772929Y-83370300D01*
X191772923Y-83370301D01*
X191713316Y-83376708D01*
X191578471Y-83427002D01*
X191578464Y-83427006D01*
X191463255Y-83513252D01*
X191463252Y-83513255D01*
X191377006Y-83628464D01*
X191377002Y-83628471D01*
X191326708Y-83763317D01*
X191325107Y-83778213D01*
X191320301Y-83822923D01*
X191320300Y-83822935D01*
X191320300Y-85442670D01*
X191320301Y-85442676D01*
X191326708Y-85502283D01*
X191377002Y-85637128D01*
X191377006Y-85637135D01*
X191463252Y-85752344D01*
X191463255Y-85752347D01*
X191578464Y-85838593D01*
X191578471Y-85838597D01*
X191713317Y-85888891D01*
X191713316Y-85888891D01*
X191720244Y-85889635D01*
X191772927Y-85895300D01*
X191811601Y-85895299D01*
X191878638Y-85914982D01*
X191924394Y-85967785D01*
X191934339Y-86036943D01*
X191905316Y-86100499D01*
X191884487Y-86119616D01*
X191760342Y-86209814D01*
X191760333Y-86209821D01*
X191619821Y-86350333D01*
X191503013Y-86511105D01*
X191412794Y-86688167D01*
X191412793Y-86688170D01*
X191351387Y-86877162D01*
X191320300Y-87073439D01*
X191320300Y-87272160D01*
X191351387Y-87468437D01*
X191412793Y-87657429D01*
X191412794Y-87657432D01*
X191467914Y-87765609D01*
X191503013Y-87834494D01*
X191619819Y-87995264D01*
X191760336Y-88135781D01*
X191921106Y-88252587D01*
X192078132Y-88332596D01*
X192128927Y-88380569D01*
X192145722Y-88448390D01*
X192123185Y-88514525D01*
X192078132Y-88553564D01*
X191921366Y-88633441D01*
X191884083Y-88660529D01*
X191884082Y-88660530D01*
X192446858Y-89223304D01*
X192386719Y-89239419D01*
X192270880Y-89306298D01*
X192176298Y-89400880D01*
X192109419Y-89516719D01*
X192093304Y-89576857D01*
X191530530Y-89014082D01*
X191530529Y-89014083D01*
X191503443Y-89051364D01*
X191413257Y-89228362D01*
X191351875Y-89417276D01*
X191351875Y-89417279D01*
X191320800Y-89613478D01*
X191320800Y-89812121D01*
X191351875Y-90008320D01*
X191351875Y-90008323D01*
X191413257Y-90197237D01*
X191503441Y-90374232D01*
X191530530Y-90411515D01*
X191530531Y-90411516D01*
X192093304Y-89848742D01*
X192109419Y-89908881D01*
X192176298Y-90024720D01*
X192270880Y-90119302D01*
X192386719Y-90186181D01*
X192446857Y-90202294D01*
X191884083Y-90765068D01*
X191884083Y-90765069D01*
X191921367Y-90792158D01*
X192078131Y-90872034D01*
X192128927Y-90920009D01*
X192145722Y-90987830D01*
X192123184Y-91053965D01*
X192078131Y-91093004D01*
X191921105Y-91173013D01*
X191760333Y-91289821D01*
X191619821Y-91430333D01*
X191503013Y-91591105D01*
X191412794Y-91768167D01*
X191412793Y-91768170D01*
X191351387Y-91957162D01*
X191320300Y-92153439D01*
X191320300Y-92352160D01*
X191351387Y-92548437D01*
X191412793Y-92737429D01*
X191412794Y-92737432D01*
X191503013Y-92914494D01*
X191556138Y-92987614D01*
X191579618Y-93053421D01*
X191563793Y-93121475D01*
X191513687Y-93170170D01*
X191455820Y-93184500D01*
X181304500Y-93184500D01*
X181237461Y-93164815D01*
X181191706Y-93112011D01*
X181180500Y-93060500D01*
X181180500Y-88396153D01*
X183249500Y-88396153D01*
X183249500Y-88553846D01*
X183280261Y-88708489D01*
X183280264Y-88708501D01*
X183340602Y-88854172D01*
X183340609Y-88854185D01*
X183428210Y-88985288D01*
X183428213Y-88985292D01*
X183539707Y-89096786D01*
X183539711Y-89096789D01*
X183670814Y-89184390D01*
X183670827Y-89184397D01*
X183803664Y-89239419D01*
X183816503Y-89244737D01*
X183971153Y-89275499D01*
X183971156Y-89275500D01*
X183971158Y-89275500D01*
X184128844Y-89275500D01*
X184128845Y-89275499D01*
X184283497Y-89244737D01*
X184396166Y-89198067D01*
X184429172Y-89184397D01*
X184429172Y-89184396D01*
X184429179Y-89184394D01*
X184560289Y-89096789D01*
X184671789Y-88985289D01*
X184759394Y-88854179D01*
X184819737Y-88708497D01*
X184850500Y-88553842D01*
X184850500Y-88396158D01*
X184850500Y-88396155D01*
X184850499Y-88396153D01*
X184845622Y-88371634D01*
X184819737Y-88241503D01*
X184802458Y-88199787D01*
X184759397Y-88095827D01*
X184759390Y-88095814D01*
X184671789Y-87964711D01*
X184671786Y-87964707D01*
X184560292Y-87853213D01*
X184560288Y-87853210D01*
X184429185Y-87765609D01*
X184429172Y-87765602D01*
X184283501Y-87705264D01*
X184283489Y-87705261D01*
X184128845Y-87674500D01*
X184128842Y-87674500D01*
X183971158Y-87674500D01*
X183971155Y-87674500D01*
X183816510Y-87705261D01*
X183816498Y-87705264D01*
X183670827Y-87765602D01*
X183670814Y-87765609D01*
X183539711Y-87853210D01*
X183539707Y-87853213D01*
X183428213Y-87964707D01*
X183428210Y-87964711D01*
X183340609Y-88095814D01*
X183340602Y-88095827D01*
X183280264Y-88241498D01*
X183280261Y-88241510D01*
X183249500Y-88396153D01*
X181180500Y-88396153D01*
X181180500Y-84396153D01*
X184974500Y-84396153D01*
X184974500Y-84553846D01*
X185005261Y-84708489D01*
X185005264Y-84708501D01*
X185065602Y-84854172D01*
X185065609Y-84854185D01*
X185153210Y-84985288D01*
X185153213Y-84985292D01*
X185264707Y-85096786D01*
X185264711Y-85096789D01*
X185395814Y-85184390D01*
X185395827Y-85184397D01*
X185541498Y-85244735D01*
X185541503Y-85244737D01*
X185696153Y-85275499D01*
X185696156Y-85275500D01*
X185696158Y-85275500D01*
X185853844Y-85275500D01*
X185853845Y-85275499D01*
X186008497Y-85244737D01*
X186154179Y-85184394D01*
X186285289Y-85096789D01*
X186396789Y-84985289D01*
X186484394Y-84854179D01*
X186544737Y-84708497D01*
X186575500Y-84553842D01*
X186575500Y-84396158D01*
X186575500Y-84396155D01*
X186575499Y-84396153D01*
X186544738Y-84241510D01*
X186544737Y-84241503D01*
X186544367Y-84240609D01*
X186484397Y-84095827D01*
X186484390Y-84095814D01*
X186396789Y-83964711D01*
X186396786Y-83964707D01*
X186285292Y-83853213D01*
X186285288Y-83853210D01*
X186154185Y-83765609D01*
X186154172Y-83765602D01*
X186008501Y-83705264D01*
X186008489Y-83705261D01*
X185853845Y-83674500D01*
X185853842Y-83674500D01*
X185696158Y-83674500D01*
X185696155Y-83674500D01*
X185541510Y-83705261D01*
X185541498Y-83705264D01*
X185395827Y-83765602D01*
X185395814Y-83765609D01*
X185264711Y-83853210D01*
X185264707Y-83853213D01*
X185153213Y-83964707D01*
X185153210Y-83964711D01*
X185065609Y-84095814D01*
X185065602Y-84095827D01*
X185005264Y-84241498D01*
X185005261Y-84241510D01*
X184974500Y-84396153D01*
X181180500Y-84396153D01*
X181180500Y-83096713D01*
X181200185Y-83029674D01*
X181252989Y-82983919D01*
X181322147Y-82973975D01*
X181385703Y-83003000D01*
X181410395Y-83034557D01*
X181411290Y-83034010D01*
X181413830Y-83038155D01*
X181413834Y-83038161D01*
X181413835Y-83038162D01*
X181552966Y-83229659D01*
X181720340Y-83397033D01*
X181911837Y-83536164D01*
X181989374Y-83575671D01*
X182122743Y-83643626D01*
X182347855Y-83716769D01*
X182347856Y-83716769D01*
X182347859Y-83716770D01*
X182581648Y-83753799D01*
X182581649Y-83753799D01*
X182818351Y-83753799D01*
X182818352Y-83753799D01*
X183052141Y-83716770D01*
X183052144Y-83716769D01*
X183052145Y-83716769D01*
X183277256Y-83643626D01*
X183277256Y-83643625D01*
X183277259Y-83643625D01*
X183488163Y-83536164D01*
X183679660Y-83397033D01*
X183847034Y-83229659D01*
X183986165Y-83038162D01*
X184093626Y-82827258D01*
X184166771Y-82602140D01*
X184203800Y-82368351D01*
X184203800Y-82131647D01*
X184166771Y-81897858D01*
X184166770Y-81897854D01*
X184166770Y-81897853D01*
X184093627Y-81672742D01*
X184007969Y-81504629D01*
X183986165Y-81461836D01*
X183847034Y-81270339D01*
X183679660Y-81102965D01*
X183624807Y-81063112D01*
X183582143Y-81007783D01*
X183576164Y-80938169D01*
X183597376Y-80889910D01*
X183692891Y-80758445D01*
X183775848Y-80595632D01*
X183832315Y-80421846D01*
X183849826Y-80311285D01*
X183860900Y-80241371D01*
X183860900Y-80058630D01*
X183832315Y-79878159D01*
X183832315Y-79878156D01*
X183775848Y-79704370D01*
X183692891Y-79541557D01*
X183585485Y-79393725D01*
X183456276Y-79264516D01*
X183436733Y-79250317D01*
X183394068Y-79194989D01*
X183388089Y-79125375D01*
X183420694Y-79063580D01*
X183436730Y-79049685D01*
X183456276Y-79035485D01*
X183585485Y-78906276D01*
X183692891Y-78758444D01*
X183775848Y-78595631D01*
X183832315Y-78421845D01*
X183845982Y-78335553D01*
X189760100Y-78335553D01*
X189760100Y-78493246D01*
X189790861Y-78647889D01*
X189790864Y-78647901D01*
X189851202Y-78793572D01*
X189851209Y-78793585D01*
X189938810Y-78924688D01*
X189938813Y-78924692D01*
X190050307Y-79036186D01*
X190050311Y-79036189D01*
X190181414Y-79123790D01*
X190181427Y-79123797D01*
X190304136Y-79174624D01*
X190327103Y-79184137D01*
X190481753Y-79214899D01*
X190481756Y-79214900D01*
X190481758Y-79214900D01*
X190639444Y-79214900D01*
X190674404Y-79207946D01*
X190674404Y-79207945D01*
X190794097Y-79184137D01*
X190939779Y-79123794D01*
X191070889Y-79036189D01*
X191182389Y-78924689D01*
X191269994Y-78793579D01*
X191330337Y-78647897D01*
X191361100Y-78493242D01*
X191361100Y-78335558D01*
X191361100Y-78335555D01*
X191361099Y-78335553D01*
X191347045Y-78264900D01*
X191330337Y-78180903D01*
X191315356Y-78144735D01*
X191269997Y-78035227D01*
X191269990Y-78035214D01*
X191182389Y-77904111D01*
X191182386Y-77904107D01*
X191070892Y-77792613D01*
X191070888Y-77792610D01*
X190939785Y-77705009D01*
X190939772Y-77705002D01*
X190794101Y-77644664D01*
X190794089Y-77644661D01*
X190639445Y-77613900D01*
X190639442Y-77613900D01*
X190481758Y-77613900D01*
X190481755Y-77613900D01*
X190327110Y-77644661D01*
X190327098Y-77644664D01*
X190181427Y-77705002D01*
X190181414Y-77705009D01*
X190050311Y-77792610D01*
X190050307Y-77792613D01*
X189938813Y-77904107D01*
X189938810Y-77904111D01*
X189851209Y-78035214D01*
X189851202Y-78035227D01*
X189790864Y-78180898D01*
X189790861Y-78180910D01*
X189760100Y-78335553D01*
X183845982Y-78335553D01*
X183850267Y-78308501D01*
X183860900Y-78241370D01*
X183860900Y-78109299D01*
X183880585Y-78042260D01*
X183933389Y-77996505D01*
X184002547Y-77986561D01*
X184053791Y-78006197D01*
X184170814Y-78084390D01*
X184170827Y-78084397D01*
X184261101Y-78121789D01*
X184316503Y-78144737D01*
X184471153Y-78175499D01*
X184471156Y-78175500D01*
X184471158Y-78175500D01*
X184628844Y-78175500D01*
X184628845Y-78175499D01*
X184783497Y-78144737D01*
X184929179Y-78084394D01*
X184929184Y-78084390D01*
X184929187Y-78084389D01*
X184967739Y-78058629D01*
X185023284Y-78021514D01*
X185089960Y-78000636D01*
X185157341Y-78019120D01*
X185179856Y-78036935D01*
X185264707Y-78121786D01*
X185264711Y-78121789D01*
X185395814Y-78209390D01*
X185395827Y-78209397D01*
X185529825Y-78264900D01*
X185541503Y-78269737D01*
X185696153Y-78300499D01*
X185696156Y-78300500D01*
X185696158Y-78300500D01*
X185853844Y-78300500D01*
X185853845Y-78300499D01*
X186008497Y-78269737D01*
X186076994Y-78241365D01*
X186140875Y-78214905D01*
X186140875Y-78214904D01*
X186154179Y-78209394D01*
X186285289Y-78121789D01*
X186396789Y-78010289D01*
X186484394Y-77879179D01*
X186544737Y-77733497D01*
X186575500Y-77578842D01*
X186575500Y-77421158D01*
X186575500Y-77421155D01*
X186575499Y-77421153D01*
X186568497Y-77385953D01*
X186544737Y-77266503D01*
X186543914Y-77264515D01*
X186484397Y-77120827D01*
X186484390Y-77120814D01*
X186396789Y-76989711D01*
X186396786Y-76989707D01*
X186285292Y-76878213D01*
X186285288Y-76878210D01*
X186154185Y-76790609D01*
X186154172Y-76790602D01*
X186008501Y-76730264D01*
X186008489Y-76730261D01*
X185853845Y-76699500D01*
X185853842Y-76699500D01*
X185696158Y-76699500D01*
X185696155Y-76699500D01*
X185541510Y-76730261D01*
X185541498Y-76730264D01*
X185395827Y-76790602D01*
X185395814Y-76790609D01*
X185301715Y-76853485D01*
X185235037Y-76874363D01*
X185167657Y-76855878D01*
X185145143Y-76838064D01*
X185060292Y-76753213D01*
X185060288Y-76753210D01*
X184929185Y-76665609D01*
X184929172Y-76665602D01*
X184783501Y-76605264D01*
X184783489Y-76605261D01*
X184628845Y-76574500D01*
X184628842Y-76574500D01*
X184471158Y-76574500D01*
X184471155Y-76574500D01*
X184316510Y-76605261D01*
X184316498Y-76605264D01*
X184170827Y-76665602D01*
X184170814Y-76665609D01*
X184039711Y-76753210D01*
X184039707Y-76753213D01*
X183928213Y-76864707D01*
X183928210Y-76864711D01*
X183840609Y-76995814D01*
X183840602Y-76995827D01*
X183780264Y-77141498D01*
X183780261Y-77141508D01*
X183751358Y-77286810D01*
X183747578Y-77294035D01*
X183747259Y-77302186D01*
X183731619Y-77324544D01*
X183718973Y-77348721D01*
X183711884Y-77352757D01*
X183707211Y-77359439D01*
X183681970Y-77369791D01*
X183658257Y-77383295D01*
X183650113Y-77382858D01*
X183642568Y-77385953D01*
X183615733Y-77381014D01*
X183588487Y-77379554D01*
X183580103Y-77374458D01*
X183573852Y-77373308D01*
X183550993Y-77356764D01*
X183544930Y-77353079D01*
X183543489Y-77351728D01*
X183456276Y-77264515D01*
X183430458Y-77245757D01*
X183424809Y-77240461D01*
X183410858Y-77216761D01*
X183394069Y-77194989D01*
X183393390Y-77187085D01*
X183389366Y-77180249D01*
X183390442Y-77152774D01*
X183388089Y-77125376D01*
X183391791Y-77118359D01*
X183392102Y-77110432D01*
X183407863Y-77087898D01*
X183420695Y-77063581D01*
X183431304Y-77054387D01*
X183432150Y-77053179D01*
X183433192Y-77052751D01*
X183436734Y-77049683D01*
X183456276Y-77035485D01*
X183585485Y-76906276D01*
X183692891Y-76758444D01*
X183775848Y-76595631D01*
X183832315Y-76421845D01*
X183849097Y-76315889D01*
X183860900Y-76241370D01*
X183860900Y-76058629D01*
X183841843Y-75938315D01*
X183832315Y-75878155D01*
X183775848Y-75704369D01*
X183692891Y-75541556D01*
X183597374Y-75410088D01*
X183573895Y-75344283D01*
X183589720Y-75276229D01*
X183624806Y-75236888D01*
X183679660Y-75197035D01*
X183847034Y-75029661D01*
X183986165Y-74838164D01*
X184093626Y-74627260D01*
X184155390Y-74437170D01*
X184166770Y-74402146D01*
X184166770Y-74402145D01*
X184166771Y-74402142D01*
X184203800Y-74168353D01*
X184203800Y-73931649D01*
X184166771Y-73697860D01*
X184166770Y-73697856D01*
X184166770Y-73697855D01*
X184093627Y-73472744D01*
X184090579Y-73466762D01*
X183986165Y-73261838D01*
X183847034Y-73070341D01*
X183679660Y-72902967D01*
X183488163Y-72763836D01*
X183354688Y-72695827D01*
X183277256Y-72656373D01*
X183052144Y-72583230D01*
X182876799Y-72555458D01*
X182818352Y-72546201D01*
X182581648Y-72546201D01*
X182503718Y-72558544D01*
X182347857Y-72583230D01*
X182347854Y-72583230D01*
X182122743Y-72656373D01*
X181911836Y-72763836D01*
X181829381Y-72823744D01*
X181720340Y-72902967D01*
X181720338Y-72902969D01*
X181720337Y-72902969D01*
X181552968Y-73070338D01*
X181552968Y-73070339D01*
X181552966Y-73070341D01*
X181525354Y-73108346D01*
X181413830Y-73261844D01*
X181411290Y-73265990D01*
X181409797Y-73265075D01*
X181367004Y-73310380D01*
X181299182Y-73327172D01*
X181233049Y-73304631D01*
X181189600Y-73249913D01*
X181180500Y-73203286D01*
X181180500Y-71363692D01*
X181200185Y-71296653D01*
X181252989Y-71250898D01*
X181322147Y-71240954D01*
X181385703Y-71269979D01*
X181404816Y-71290804D01*
X181512966Y-71439659D01*
X181680340Y-71607033D01*
X181871837Y-71746164D01*
X182082741Y-71853625D01*
X182082743Y-71853626D01*
X182307855Y-71926769D01*
X182307856Y-71926769D01*
X182307859Y-71926770D01*
X182541648Y-71963799D01*
X182541649Y-71963799D01*
X182778351Y-71963799D01*
X182778352Y-71963799D01*
X183012141Y-71926770D01*
X183012144Y-71926769D01*
X183012145Y-71926769D01*
X183237256Y-71853626D01*
X183237256Y-71853625D01*
X183237259Y-71853625D01*
X183448163Y-71746164D01*
X183639660Y-71607033D01*
X183807034Y-71439659D01*
X183946165Y-71248162D01*
X184022913Y-71097535D01*
X191421900Y-71097535D01*
X191421900Y-72514070D01*
X191421901Y-72514076D01*
X191428308Y-72573683D01*
X191478602Y-72708528D01*
X191478606Y-72708535D01*
X191564852Y-72823744D01*
X191564855Y-72823747D01*
X191680064Y-72909993D01*
X191680071Y-72909997D01*
X191814917Y-72960291D01*
X191814916Y-72960291D01*
X191821844Y-72961035D01*
X191874527Y-72966700D01*
X192293529Y-72966699D01*
X192360566Y-72986383D01*
X192406321Y-73039187D01*
X192416265Y-73108346D01*
X192387240Y-73171902D01*
X192328462Y-73209676D01*
X192312940Y-73213170D01*
X192310960Y-73213483D01*
X192310958Y-73213484D01*
X192137166Y-73269953D01*
X191974355Y-73352909D01*
X191826521Y-73460317D01*
X191697317Y-73589521D01*
X191589909Y-73737355D01*
X191506953Y-73900166D01*
X191450484Y-74073958D01*
X191421900Y-74254429D01*
X191421900Y-74437170D01*
X191439108Y-74545814D01*
X191450485Y-74617645D01*
X191506952Y-74791431D01*
X191589909Y-74954244D01*
X191697315Y-75102076D01*
X191826524Y-75231285D01*
X191974356Y-75338691D01*
X192137169Y-75421648D01*
X192310955Y-75478115D01*
X192360339Y-75485936D01*
X192408595Y-75493580D01*
X192471730Y-75523509D01*
X192508661Y-75582821D01*
X192507663Y-75652683D01*
X192469053Y-75710916D01*
X192408596Y-75738526D01*
X192311070Y-75753973D01*
X192137356Y-75810416D01*
X191974613Y-75893339D01*
X191974608Y-75893343D01*
X191956820Y-75906265D01*
X191956820Y-75906268D01*
X192529954Y-76479400D01*
X192529296Y-76479400D01*
X192425935Y-76507095D01*
X192333264Y-76560599D01*
X192257599Y-76636264D01*
X192204095Y-76728935D01*
X192176400Y-76832296D01*
X192176400Y-76832952D01*
X191603268Y-76259820D01*
X191603265Y-76259820D01*
X191590343Y-76277608D01*
X191590339Y-76277613D01*
X191507416Y-76440356D01*
X191450972Y-76614071D01*
X191422400Y-76794469D01*
X191422400Y-76977130D01*
X191450972Y-77157528D01*
X191507416Y-77331243D01*
X191590335Y-77493978D01*
X191603267Y-77511778D01*
X192176400Y-76938645D01*
X192176400Y-76939304D01*
X192204095Y-77042665D01*
X192257599Y-77135336D01*
X192333264Y-77211001D01*
X192425935Y-77264505D01*
X192529296Y-77292200D01*
X192529953Y-77292200D01*
X191956819Y-77865331D01*
X191974617Y-77878262D01*
X192137356Y-77961183D01*
X192311070Y-78017626D01*
X192408595Y-78033073D01*
X192471729Y-78063002D01*
X192508661Y-78122313D01*
X192507663Y-78192176D01*
X192469054Y-78250409D01*
X192408596Y-78278019D01*
X192310957Y-78293484D01*
X192137166Y-78349953D01*
X191974355Y-78432909D01*
X191826521Y-78540317D01*
X191697317Y-78669521D01*
X191589909Y-78817355D01*
X191506953Y-78980166D01*
X191450484Y-79153958D01*
X191421900Y-79334429D01*
X191421900Y-79517170D01*
X191445545Y-79666457D01*
X191450485Y-79697645D01*
X191506952Y-79871431D01*
X191589909Y-80034244D01*
X191697315Y-80182076D01*
X191826524Y-80311285D01*
X191974356Y-80418691D01*
X192137169Y-80501648D01*
X192310955Y-80558115D01*
X192378635Y-80568834D01*
X192491430Y-80586700D01*
X192491435Y-80586700D01*
X192674170Y-80586700D01*
X192774431Y-80570819D01*
X192854645Y-80558115D01*
X193028431Y-80501648D01*
X193191244Y-80418691D01*
X193339076Y-80311285D01*
X193468285Y-80182076D01*
X193530712Y-80096153D01*
X194049500Y-80096153D01*
X194049500Y-80253846D01*
X194080261Y-80408489D01*
X194080264Y-80408501D01*
X194140602Y-80554172D01*
X194140609Y-80554185D01*
X194228210Y-80685288D01*
X194228213Y-80685292D01*
X194339707Y-80796786D01*
X194339711Y-80796789D01*
X194470814Y-80884390D01*
X194470827Y-80884397D01*
X194600646Y-80938169D01*
X194616503Y-80944737D01*
X194771153Y-80975499D01*
X194771156Y-80975500D01*
X194771158Y-80975500D01*
X194928844Y-80975500D01*
X194928845Y-80975499D01*
X195083497Y-80944737D01*
X195229179Y-80884394D01*
X195308038Y-80831702D01*
X206373100Y-80831702D01*
X206373100Y-81067897D01*
X206410046Y-81301168D01*
X206483033Y-81525796D01*
X206590257Y-81736233D01*
X206729083Y-81927310D01*
X206896090Y-82094317D01*
X207087167Y-82233143D01*
X207186591Y-82283802D01*
X207297603Y-82340366D01*
X207297605Y-82340366D01*
X207297608Y-82340368D01*
X207383731Y-82368351D01*
X207522231Y-82413353D01*
X207755503Y-82450300D01*
X207755508Y-82450300D01*
X207991697Y-82450300D01*
X208224968Y-82413353D01*
X208449592Y-82340368D01*
X208660033Y-82233143D01*
X208851110Y-82094317D01*
X209018117Y-81927310D01*
X209156943Y-81736233D01*
X209264168Y-81525792D01*
X209337153Y-81301168D01*
X209368545Y-81102967D01*
X209374100Y-81067897D01*
X209374100Y-80831702D01*
X209337153Y-80598431D01*
X209303289Y-80494212D01*
X209264168Y-80373808D01*
X209264166Y-80373805D01*
X209264166Y-80373803D01*
X209196685Y-80241366D01*
X209156943Y-80163367D01*
X209018117Y-79972290D01*
X208851110Y-79805283D01*
X208660033Y-79666457D01*
X208656598Y-79664707D01*
X208449596Y-79559233D01*
X208224968Y-79486246D01*
X207991697Y-79449300D01*
X207991692Y-79449300D01*
X207755508Y-79449300D01*
X207755503Y-79449300D01*
X207522231Y-79486246D01*
X207297603Y-79559233D01*
X207087166Y-79666457D01*
X207034984Y-79704370D01*
X206896090Y-79805283D01*
X206896088Y-79805285D01*
X206896087Y-79805285D01*
X206729085Y-79972287D01*
X206729085Y-79972288D01*
X206729083Y-79972290D01*
X206684414Y-80033771D01*
X206590257Y-80163366D01*
X206483033Y-80373803D01*
X206410046Y-80598431D01*
X206373100Y-80831702D01*
X195308038Y-80831702D01*
X195360289Y-80796789D01*
X195360292Y-80796786D01*
X195417924Y-80739155D01*
X195471786Y-80685292D01*
X195471789Y-80685289D01*
X195559394Y-80554179D01*
X195619737Y-80408497D01*
X195650500Y-80253842D01*
X195650500Y-80096158D01*
X195650500Y-80096155D01*
X195650499Y-80096153D01*
X195625861Y-79972290D01*
X195619737Y-79941503D01*
X195619735Y-79941498D01*
X195559397Y-79795827D01*
X195559390Y-79795814D01*
X195471789Y-79664711D01*
X195471786Y-79664707D01*
X195360292Y-79553213D01*
X195360288Y-79553210D01*
X195229185Y-79465609D01*
X195229172Y-79465602D01*
X195083501Y-79405264D01*
X195083489Y-79405261D01*
X194928845Y-79374500D01*
X194928842Y-79374500D01*
X194771158Y-79374500D01*
X194771155Y-79374500D01*
X194616510Y-79405261D01*
X194616498Y-79405264D01*
X194470827Y-79465602D01*
X194470814Y-79465609D01*
X194339711Y-79553210D01*
X194339707Y-79553213D01*
X194228213Y-79664707D01*
X194228210Y-79664711D01*
X194140609Y-79795814D01*
X194140602Y-79795827D01*
X194080264Y-79941498D01*
X194080261Y-79941510D01*
X194049500Y-80096153D01*
X193530712Y-80096153D01*
X193575691Y-80034244D01*
X193575694Y-80034239D01*
X193575930Y-80033776D01*
X193575932Y-80033771D01*
X193607259Y-79972288D01*
X193658648Y-79871431D01*
X193715115Y-79697645D01*
X193727819Y-79617431D01*
X193743700Y-79517170D01*
X193743700Y-79334429D01*
X193719895Y-79184135D01*
X193715115Y-79153955D01*
X193658648Y-78980169D01*
X193575691Y-78817356D01*
X193468285Y-78669524D01*
X193339076Y-78540315D01*
X193191244Y-78432909D01*
X193028431Y-78349952D01*
X192854645Y-78293485D01*
X192854643Y-78293484D01*
X192757003Y-78278019D01*
X192693868Y-78248089D01*
X192656938Y-78188777D01*
X192657936Y-78118915D01*
X192696547Y-78060682D01*
X192757005Y-78033073D01*
X192854527Y-78017627D01*
X192854528Y-78017627D01*
X192920618Y-77996153D01*
X202949500Y-77996153D01*
X202949500Y-78153846D01*
X202980261Y-78308489D01*
X202980264Y-78308501D01*
X203040602Y-78454172D01*
X203040609Y-78454185D01*
X203128210Y-78585288D01*
X203128213Y-78585292D01*
X203239707Y-78696786D01*
X203239711Y-78696789D01*
X203370814Y-78784390D01*
X203370827Y-78784397D01*
X203516498Y-78844735D01*
X203516503Y-78844737D01*
X203671153Y-78875499D01*
X203671156Y-78875500D01*
X203671158Y-78875500D01*
X203828844Y-78875500D01*
X203828845Y-78875499D01*
X203983497Y-78844737D01*
X204129179Y-78784394D01*
X204260289Y-78696789D01*
X204371789Y-78585289D01*
X204459394Y-78454179D01*
X204519737Y-78308497D01*
X204550500Y-78153842D01*
X204550500Y-77996158D01*
X204550500Y-77996155D01*
X204550499Y-77996153D01*
X204540621Y-77946493D01*
X204519737Y-77841503D01*
X204499486Y-77792613D01*
X204459397Y-77695827D01*
X204459390Y-77695814D01*
X204371789Y-77564711D01*
X204371786Y-77564707D01*
X204260292Y-77453213D01*
X204260288Y-77453210D01*
X204129185Y-77365609D01*
X204129172Y-77365602D01*
X203983501Y-77305264D01*
X203983489Y-77305261D01*
X203828845Y-77274500D01*
X203828842Y-77274500D01*
X203671158Y-77274500D01*
X203671155Y-77274500D01*
X203516510Y-77305261D01*
X203516498Y-77305264D01*
X203370827Y-77365602D01*
X203370814Y-77365609D01*
X203239711Y-77453210D01*
X203239707Y-77453213D01*
X203128213Y-77564707D01*
X203128210Y-77564711D01*
X203040609Y-77695814D01*
X203040602Y-77695827D01*
X202980264Y-77841498D01*
X202980261Y-77841510D01*
X202949500Y-77996153D01*
X192920618Y-77996153D01*
X193028243Y-77961183D01*
X193188396Y-77879581D01*
X193190978Y-77878265D01*
X193208779Y-77865331D01*
X192635648Y-77292200D01*
X192636304Y-77292200D01*
X192739665Y-77264505D01*
X192832336Y-77211001D01*
X192908001Y-77135336D01*
X192961505Y-77042665D01*
X192989200Y-76939304D01*
X192989200Y-76938647D01*
X193562331Y-77511778D01*
X193575265Y-77493978D01*
X193658183Y-77331243D01*
X193714627Y-77157528D01*
X193743200Y-76977130D01*
X193743200Y-76794469D01*
X193714627Y-76614071D01*
X193658183Y-76440356D01*
X193575262Y-76277617D01*
X193562331Y-76259820D01*
X193562331Y-76259819D01*
X192989200Y-76832951D01*
X192989200Y-76832296D01*
X192961505Y-76728935D01*
X192908001Y-76636264D01*
X192832336Y-76560599D01*
X192739665Y-76507095D01*
X192636304Y-76479400D01*
X192635647Y-76479400D01*
X193208778Y-75906267D01*
X193190978Y-75893335D01*
X193028243Y-75810416D01*
X192854529Y-75753973D01*
X192757003Y-75738526D01*
X192693869Y-75708596D01*
X192656938Y-75649285D01*
X192657936Y-75579422D01*
X192696546Y-75521190D01*
X192757004Y-75493580D01*
X192788799Y-75488543D01*
X192854645Y-75478115D01*
X193028431Y-75421648D01*
X193191244Y-75338691D01*
X193339076Y-75231285D01*
X193468285Y-75102076D01*
X193575691Y-74954244D01*
X193630766Y-74846153D01*
X194049500Y-74846153D01*
X194049500Y-75003846D01*
X194080261Y-75158489D01*
X194080264Y-75158501D01*
X194140602Y-75304172D01*
X194140609Y-75304185D01*
X194228210Y-75435288D01*
X194228213Y-75435292D01*
X194339707Y-75546786D01*
X194339711Y-75546789D01*
X194470814Y-75634390D01*
X194470827Y-75634397D01*
X194616498Y-75694735D01*
X194616503Y-75694737D01*
X194771153Y-75725499D01*
X194771156Y-75725500D01*
X194771158Y-75725500D01*
X194928844Y-75725500D01*
X194928845Y-75725499D01*
X195083497Y-75694737D01*
X195229179Y-75634394D01*
X195360289Y-75546789D01*
X195471789Y-75435289D01*
X195559394Y-75304179D01*
X195617329Y-75164311D01*
X205946900Y-75164311D01*
X205946900Y-75406888D01*
X205978561Y-75647385D01*
X206041347Y-75881704D01*
X206134173Y-76105805D01*
X206134176Y-76105812D01*
X206255464Y-76315889D01*
X206255466Y-76315892D01*
X206255467Y-76315893D01*
X206403133Y-76508336D01*
X206403139Y-76508343D01*
X206574656Y-76679860D01*
X206574662Y-76679865D01*
X206767111Y-76827536D01*
X206977188Y-76948824D01*
X207201300Y-77041654D01*
X207435611Y-77104438D01*
X207594654Y-77125376D01*
X207676111Y-77136100D01*
X207676112Y-77136100D01*
X207918689Y-77136100D01*
X208000146Y-77125376D01*
X208159189Y-77104438D01*
X208393500Y-77041654D01*
X208617612Y-76948824D01*
X208827689Y-76827536D01*
X209020138Y-76679865D01*
X209191665Y-76508338D01*
X209339336Y-76315889D01*
X209460624Y-76105812D01*
X209553454Y-75881700D01*
X209616238Y-75647389D01*
X209647900Y-75406888D01*
X209647900Y-75164312D01*
X209647134Y-75158497D01*
X209630173Y-75029661D01*
X209616238Y-74923811D01*
X209553454Y-74689500D01*
X209460624Y-74465388D01*
X209339336Y-74255311D01*
X209262565Y-74155261D01*
X209191666Y-74062863D01*
X209191660Y-74062856D01*
X209020143Y-73891339D01*
X209020136Y-73891333D01*
X208827693Y-73743667D01*
X208827692Y-73743666D01*
X208827689Y-73743664D01*
X208617612Y-73622376D01*
X208617605Y-73622373D01*
X208393504Y-73529547D01*
X208159185Y-73466761D01*
X207918689Y-73435100D01*
X207918688Y-73435100D01*
X207676112Y-73435100D01*
X207676111Y-73435100D01*
X207435614Y-73466761D01*
X207201295Y-73529547D01*
X206977194Y-73622373D01*
X206977185Y-73622377D01*
X206767106Y-73743667D01*
X206574663Y-73891333D01*
X206574656Y-73891339D01*
X206403139Y-74062856D01*
X206403133Y-74062863D01*
X206255467Y-74255306D01*
X206134177Y-74465385D01*
X206134173Y-74465394D01*
X206041347Y-74689495D01*
X205978561Y-74923814D01*
X205946900Y-75164311D01*
X195617329Y-75164311D01*
X195619737Y-75158497D01*
X195645364Y-75029662D01*
X195650500Y-75003844D01*
X195650500Y-74846155D01*
X195650499Y-74846153D01*
X195648084Y-74834012D01*
X195619737Y-74691503D01*
X195593126Y-74627257D01*
X195559397Y-74545827D01*
X195559390Y-74545814D01*
X195471789Y-74414711D01*
X195471786Y-74414707D01*
X195360292Y-74303213D01*
X195360288Y-74303210D01*
X195229185Y-74215609D01*
X195229172Y-74215602D01*
X195083501Y-74155264D01*
X195083489Y-74155261D01*
X194928845Y-74124500D01*
X194928842Y-74124500D01*
X194771158Y-74124500D01*
X194771155Y-74124500D01*
X194616510Y-74155261D01*
X194616498Y-74155264D01*
X194470827Y-74215602D01*
X194470814Y-74215609D01*
X194339711Y-74303210D01*
X194339707Y-74303213D01*
X194228213Y-74414707D01*
X194228210Y-74414711D01*
X194140609Y-74545814D01*
X194140602Y-74545827D01*
X194080264Y-74691498D01*
X194080261Y-74691510D01*
X194049500Y-74846153D01*
X193630766Y-74846153D01*
X193658648Y-74791431D01*
X193715115Y-74617645D01*
X193727819Y-74537431D01*
X193743700Y-74437170D01*
X193743700Y-74254429D01*
X193715115Y-74073958D01*
X193715115Y-74073955D01*
X193658648Y-73900169D01*
X193575691Y-73737356D01*
X193468285Y-73589524D01*
X193339076Y-73460315D01*
X193191244Y-73352909D01*
X193028431Y-73269952D01*
X192854645Y-73213485D01*
X192852667Y-73213171D01*
X192851977Y-73212844D01*
X192849905Y-73212347D01*
X192850009Y-73211911D01*
X192789534Y-73183240D01*
X192752604Y-73123928D01*
X192753604Y-73054065D01*
X192792003Y-72996153D01*
X198849500Y-72996153D01*
X198849500Y-73153846D01*
X198880261Y-73308489D01*
X198880264Y-73308501D01*
X198940602Y-73454172D01*
X198940609Y-73454185D01*
X199028210Y-73585288D01*
X199028213Y-73585292D01*
X199139707Y-73696786D01*
X199139711Y-73696789D01*
X199270814Y-73784390D01*
X199270827Y-73784397D01*
X199416498Y-73844735D01*
X199416503Y-73844737D01*
X199571153Y-73875499D01*
X199571156Y-73875500D01*
X199571158Y-73875500D01*
X199728844Y-73875500D01*
X199728845Y-73875499D01*
X199883497Y-73844737D01*
X200029179Y-73784394D01*
X200160289Y-73696789D01*
X200271789Y-73585289D01*
X200359394Y-73454179D01*
X200419737Y-73308497D01*
X200450500Y-73153842D01*
X200450500Y-72996158D01*
X200450500Y-72996155D01*
X200450499Y-72996153D01*
X200444640Y-72966698D01*
X200419737Y-72841503D01*
X200387567Y-72763836D01*
X200359397Y-72695827D01*
X200359390Y-72695814D01*
X200271789Y-72564711D01*
X200271786Y-72564707D01*
X200160292Y-72453213D01*
X200160288Y-72453210D01*
X200029185Y-72365609D01*
X200029172Y-72365602D01*
X199883501Y-72305264D01*
X199883489Y-72305261D01*
X199728845Y-72274500D01*
X199728842Y-72274500D01*
X199571158Y-72274500D01*
X199571155Y-72274500D01*
X199416510Y-72305261D01*
X199416498Y-72305264D01*
X199270827Y-72365602D01*
X199270814Y-72365609D01*
X199139711Y-72453210D01*
X199139707Y-72453213D01*
X199028213Y-72564707D01*
X199028210Y-72564711D01*
X198940609Y-72695814D01*
X198940602Y-72695827D01*
X198880264Y-72841498D01*
X198880261Y-72841510D01*
X198849500Y-72996153D01*
X192792003Y-72996153D01*
X192792215Y-72995834D01*
X192856180Y-72967721D01*
X192872064Y-72966699D01*
X193291072Y-72966699D01*
X193350683Y-72960291D01*
X193485531Y-72909996D01*
X193600746Y-72823746D01*
X193686996Y-72708531D01*
X193737291Y-72573683D01*
X193743700Y-72514073D01*
X193743699Y-71496153D01*
X200349500Y-71496153D01*
X200349500Y-71653846D01*
X200380261Y-71808489D01*
X200380264Y-71808501D01*
X200440602Y-71954172D01*
X200440609Y-71954185D01*
X200528210Y-72085288D01*
X200528213Y-72085292D01*
X200639707Y-72196786D01*
X200639711Y-72196789D01*
X200770814Y-72284390D01*
X200770827Y-72284397D01*
X200916498Y-72344735D01*
X200916503Y-72344737D01*
X201071153Y-72375499D01*
X201071156Y-72375500D01*
X201071158Y-72375500D01*
X201228844Y-72375500D01*
X201228845Y-72375499D01*
X201383497Y-72344737D01*
X201529179Y-72284394D01*
X201660289Y-72196789D01*
X201771789Y-72085289D01*
X201859394Y-71954179D01*
X201919737Y-71808497D01*
X201950500Y-71653842D01*
X201950500Y-71496158D01*
X201950500Y-71496155D01*
X201950499Y-71496153D01*
X201939262Y-71439660D01*
X201919737Y-71341503D01*
X201887118Y-71262753D01*
X201859397Y-71195827D01*
X201859390Y-71195814D01*
X201771789Y-71064711D01*
X201771786Y-71064707D01*
X201660292Y-70953213D01*
X201660288Y-70953210D01*
X201529185Y-70865609D01*
X201529172Y-70865602D01*
X201383501Y-70805264D01*
X201383489Y-70805261D01*
X201228845Y-70774500D01*
X201228842Y-70774500D01*
X201071158Y-70774500D01*
X201071155Y-70774500D01*
X200916510Y-70805261D01*
X200916498Y-70805264D01*
X200770827Y-70865602D01*
X200770814Y-70865609D01*
X200639711Y-70953210D01*
X200639707Y-70953213D01*
X200528213Y-71064707D01*
X200528210Y-71064711D01*
X200440609Y-71195814D01*
X200440602Y-71195827D01*
X200380264Y-71341498D01*
X200380261Y-71341510D01*
X200349500Y-71496153D01*
X193743699Y-71496153D01*
X193743699Y-71097528D01*
X193737291Y-71037917D01*
X193737286Y-71037904D01*
X193686997Y-70903071D01*
X193686993Y-70903064D01*
X193600747Y-70787855D01*
X193600744Y-70787852D01*
X193485535Y-70701606D01*
X193485528Y-70701602D01*
X193350682Y-70651308D01*
X193350683Y-70651308D01*
X193291083Y-70644901D01*
X193291081Y-70644900D01*
X193291073Y-70644900D01*
X193291064Y-70644900D01*
X191874529Y-70644900D01*
X191874523Y-70644901D01*
X191814916Y-70651308D01*
X191680071Y-70701602D01*
X191680064Y-70701606D01*
X191564855Y-70787852D01*
X191564852Y-70787855D01*
X191478606Y-70903064D01*
X191478602Y-70903071D01*
X191428308Y-71037917D01*
X191425428Y-71064711D01*
X191421901Y-71097523D01*
X191421900Y-71097535D01*
X184022913Y-71097535D01*
X184053626Y-71037258D01*
X184080934Y-70953213D01*
X184126770Y-70812144D01*
X184126770Y-70812143D01*
X184126771Y-70812140D01*
X184163800Y-70578351D01*
X184163800Y-70341647D01*
X184126771Y-70107858D01*
X184126770Y-70107854D01*
X184126770Y-70107853D01*
X184053627Y-69882742D01*
X183950886Y-69681102D01*
X183946165Y-69671836D01*
X183807034Y-69480339D01*
X183797848Y-69471153D01*
X196224500Y-69471153D01*
X196224500Y-69628846D01*
X196255261Y-69783489D01*
X196255264Y-69783501D01*
X196315602Y-69929172D01*
X196315609Y-69929185D01*
X196403210Y-70060288D01*
X196403213Y-70060292D01*
X196514707Y-70171786D01*
X196514711Y-70171789D01*
X196645814Y-70259390D01*
X196645827Y-70259397D01*
X196791498Y-70319735D01*
X196791503Y-70319737D01*
X196946153Y-70350499D01*
X196946156Y-70350500D01*
X196946158Y-70350500D01*
X197103844Y-70350500D01*
X197103845Y-70350499D01*
X197258497Y-70319737D01*
X197404179Y-70259394D01*
X197535289Y-70171789D01*
X197646789Y-70060289D01*
X197734394Y-69929179D01*
X197794737Y-69783497D01*
X197815105Y-69681102D01*
X206373100Y-69681102D01*
X206373100Y-69917297D01*
X206410046Y-70150568D01*
X206483033Y-70375196D01*
X206586546Y-70578350D01*
X206590257Y-70585633D01*
X206729083Y-70776710D01*
X206896090Y-70943717D01*
X207087167Y-71082543D01*
X207186591Y-71133202D01*
X207297603Y-71189766D01*
X207297605Y-71189766D01*
X207297608Y-71189768D01*
X207418012Y-71228889D01*
X207522231Y-71262753D01*
X207755503Y-71299700D01*
X207755508Y-71299700D01*
X207991697Y-71299700D01*
X208224968Y-71262753D01*
X208449592Y-71189768D01*
X208660033Y-71082543D01*
X208851110Y-70943717D01*
X209018117Y-70776710D01*
X209156943Y-70585633D01*
X209264168Y-70375192D01*
X209337153Y-70150568D01*
X209343918Y-70107853D01*
X209374100Y-69917297D01*
X209374100Y-69681102D01*
X209337153Y-69447831D01*
X209294480Y-69316498D01*
X209264168Y-69223208D01*
X209264166Y-69223205D01*
X209264166Y-69223203D01*
X209207602Y-69112191D01*
X209156943Y-69012767D01*
X209018117Y-68821690D01*
X208851110Y-68654683D01*
X208660033Y-68515857D01*
X208649519Y-68510500D01*
X208449596Y-68408633D01*
X208224968Y-68335646D01*
X207991697Y-68298700D01*
X207991692Y-68298700D01*
X207755508Y-68298700D01*
X207755503Y-68298700D01*
X207522231Y-68335646D01*
X207297603Y-68408633D01*
X207087166Y-68515857D01*
X206980315Y-68593490D01*
X206896090Y-68654683D01*
X206896088Y-68654685D01*
X206896087Y-68654685D01*
X206729085Y-68821687D01*
X206729085Y-68821688D01*
X206729083Y-68821690D01*
X206693774Y-68870289D01*
X206590257Y-69012766D01*
X206483033Y-69223203D01*
X206410046Y-69447831D01*
X206373100Y-69681102D01*
X197815105Y-69681102D01*
X197825500Y-69628842D01*
X197825500Y-69471158D01*
X197825500Y-69471155D01*
X197825499Y-69471153D01*
X197794738Y-69316510D01*
X197794737Y-69316503D01*
X197793271Y-69312964D01*
X197734397Y-69170827D01*
X197734390Y-69170814D01*
X197646789Y-69039711D01*
X197646786Y-69039707D01*
X197535292Y-68928213D01*
X197535288Y-68928210D01*
X197404185Y-68840609D01*
X197404172Y-68840602D01*
X197258501Y-68780264D01*
X197258489Y-68780261D01*
X197103845Y-68749500D01*
X197103842Y-68749500D01*
X196946158Y-68749500D01*
X196946155Y-68749500D01*
X196791510Y-68780261D01*
X196791498Y-68780264D01*
X196645827Y-68840602D01*
X196645814Y-68840609D01*
X196514711Y-68928210D01*
X196514707Y-68928213D01*
X196403213Y-69039707D01*
X196403210Y-69039711D01*
X196315609Y-69170814D01*
X196315602Y-69170827D01*
X196255264Y-69316498D01*
X196255261Y-69316510D01*
X196224500Y-69471153D01*
X183797848Y-69471153D01*
X183639660Y-69312965D01*
X183584807Y-69273112D01*
X183542143Y-69217783D01*
X183536164Y-69148169D01*
X183557376Y-69099910D01*
X183652891Y-68968445D01*
X183735848Y-68805632D01*
X183792315Y-68631846D01*
X183811534Y-68510500D01*
X183820900Y-68451371D01*
X183820900Y-68268630D01*
X183792315Y-68088159D01*
X183792315Y-68088156D01*
X183735848Y-67914370D01*
X183652891Y-67751557D01*
X183565413Y-67631154D01*
X184940263Y-67631154D01*
X184940263Y-67788847D01*
X184971024Y-67943490D01*
X184971027Y-67943502D01*
X185031365Y-68089173D01*
X185031372Y-68089186D01*
X185118973Y-68220289D01*
X185118976Y-68220293D01*
X185230470Y-68331787D01*
X185230474Y-68331790D01*
X185361577Y-68419391D01*
X185361590Y-68419398D01*
X185438769Y-68451366D01*
X185507266Y-68479738D01*
X185661916Y-68510500D01*
X185661919Y-68510501D01*
X185661921Y-68510501D01*
X185819607Y-68510501D01*
X185819608Y-68510500D01*
X185974260Y-68479738D01*
X186119942Y-68419395D01*
X186251052Y-68331790D01*
X186301688Y-68281154D01*
X188414499Y-68281154D01*
X188414499Y-68438847D01*
X188445260Y-68593490D01*
X188445263Y-68593502D01*
X188505601Y-68739173D01*
X188505608Y-68739186D01*
X188593209Y-68870289D01*
X188593212Y-68870293D01*
X188704706Y-68981787D01*
X188704710Y-68981790D01*
X188835813Y-69069391D01*
X188835826Y-69069398D01*
X188909490Y-69099910D01*
X188981502Y-69129738D01*
X189136152Y-69160500D01*
X189136155Y-69160501D01*
X189136157Y-69160501D01*
X189293843Y-69160501D01*
X189293844Y-69160500D01*
X189448496Y-69129738D01*
X189594178Y-69069395D01*
X189725288Y-68981790D01*
X189836788Y-68870290D01*
X189924393Y-68739180D01*
X189984736Y-68593498D01*
X190015499Y-68438843D01*
X190015499Y-68281159D01*
X190015499Y-68281156D01*
X190015498Y-68281154D01*
X189990362Y-68154789D01*
X189984736Y-68126504D01*
X189984734Y-68126499D01*
X189924396Y-67980828D01*
X189924389Y-67980815D01*
X189836788Y-67849712D01*
X189836785Y-67849708D01*
X189725291Y-67738214D01*
X189725287Y-67738211D01*
X189594184Y-67650610D01*
X189594171Y-67650603D01*
X189448500Y-67590265D01*
X189448488Y-67590262D01*
X189345032Y-67569683D01*
X189345031Y-67569683D01*
X189293843Y-67559501D01*
X189293841Y-67559501D01*
X189136157Y-67559501D01*
X189136154Y-67559501D01*
X188981509Y-67590262D01*
X188981497Y-67590265D01*
X188835826Y-67650603D01*
X188835813Y-67650610D01*
X188704710Y-67738211D01*
X188704706Y-67738214D01*
X188593212Y-67849708D01*
X188593209Y-67849712D01*
X188505608Y-67980815D01*
X188505601Y-67980828D01*
X188445263Y-68126499D01*
X188445260Y-68126511D01*
X188414499Y-68281154D01*
X186301688Y-68281154D01*
X186362552Y-68220290D01*
X186406319Y-68154789D01*
X186450153Y-68089186D01*
X186450153Y-68089185D01*
X186450157Y-68089180D01*
X186510500Y-67943498D01*
X186541263Y-67788843D01*
X186541263Y-67631159D01*
X186541263Y-67631156D01*
X186541262Y-67631154D01*
X186533128Y-67590262D01*
X186510500Y-67476504D01*
X186501242Y-67454153D01*
X192491500Y-67454153D01*
X192491500Y-67611846D01*
X192522261Y-67766489D01*
X192522264Y-67766501D01*
X192582602Y-67912172D01*
X192582609Y-67912185D01*
X192670210Y-68043288D01*
X192670213Y-68043292D01*
X192781707Y-68154786D01*
X192781711Y-68154789D01*
X192912814Y-68242390D01*
X192912827Y-68242397D01*
X193048757Y-68298700D01*
X193058503Y-68302737D01*
X193204546Y-68331787D01*
X193213153Y-68333499D01*
X193213156Y-68333500D01*
X193213158Y-68333500D01*
X193370844Y-68333500D01*
X193370845Y-68333499D01*
X193525497Y-68302737D01*
X193671179Y-68242394D01*
X193802289Y-68154789D01*
X193913789Y-68043289D01*
X194001394Y-67912179D01*
X194061737Y-67766497D01*
X194092500Y-67611842D01*
X194092500Y-67454158D01*
X194092500Y-67454155D01*
X194092499Y-67454153D01*
X194090961Y-67446419D01*
X194061737Y-67299503D01*
X194061735Y-67299498D01*
X194001397Y-67153827D01*
X194001390Y-67153814D01*
X193913789Y-67022711D01*
X193913786Y-67022707D01*
X193802292Y-66911213D01*
X193802288Y-66911210D01*
X193671185Y-66823609D01*
X193671172Y-66823602D01*
X193525501Y-66763264D01*
X193525489Y-66763261D01*
X193370845Y-66732500D01*
X193370842Y-66732500D01*
X193213158Y-66732500D01*
X193213155Y-66732500D01*
X193058510Y-66763261D01*
X193058498Y-66763264D01*
X192912827Y-66823602D01*
X192912814Y-66823609D01*
X192781711Y-66911210D01*
X192781707Y-66911213D01*
X192670213Y-67022707D01*
X192670210Y-67022711D01*
X192582609Y-67153814D01*
X192582602Y-67153827D01*
X192522264Y-67299498D01*
X192522261Y-67299510D01*
X192491500Y-67454153D01*
X186501242Y-67454153D01*
X186450160Y-67330828D01*
X186450153Y-67330815D01*
X186362552Y-67199712D01*
X186362549Y-67199708D01*
X186251052Y-67088211D01*
X186226532Y-67071828D01*
X186181727Y-67018216D01*
X186173020Y-66948891D01*
X186203174Y-66885864D01*
X186262617Y-66849144D01*
X186271232Y-66847109D01*
X186291259Y-66843124D01*
X186345997Y-66832237D01*
X186491679Y-66771894D01*
X186622789Y-66684289D01*
X186734289Y-66572789D01*
X186821894Y-66441679D01*
X186882237Y-66295997D01*
X186913000Y-66141342D01*
X186913000Y-65983658D01*
X186913000Y-65983655D01*
X186912999Y-65983653D01*
X186907995Y-65958497D01*
X186882237Y-65829003D01*
X186850158Y-65751556D01*
X186821897Y-65683327D01*
X186821890Y-65683314D01*
X186734289Y-65552211D01*
X186734286Y-65552207D01*
X186622792Y-65440713D01*
X186622788Y-65440710D01*
X186556104Y-65396153D01*
X191074500Y-65396153D01*
X191074500Y-65553846D01*
X191105261Y-65708489D01*
X191105264Y-65708501D01*
X191165602Y-65854172D01*
X191165609Y-65854185D01*
X191253210Y-65985288D01*
X191253213Y-65985292D01*
X191364707Y-66096786D01*
X191364711Y-66096789D01*
X191495814Y-66184390D01*
X191495827Y-66184397D01*
X191641498Y-66244735D01*
X191641503Y-66244737D01*
X191761646Y-66268635D01*
X191796153Y-66275499D01*
X191796156Y-66275500D01*
X191796158Y-66275500D01*
X191953844Y-66275500D01*
X191953845Y-66275499D01*
X192108497Y-66244737D01*
X192254179Y-66184394D01*
X192385289Y-66096789D01*
X192496789Y-65985289D01*
X192584394Y-65854179D01*
X192644737Y-65708497D01*
X192657138Y-65646153D01*
X199074500Y-65646153D01*
X199074500Y-65803846D01*
X199105261Y-65958489D01*
X199105264Y-65958501D01*
X199165602Y-66104172D01*
X199165609Y-66104185D01*
X199253210Y-66235288D01*
X199253213Y-66235292D01*
X199364707Y-66346786D01*
X199364711Y-66346789D01*
X199495814Y-66434390D01*
X199495827Y-66434397D01*
X199641498Y-66494735D01*
X199641503Y-66494737D01*
X199796153Y-66525499D01*
X199796156Y-66525500D01*
X199796158Y-66525500D01*
X199953844Y-66525500D01*
X199953845Y-66525499D01*
X200108497Y-66494737D01*
X200254179Y-66434394D01*
X200385289Y-66346789D01*
X200496789Y-66235289D01*
X200584394Y-66104179D01*
X200644737Y-65958497D01*
X200675500Y-65803842D01*
X200675500Y-65646158D01*
X200675500Y-65646155D01*
X200675499Y-65646153D01*
X200657137Y-65553842D01*
X200644737Y-65491503D01*
X200637701Y-65474517D01*
X200584397Y-65345827D01*
X200584390Y-65345814D01*
X200496789Y-65214711D01*
X200496786Y-65214707D01*
X200385292Y-65103213D01*
X200385288Y-65103210D01*
X200254185Y-65015609D01*
X200254172Y-65015602D01*
X200108501Y-64955264D01*
X200108489Y-64955261D01*
X199953845Y-64924500D01*
X199953842Y-64924500D01*
X199796158Y-64924500D01*
X199796155Y-64924500D01*
X199641510Y-64955261D01*
X199641498Y-64955264D01*
X199495827Y-65015602D01*
X199495814Y-65015609D01*
X199364711Y-65103210D01*
X199364707Y-65103213D01*
X199253213Y-65214707D01*
X199253210Y-65214711D01*
X199165609Y-65345814D01*
X199165602Y-65345827D01*
X199105264Y-65491498D01*
X199105261Y-65491510D01*
X199074500Y-65646153D01*
X192657138Y-65646153D01*
X192665578Y-65603721D01*
X192675500Y-65553844D01*
X192675500Y-65396155D01*
X192675499Y-65396153D01*
X192666936Y-65353106D01*
X192644737Y-65241503D01*
X192644735Y-65241498D01*
X192584397Y-65095827D01*
X192584390Y-65095814D01*
X192496789Y-64964711D01*
X192496786Y-64964707D01*
X192385292Y-64853213D01*
X192385288Y-64853210D01*
X192254185Y-64765609D01*
X192254172Y-64765602D01*
X192108501Y-64705264D01*
X192108491Y-64705261D01*
X192015092Y-64686683D01*
X192015091Y-64686682D01*
X191953845Y-64674500D01*
X191953842Y-64674500D01*
X191796158Y-64674500D01*
X191796155Y-64674500D01*
X191641510Y-64705261D01*
X191641498Y-64705264D01*
X191495827Y-64765602D01*
X191495814Y-64765609D01*
X191364711Y-64853210D01*
X191364707Y-64853213D01*
X191253213Y-64964707D01*
X191253210Y-64964711D01*
X191165609Y-65095814D01*
X191165602Y-65095827D01*
X191105264Y-65241498D01*
X191105261Y-65241510D01*
X191074500Y-65396153D01*
X186556104Y-65396153D01*
X186491685Y-65353109D01*
X186491672Y-65353102D01*
X186346001Y-65292764D01*
X186345989Y-65292761D01*
X186191345Y-65262000D01*
X186191342Y-65262000D01*
X186033658Y-65262000D01*
X186033655Y-65262000D01*
X185879010Y-65292761D01*
X185878998Y-65292764D01*
X185733327Y-65353102D01*
X185733314Y-65353109D01*
X185602211Y-65440710D01*
X185602207Y-65440713D01*
X185490713Y-65552207D01*
X185490710Y-65552211D01*
X185403109Y-65683314D01*
X185403102Y-65683327D01*
X185342764Y-65828998D01*
X185342761Y-65829010D01*
X185312000Y-65983653D01*
X185312000Y-66141346D01*
X185342761Y-66295989D01*
X185342764Y-66296001D01*
X185403102Y-66441672D01*
X185403109Y-66441685D01*
X185490710Y-66572788D01*
X185490713Y-66572792D01*
X185602208Y-66684287D01*
X185602211Y-66684289D01*
X185626729Y-66700671D01*
X185671534Y-66754283D01*
X185680243Y-66823608D01*
X185650088Y-66886636D01*
X185590646Y-66923355D01*
X185582032Y-66925391D01*
X185507270Y-66940262D01*
X185507261Y-66940265D01*
X185361590Y-67000603D01*
X185361577Y-67000610D01*
X185230474Y-67088211D01*
X185230470Y-67088214D01*
X185118976Y-67199708D01*
X185118973Y-67199712D01*
X185031372Y-67330815D01*
X185031365Y-67330828D01*
X184971027Y-67476499D01*
X184971024Y-67476511D01*
X184940263Y-67631154D01*
X183565413Y-67631154D01*
X183545485Y-67603725D01*
X183416276Y-67474516D01*
X183396733Y-67460317D01*
X183354068Y-67404989D01*
X183348089Y-67335375D01*
X183380694Y-67273580D01*
X183396730Y-67259685D01*
X183416276Y-67245485D01*
X183545485Y-67116276D01*
X183652891Y-66968444D01*
X183735848Y-66805631D01*
X183792315Y-66631845D01*
X183809158Y-66525500D01*
X183820900Y-66451370D01*
X183820900Y-66268629D01*
X183794853Y-66104179D01*
X183792315Y-66088155D01*
X183735848Y-65914369D01*
X183652891Y-65751556D01*
X183545485Y-65603724D01*
X183416276Y-65474515D01*
X183396734Y-65460317D01*
X183354069Y-65404989D01*
X183348089Y-65335376D01*
X183380695Y-65273581D01*
X183396734Y-65259683D01*
X183416276Y-65245485D01*
X183545485Y-65116276D01*
X183652891Y-64968444D01*
X183735848Y-64805631D01*
X183792315Y-64631845D01*
X183801927Y-64571153D01*
X193674500Y-64571153D01*
X193674500Y-64728846D01*
X193705261Y-64883489D01*
X193705264Y-64883501D01*
X193765602Y-65029172D01*
X193765609Y-65029185D01*
X193853210Y-65160288D01*
X193853213Y-65160292D01*
X193964707Y-65271786D01*
X193964711Y-65271789D01*
X194095814Y-65359390D01*
X194095827Y-65359397D01*
X194241498Y-65419735D01*
X194241503Y-65419737D01*
X194346941Y-65440710D01*
X194396153Y-65450499D01*
X194396156Y-65450500D01*
X194396158Y-65450500D01*
X194553844Y-65450500D01*
X194553845Y-65450499D01*
X194708497Y-65419737D01*
X194854179Y-65359394D01*
X194985289Y-65271789D01*
X195096789Y-65160289D01*
X195184394Y-65029179D01*
X195244737Y-64883497D01*
X195275500Y-64728842D01*
X195275500Y-64571158D01*
X195275500Y-64571155D01*
X195275499Y-64571153D01*
X197449500Y-64571153D01*
X197449500Y-64728846D01*
X197480261Y-64883489D01*
X197480264Y-64883501D01*
X197540602Y-65029172D01*
X197540609Y-65029185D01*
X197628210Y-65160288D01*
X197628213Y-65160292D01*
X197739707Y-65271786D01*
X197739711Y-65271789D01*
X197870814Y-65359390D01*
X197870827Y-65359397D01*
X198016498Y-65419735D01*
X198016503Y-65419737D01*
X198121941Y-65440710D01*
X198171153Y-65450499D01*
X198171156Y-65450500D01*
X198171158Y-65450500D01*
X198328844Y-65450500D01*
X198328845Y-65450499D01*
X198483497Y-65419737D01*
X198629179Y-65359394D01*
X198760289Y-65271789D01*
X198871789Y-65160289D01*
X198959394Y-65029179D01*
X199019737Y-64883497D01*
X199050500Y-64728842D01*
X199050500Y-64571158D01*
X199050500Y-64571155D01*
X199050499Y-64571153D01*
X199019737Y-64416503D01*
X198962135Y-64277438D01*
X198959397Y-64270827D01*
X198959390Y-64270814D01*
X198871789Y-64139711D01*
X198871786Y-64139707D01*
X198760292Y-64028213D01*
X198760288Y-64028210D01*
X198629185Y-63940609D01*
X198629172Y-63940602D01*
X198483501Y-63880264D01*
X198483489Y-63880261D01*
X198328845Y-63849500D01*
X198328842Y-63849500D01*
X198171158Y-63849500D01*
X198171155Y-63849500D01*
X198016510Y-63880261D01*
X198016498Y-63880264D01*
X197870827Y-63940602D01*
X197870814Y-63940609D01*
X197739711Y-64028210D01*
X197739707Y-64028213D01*
X197628213Y-64139707D01*
X197628210Y-64139711D01*
X197540609Y-64270814D01*
X197540602Y-64270827D01*
X197480264Y-64416498D01*
X197480261Y-64416510D01*
X197449500Y-64571153D01*
X195275499Y-64571153D01*
X195244737Y-64416503D01*
X195187135Y-64277438D01*
X195184397Y-64270827D01*
X195184390Y-64270814D01*
X195096789Y-64139711D01*
X195096786Y-64139707D01*
X194985292Y-64028213D01*
X194985288Y-64028210D01*
X194854185Y-63940609D01*
X194854172Y-63940602D01*
X194708501Y-63880264D01*
X194708489Y-63880261D01*
X194553845Y-63849500D01*
X194553842Y-63849500D01*
X194396158Y-63849500D01*
X194396155Y-63849500D01*
X194241510Y-63880261D01*
X194241498Y-63880264D01*
X194095827Y-63940602D01*
X194095814Y-63940609D01*
X193964711Y-64028210D01*
X193964707Y-64028213D01*
X193853213Y-64139707D01*
X193853210Y-64139711D01*
X193765609Y-64270814D01*
X193765602Y-64270827D01*
X193705264Y-64416498D01*
X193705261Y-64416510D01*
X193674500Y-64571153D01*
X183801927Y-64571153D01*
X183805019Y-64551631D01*
X183820900Y-64451370D01*
X183820900Y-64268629D01*
X183797648Y-64121826D01*
X183792315Y-64088155D01*
X183735848Y-63914369D01*
X183652891Y-63751556D01*
X183557374Y-63620088D01*
X183533895Y-63554283D01*
X183549720Y-63486229D01*
X183584806Y-63446888D01*
X183639660Y-63407035D01*
X183807034Y-63239661D01*
X183946165Y-63048164D01*
X184053626Y-62837260D01*
X184126771Y-62612142D01*
X184163800Y-62378353D01*
X184163800Y-62337311D01*
X205946900Y-62337311D01*
X205946900Y-62579888D01*
X205978561Y-62820385D01*
X206041347Y-63054704D01*
X206117960Y-63239663D01*
X206134176Y-63278812D01*
X206255464Y-63488889D01*
X206255466Y-63488892D01*
X206255467Y-63488893D01*
X206403133Y-63681336D01*
X206403139Y-63681343D01*
X206574656Y-63852860D01*
X206574662Y-63852865D01*
X206767111Y-64000536D01*
X206977188Y-64121824D01*
X207201300Y-64214654D01*
X207435611Y-64277438D01*
X207615986Y-64301184D01*
X207676111Y-64309100D01*
X207676112Y-64309100D01*
X207918689Y-64309100D01*
X207966788Y-64302767D01*
X208159189Y-64277438D01*
X208393500Y-64214654D01*
X208617612Y-64121824D01*
X208827689Y-64000536D01*
X209020138Y-63852865D01*
X209191665Y-63681338D01*
X209339336Y-63488889D01*
X209460624Y-63278812D01*
X209553454Y-63054700D01*
X209616238Y-62820389D01*
X209647900Y-62579888D01*
X209647900Y-62337312D01*
X209616238Y-62096811D01*
X209553454Y-61862500D01*
X209460624Y-61638388D01*
X209339336Y-61428311D01*
X209191665Y-61235862D01*
X209191660Y-61235856D01*
X209020143Y-61064339D01*
X209020136Y-61064333D01*
X208827693Y-60916667D01*
X208827692Y-60916666D01*
X208827689Y-60916664D01*
X208617612Y-60795376D01*
X208612431Y-60793230D01*
X208393504Y-60702547D01*
X208159185Y-60639761D01*
X207918689Y-60608100D01*
X207918688Y-60608100D01*
X207676112Y-60608100D01*
X207676111Y-60608100D01*
X207435614Y-60639761D01*
X207201295Y-60702547D01*
X206977194Y-60795373D01*
X206977185Y-60795377D01*
X206767106Y-60916667D01*
X206574663Y-61064333D01*
X206574656Y-61064339D01*
X206403139Y-61235856D01*
X206403133Y-61235863D01*
X206255467Y-61428306D01*
X206134177Y-61638385D01*
X206134173Y-61638394D01*
X206041347Y-61862495D01*
X205978561Y-62096814D01*
X205946900Y-62337311D01*
X184163800Y-62337311D01*
X184163800Y-62141649D01*
X184126771Y-61907860D01*
X184126770Y-61907856D01*
X184126770Y-61907855D01*
X184053627Y-61682744D01*
X184053626Y-61682742D01*
X183946165Y-61471838D01*
X183807034Y-61280341D01*
X183639660Y-61112967D01*
X183448163Y-60973836D01*
X183335957Y-60916664D01*
X183237256Y-60866373D01*
X183012144Y-60793230D01*
X182836799Y-60765458D01*
X182778352Y-60756201D01*
X182541648Y-60756201D01*
X182463718Y-60768544D01*
X182307857Y-60793230D01*
X182307854Y-60793230D01*
X182082743Y-60866373D01*
X181871836Y-60973836D01*
X181762580Y-61053215D01*
X181680340Y-61112967D01*
X181680338Y-61112969D01*
X181680337Y-61112969D01*
X181512967Y-61280339D01*
X181404818Y-61429193D01*
X181349487Y-61471858D01*
X181279874Y-61477837D01*
X181218079Y-61445231D01*
X181183722Y-61384392D01*
X181180500Y-61356307D01*
X181180500Y-60271153D01*
X193424500Y-60271153D01*
X193424500Y-60428846D01*
X193455261Y-60583489D01*
X193455264Y-60583501D01*
X193515602Y-60729172D01*
X193515609Y-60729185D01*
X193603210Y-60860288D01*
X193603213Y-60860292D01*
X193714707Y-60971786D01*
X193714711Y-60971789D01*
X193845814Y-61059390D01*
X193845827Y-61059397D01*
X193975163Y-61112969D01*
X193991503Y-61119737D01*
X194146153Y-61150499D01*
X194146156Y-61150500D01*
X194146158Y-61150500D01*
X194303844Y-61150500D01*
X194303845Y-61150499D01*
X194458497Y-61119737D01*
X194604179Y-61059394D01*
X194735289Y-60971789D01*
X194846789Y-60860289D01*
X194934394Y-60729179D01*
X194994737Y-60583497D01*
X195025500Y-60428842D01*
X195025500Y-60271158D01*
X195025500Y-60271155D01*
X195025499Y-60271153D01*
X194994738Y-60116510D01*
X194994737Y-60116503D01*
X194994735Y-60116498D01*
X194934397Y-59970827D01*
X194934390Y-59970814D01*
X194846789Y-59839711D01*
X194846786Y-59839707D01*
X194735292Y-59728213D01*
X194735288Y-59728210D01*
X194604185Y-59640609D01*
X194604172Y-59640602D01*
X194458501Y-59580264D01*
X194458489Y-59580261D01*
X194303845Y-59549500D01*
X194303842Y-59549500D01*
X194146158Y-59549500D01*
X194146155Y-59549500D01*
X193991510Y-59580261D01*
X193991498Y-59580264D01*
X193845827Y-59640602D01*
X193845814Y-59640609D01*
X193714711Y-59728210D01*
X193714707Y-59728213D01*
X193603213Y-59839707D01*
X193603210Y-59839711D01*
X193515609Y-59970814D01*
X193515602Y-59970827D01*
X193455264Y-60116498D01*
X193455261Y-60116510D01*
X193424500Y-60271153D01*
X181180500Y-60271153D01*
X181180500Y-58054539D01*
X181200185Y-57987500D01*
X181252989Y-57941745D01*
X181322147Y-57931801D01*
X181385703Y-57960826D01*
X181422431Y-58016221D01*
X181460767Y-58134210D01*
X181560811Y-58330556D01*
X181607132Y-58394313D01*
X182193587Y-57807858D01*
X182199089Y-57828391D01*
X182278081Y-57965208D01*
X182389792Y-58076919D01*
X182526609Y-58155911D01*
X182547139Y-58161412D01*
X181960685Y-58747865D01*
X181960685Y-58747866D01*
X182024443Y-58794188D01*
X182220789Y-58894232D01*
X182430364Y-58962326D01*
X182648019Y-58996800D01*
X182868381Y-58996800D01*
X183086035Y-58962326D01*
X183295610Y-58894232D01*
X183491960Y-58794186D01*
X183555713Y-58747866D01*
X183555714Y-58747866D01*
X182969259Y-58161412D01*
X182989791Y-58155911D01*
X183126608Y-58076919D01*
X183238319Y-57965208D01*
X183317311Y-57828391D01*
X183322812Y-57807859D01*
X183909266Y-58394314D01*
X183909266Y-58394313D01*
X183955586Y-58330560D01*
X184055632Y-58134210D01*
X184123726Y-57924635D01*
X184158200Y-57706981D01*
X184158200Y-57486618D01*
X184123726Y-57268964D01*
X184055632Y-57059389D01*
X183955588Y-56863043D01*
X183909266Y-56799285D01*
X183909265Y-56799285D01*
X183322812Y-57385739D01*
X183317311Y-57365209D01*
X183238319Y-57228392D01*
X183126608Y-57116681D01*
X182989791Y-57037689D01*
X182969258Y-57032187D01*
X183352511Y-56648935D01*
X184857700Y-56648935D01*
X184857700Y-58544670D01*
X184857701Y-58544676D01*
X184864108Y-58604283D01*
X184914402Y-58739128D01*
X184914406Y-58739135D01*
X185000652Y-58854344D01*
X185000655Y-58854347D01*
X185115864Y-58940593D01*
X185115871Y-58940597D01*
X185250717Y-58990891D01*
X185250716Y-58990891D01*
X185257644Y-58991635D01*
X185310327Y-58997300D01*
X187206072Y-58997299D01*
X187265683Y-58990891D01*
X187400531Y-58940596D01*
X187515746Y-58854346D01*
X187601996Y-58739131D01*
X187652291Y-58604283D01*
X187658700Y-58544673D01*
X187658699Y-56648928D01*
X187652291Y-56589317D01*
X187648024Y-56577877D01*
X187601997Y-56454471D01*
X187601993Y-56454464D01*
X187515747Y-56339255D01*
X187515744Y-56339252D01*
X187400535Y-56253006D01*
X187400528Y-56253002D01*
X187265682Y-56202708D01*
X187265683Y-56202708D01*
X187206083Y-56196301D01*
X187206081Y-56196300D01*
X187206073Y-56196300D01*
X187206064Y-56196300D01*
X185310329Y-56196300D01*
X185310323Y-56196301D01*
X185250716Y-56202708D01*
X185115871Y-56253002D01*
X185115864Y-56253006D01*
X185000655Y-56339252D01*
X185000652Y-56339255D01*
X184914406Y-56454464D01*
X184914402Y-56454471D01*
X184864108Y-56589317D01*
X184858131Y-56644917D01*
X184857701Y-56648923D01*
X184857700Y-56648935D01*
X183352511Y-56648935D01*
X183443521Y-56557925D01*
X183555713Y-56445732D01*
X183491956Y-56399411D01*
X183295610Y-56299367D01*
X183086035Y-56231273D01*
X182868381Y-56196800D01*
X182648019Y-56196800D01*
X182430364Y-56231273D01*
X182220789Y-56299367D01*
X182024433Y-56399416D01*
X181960685Y-56445731D01*
X181960685Y-56445732D01*
X182547140Y-57032187D01*
X182526609Y-57037689D01*
X182389792Y-57116681D01*
X182278081Y-57228392D01*
X182199089Y-57365209D01*
X182193587Y-57385740D01*
X181607132Y-56799285D01*
X181607131Y-56799285D01*
X181560816Y-56863033D01*
X181460767Y-57059389D01*
X181422431Y-57177378D01*
X181382994Y-57235053D01*
X181318635Y-57262252D01*
X181249789Y-57250338D01*
X181198313Y-57203094D01*
X181180500Y-57139060D01*
X181180500Y-55113635D01*
X192729500Y-55113635D01*
X192729500Y-56709370D01*
X192729501Y-56709376D01*
X192735908Y-56768983D01*
X192786202Y-56903828D01*
X192786206Y-56903835D01*
X192872452Y-57019044D01*
X192872455Y-57019047D01*
X192987664Y-57105293D01*
X192987671Y-57105297D01*
X193122517Y-57155591D01*
X193122516Y-57155591D01*
X193129444Y-57156335D01*
X193182127Y-57162000D01*
X194777872Y-57161999D01*
X194837483Y-57155591D01*
X194972331Y-57105296D01*
X195087546Y-57019046D01*
X195173796Y-56903831D01*
X195188158Y-56865325D01*
X195188434Y-56864586D01*
X195224091Y-56768982D01*
X195228696Y-56726148D01*
X195230500Y-56709373D01*
X195230499Y-56644913D01*
X195250183Y-56577877D01*
X195302986Y-56532121D01*
X195372144Y-56522177D01*
X195435700Y-56551201D01*
X195454818Y-56572031D01*
X195476319Y-56601625D01*
X195476320Y-56601625D01*
X196037037Y-56040908D01*
X196054075Y-56104493D01*
X196119901Y-56218507D01*
X196212993Y-56311599D01*
X196327007Y-56377425D01*
X196390590Y-56394462D01*
X195829873Y-56955177D01*
X195829873Y-56955178D01*
X195864858Y-56980596D01*
X196040164Y-57069918D01*
X196227294Y-57130721D01*
X196421618Y-57161500D01*
X196618382Y-57161500D01*
X196812705Y-57130721D01*
X196999835Y-57069918D01*
X197175143Y-56980595D01*
X197210125Y-56955178D01*
X197210126Y-56955178D01*
X196649410Y-56394462D01*
X196712993Y-56377425D01*
X196827007Y-56311599D01*
X196920099Y-56218507D01*
X196985925Y-56104493D01*
X197002962Y-56040909D01*
X197563678Y-56601626D01*
X197563678Y-56601625D01*
X197589097Y-56566641D01*
X197679234Y-56389736D01*
X197727208Y-56338939D01*
X197795029Y-56322144D01*
X197861164Y-56344681D01*
X197900204Y-56389735D01*
X197901115Y-56391524D01*
X197901116Y-56391525D01*
X197990476Y-56566905D01*
X198106172Y-56726146D01*
X198245354Y-56865328D01*
X198404595Y-56981024D01*
X198479214Y-57019044D01*
X198579970Y-57070382D01*
X198579972Y-57070382D01*
X198579975Y-57070384D01*
X198680317Y-57102987D01*
X198767173Y-57131209D01*
X198961578Y-57162000D01*
X198961583Y-57162000D01*
X199158422Y-57162000D01*
X199352826Y-57131209D01*
X199432574Y-57105297D01*
X199540025Y-57070384D01*
X199715405Y-56981024D01*
X199874646Y-56865328D01*
X200013828Y-56726146D01*
X200129524Y-56566905D01*
X200208706Y-56411500D01*
X200219515Y-56390287D01*
X200267489Y-56339490D01*
X200335310Y-56322695D01*
X200401445Y-56345232D01*
X200440485Y-56390287D01*
X200530474Y-56566903D01*
X200546759Y-56589317D01*
X200646172Y-56726146D01*
X200785354Y-56865328D01*
X200944595Y-56981024D01*
X201019214Y-57019044D01*
X201119970Y-57070382D01*
X201119972Y-57070382D01*
X201119975Y-57070384D01*
X201220317Y-57102987D01*
X201307173Y-57131209D01*
X201501578Y-57162000D01*
X201501583Y-57162000D01*
X201698422Y-57162000D01*
X201892826Y-57131209D01*
X201972574Y-57105297D01*
X202080025Y-57070384D01*
X202255405Y-56981024D01*
X202414646Y-56865328D01*
X202476672Y-56803302D01*
X206373100Y-56803302D01*
X206373100Y-57039497D01*
X206410046Y-57272768D01*
X206483033Y-57497396D01*
X206573931Y-57675791D01*
X206590257Y-57707833D01*
X206729083Y-57898910D01*
X206896090Y-58065917D01*
X207087167Y-58204743D01*
X207186591Y-58255402D01*
X207297603Y-58311966D01*
X207297605Y-58311966D01*
X207297608Y-58311968D01*
X207418012Y-58351089D01*
X207522231Y-58384953D01*
X207755503Y-58421900D01*
X207755508Y-58421900D01*
X207991697Y-58421900D01*
X208224968Y-58384953D01*
X208449592Y-58311968D01*
X208660033Y-58204743D01*
X208851110Y-58065917D01*
X209018117Y-57898910D01*
X209156943Y-57707833D01*
X209264168Y-57497392D01*
X209337153Y-57272768D01*
X209374100Y-57039497D01*
X209374100Y-56803302D01*
X209337153Y-56570031D01*
X209296765Y-56445731D01*
X209264168Y-56345408D01*
X209264166Y-56345405D01*
X209264166Y-56345403D01*
X209156942Y-56134966D01*
X209134802Y-56104493D01*
X209018117Y-55943890D01*
X208851110Y-55776883D01*
X208660033Y-55638057D01*
X208621990Y-55618673D01*
X208449596Y-55530833D01*
X208224968Y-55457846D01*
X207991697Y-55420900D01*
X207991692Y-55420900D01*
X207755508Y-55420900D01*
X207755503Y-55420900D01*
X207522231Y-55457846D01*
X207297603Y-55530833D01*
X207087166Y-55638057D01*
X206978150Y-55717262D01*
X206896090Y-55776883D01*
X206896088Y-55776885D01*
X206896087Y-55776885D01*
X206729085Y-55943887D01*
X206729085Y-55943888D01*
X206729083Y-55943890D01*
X206681108Y-56009922D01*
X206590257Y-56134966D01*
X206483033Y-56345403D01*
X206410046Y-56570031D01*
X206373100Y-56803302D01*
X202476672Y-56803302D01*
X202553828Y-56726146D01*
X202669524Y-56566905D01*
X202758884Y-56391525D01*
X202819709Y-56204326D01*
X202820980Y-56196300D01*
X202850500Y-56009922D01*
X202850500Y-55813077D01*
X202819709Y-55618673D01*
X202767453Y-55457847D01*
X202758884Y-55431475D01*
X202758882Y-55431472D01*
X202758882Y-55431470D01*
X202669523Y-55256094D01*
X202665799Y-55250968D01*
X202553828Y-55096854D01*
X202414646Y-54957672D01*
X202255405Y-54841976D01*
X202080029Y-54752617D01*
X201892826Y-54691790D01*
X201698422Y-54661000D01*
X201698417Y-54661000D01*
X201501583Y-54661000D01*
X201501578Y-54661000D01*
X201307173Y-54691790D01*
X201119970Y-54752617D01*
X200944594Y-54841976D01*
X200853741Y-54907985D01*
X200785354Y-54957672D01*
X200785352Y-54957674D01*
X200785351Y-54957674D01*
X200646174Y-55096851D01*
X200646174Y-55096852D01*
X200646172Y-55096854D01*
X200633980Y-55113635D01*
X200530476Y-55256094D01*
X200440485Y-55432713D01*
X200392511Y-55483509D01*
X200324690Y-55500304D01*
X200258555Y-55477767D01*
X200219515Y-55432713D01*
X200129523Y-55256094D01*
X200125799Y-55250968D01*
X200013828Y-55096854D01*
X199874646Y-54957672D01*
X199715405Y-54841976D01*
X199540029Y-54752617D01*
X199352826Y-54691790D01*
X199158422Y-54661000D01*
X199158417Y-54661000D01*
X198961583Y-54661000D01*
X198961578Y-54661000D01*
X198767173Y-54691790D01*
X198579970Y-54752617D01*
X198404594Y-54841976D01*
X198313741Y-54907985D01*
X198245354Y-54957672D01*
X198245352Y-54957674D01*
X198245351Y-54957674D01*
X198106174Y-55096851D01*
X198106174Y-55096852D01*
X198106172Y-55096854D01*
X198093980Y-55113635D01*
X197990476Y-55256094D01*
X197900204Y-55433264D01*
X197852229Y-55484060D01*
X197784408Y-55500855D01*
X197718274Y-55478318D01*
X197679234Y-55433264D01*
X197589096Y-55256358D01*
X197563678Y-55221373D01*
X197563677Y-55221373D01*
X197002962Y-55782089D01*
X196985925Y-55718507D01*
X196920099Y-55604493D01*
X196827007Y-55511401D01*
X196712993Y-55445575D01*
X196649409Y-55428537D01*
X197210125Y-54867820D01*
X197210125Y-54867819D01*
X197175145Y-54842405D01*
X196999835Y-54753081D01*
X196812705Y-54692278D01*
X196618382Y-54661500D01*
X196421618Y-54661500D01*
X196227294Y-54692278D01*
X196040161Y-54753082D01*
X195864863Y-54842399D01*
X195864859Y-54842402D01*
X195829873Y-54867820D01*
X195829872Y-54867820D01*
X196390590Y-55428537D01*
X196327007Y-55445575D01*
X196212993Y-55511401D01*
X196119901Y-55604493D01*
X196054075Y-55718507D01*
X196037037Y-55782090D01*
X195476320Y-55221372D01*
X195476319Y-55221373D01*
X195454819Y-55250968D01*
X195399490Y-55293635D01*
X195329877Y-55299616D01*
X195268081Y-55267012D01*
X195233722Y-55206174D01*
X195230499Y-55178085D01*
X195230499Y-55113629D01*
X195230498Y-55113623D01*
X195230497Y-55113616D01*
X195224091Y-55054017D01*
X195188157Y-54957674D01*
X195173797Y-54919171D01*
X195173793Y-54919164D01*
X195087547Y-54803955D01*
X195087544Y-54803952D01*
X194972335Y-54717706D01*
X194972328Y-54717702D01*
X194837482Y-54667408D01*
X194837483Y-54667408D01*
X194777883Y-54661001D01*
X194777881Y-54661000D01*
X194777873Y-54661000D01*
X194777864Y-54661000D01*
X193182129Y-54661000D01*
X193182123Y-54661001D01*
X193122516Y-54667408D01*
X192987671Y-54717702D01*
X192987664Y-54717706D01*
X192872455Y-54803952D01*
X192872452Y-54803955D01*
X192786206Y-54919164D01*
X192786202Y-54919171D01*
X192735908Y-55054017D01*
X192731303Y-55096854D01*
X192729501Y-55113623D01*
X192729500Y-55113635D01*
X181180500Y-55113635D01*
X181180500Y-51056159D01*
X181200185Y-50989120D01*
X181252989Y-50943365D01*
X181322147Y-50933421D01*
X181385703Y-50962446D01*
X181422431Y-51017841D01*
X181460303Y-51134403D01*
X181460304Y-51134406D01*
X181560387Y-51330825D01*
X181689952Y-51509158D01*
X181689956Y-51509163D01*
X181845836Y-51665043D01*
X181845841Y-51665047D01*
X181947806Y-51739128D01*
X182024178Y-51794615D01*
X182152575Y-51860037D01*
X182220593Y-51894695D01*
X182220596Y-51894696D01*
X182325421Y-51928755D01*
X182430249Y-51962815D01*
X182647978Y-51997300D01*
X182647979Y-51997300D01*
X182868421Y-51997300D01*
X182868422Y-51997300D01*
X183086151Y-51962815D01*
X183295806Y-51894695D01*
X183492222Y-51794615D01*
X183670565Y-51665042D01*
X183826442Y-51509165D01*
X183956015Y-51330822D01*
X184056095Y-51134406D01*
X184124215Y-50924751D01*
X184158700Y-50707022D01*
X184158700Y-50486578D01*
X184124215Y-50268849D01*
X184056095Y-50059194D01*
X184056095Y-50059193D01*
X184021437Y-49991175D01*
X183956015Y-49862778D01*
X183876176Y-49752888D01*
X183851186Y-49718491D01*
X183826447Y-49684441D01*
X183826443Y-49684436D01*
X183790942Y-49648935D01*
X184857700Y-49648935D01*
X184857700Y-51544670D01*
X184857701Y-51544676D01*
X184864108Y-51604283D01*
X184914402Y-51739128D01*
X184914406Y-51739135D01*
X185000652Y-51854344D01*
X185000655Y-51854347D01*
X185115864Y-51940593D01*
X185115871Y-51940597D01*
X185250717Y-51990891D01*
X185250716Y-51990891D01*
X185257644Y-51991635D01*
X185310327Y-51997300D01*
X187206072Y-51997299D01*
X187265683Y-51990891D01*
X187400531Y-51940596D01*
X187515746Y-51854346D01*
X187601996Y-51739131D01*
X187652291Y-51604283D01*
X187658700Y-51544673D01*
X187658699Y-49648928D01*
X187652291Y-49589317D01*
X187629629Y-49528558D01*
X187622823Y-49510311D01*
X205946900Y-49510311D01*
X205946900Y-49752888D01*
X205978561Y-49993385D01*
X206041347Y-50227704D01*
X206058390Y-50268849D01*
X206134176Y-50451812D01*
X206255464Y-50661889D01*
X206255466Y-50661892D01*
X206255467Y-50661893D01*
X206403133Y-50854336D01*
X206403139Y-50854343D01*
X206574656Y-51025860D01*
X206574662Y-51025865D01*
X206767111Y-51173536D01*
X206977188Y-51294824D01*
X207201300Y-51387654D01*
X207435611Y-51450438D01*
X207615986Y-51474184D01*
X207676111Y-51482100D01*
X207676112Y-51482100D01*
X207918689Y-51482100D01*
X207966788Y-51475767D01*
X208159189Y-51450438D01*
X208393500Y-51387654D01*
X208617612Y-51294824D01*
X208827689Y-51173536D01*
X209020138Y-51025865D01*
X209191665Y-50854338D01*
X209339336Y-50661889D01*
X209460624Y-50451812D01*
X209553454Y-50227700D01*
X209616238Y-49993389D01*
X209647900Y-49752888D01*
X209647900Y-49510312D01*
X209616238Y-49269811D01*
X209553454Y-49035500D01*
X209549579Y-49026146D01*
X209541595Y-49006869D01*
X209460624Y-48811388D01*
X209339336Y-48601311D01*
X209191665Y-48408862D01*
X209191660Y-48408856D01*
X209020143Y-48237339D01*
X209020136Y-48237333D01*
X208827693Y-48089667D01*
X208827692Y-48089666D01*
X208827689Y-48089664D01*
X208617612Y-47968376D01*
X208617605Y-47968373D01*
X208393504Y-47875547D01*
X208159185Y-47812761D01*
X207918689Y-47781100D01*
X207918688Y-47781100D01*
X207676112Y-47781100D01*
X207676111Y-47781100D01*
X207435614Y-47812761D01*
X207201295Y-47875547D01*
X206977194Y-47968373D01*
X206977185Y-47968377D01*
X206767106Y-48089667D01*
X206574663Y-48237333D01*
X206574656Y-48237339D01*
X206403139Y-48408856D01*
X206403133Y-48408863D01*
X206255467Y-48601306D01*
X206134177Y-48811385D01*
X206134173Y-48811394D01*
X206041347Y-49035495D01*
X205978561Y-49269814D01*
X205946900Y-49510311D01*
X187622823Y-49510311D01*
X187601997Y-49454471D01*
X187601993Y-49454464D01*
X187515747Y-49339255D01*
X187515744Y-49339252D01*
X187400535Y-49253006D01*
X187400528Y-49253002D01*
X187265682Y-49202708D01*
X187265683Y-49202708D01*
X187206083Y-49196301D01*
X187206081Y-49196300D01*
X187206073Y-49196300D01*
X187206064Y-49196300D01*
X185310329Y-49196300D01*
X185310323Y-49196301D01*
X185250716Y-49202708D01*
X185115871Y-49253002D01*
X185115864Y-49253006D01*
X185000655Y-49339252D01*
X185000652Y-49339255D01*
X184914406Y-49454464D01*
X184914402Y-49454471D01*
X184864108Y-49589317D01*
X184857701Y-49648916D01*
X184857701Y-49648923D01*
X184857700Y-49648935D01*
X183790942Y-49648935D01*
X183670563Y-49528556D01*
X183670558Y-49528552D01*
X183492225Y-49398987D01*
X183492224Y-49398986D01*
X183492222Y-49398985D01*
X183374991Y-49339252D01*
X183295806Y-49298904D01*
X183295803Y-49298903D01*
X183086152Y-49230785D01*
X182977286Y-49213542D01*
X182868422Y-49196300D01*
X182647978Y-49196300D01*
X182575401Y-49207795D01*
X182430247Y-49230785D01*
X182220596Y-49298903D01*
X182220593Y-49298904D01*
X182024174Y-49398987D01*
X181845841Y-49528552D01*
X181845836Y-49528556D01*
X181689956Y-49684436D01*
X181689952Y-49684441D01*
X181560387Y-49862774D01*
X181460304Y-50059193D01*
X181460303Y-50059196D01*
X181422431Y-50175758D01*
X181382994Y-50233433D01*
X181318635Y-50260632D01*
X181249789Y-50248718D01*
X181198313Y-50201474D01*
X181180500Y-50137440D01*
X181180500Y-48113077D01*
X192729500Y-48113077D01*
X192729500Y-48309922D01*
X192760290Y-48504326D01*
X192821117Y-48691529D01*
X192882187Y-48811385D01*
X192910476Y-48866905D01*
X193026172Y-49026146D01*
X193165354Y-49165328D01*
X193324595Y-49281024D01*
X193359685Y-49298903D01*
X193499970Y-49370382D01*
X193499972Y-49370382D01*
X193499975Y-49370384D01*
X193600317Y-49402987D01*
X193687173Y-49431209D01*
X193881578Y-49462000D01*
X193881583Y-49462000D01*
X194078422Y-49462000D01*
X194272826Y-49431209D01*
X194460025Y-49370384D01*
X194635405Y-49281024D01*
X194794646Y-49165328D01*
X194933828Y-49026146D01*
X195049524Y-48866905D01*
X195138884Y-48691525D01*
X195199709Y-48504326D01*
X195214830Y-48408856D01*
X195230500Y-48309922D01*
X195230500Y-48113077D01*
X200349500Y-48113077D01*
X200349500Y-48309922D01*
X200380290Y-48504326D01*
X200441117Y-48691529D01*
X200502187Y-48811385D01*
X200530476Y-48866905D01*
X200646172Y-49026146D01*
X200785354Y-49165328D01*
X200944595Y-49281024D01*
X200979685Y-49298903D01*
X201119970Y-49370382D01*
X201119972Y-49370382D01*
X201119975Y-49370384D01*
X201220317Y-49402987D01*
X201307173Y-49431209D01*
X201501578Y-49462000D01*
X201501583Y-49462000D01*
X201698422Y-49462000D01*
X201892826Y-49431209D01*
X202080025Y-49370384D01*
X202255405Y-49281024D01*
X202414646Y-49165328D01*
X202553828Y-49026146D01*
X202669524Y-48866905D01*
X202758884Y-48691525D01*
X202819709Y-48504326D01*
X202834830Y-48408856D01*
X202850500Y-48309922D01*
X202850500Y-48113077D01*
X202819709Y-47918673D01*
X202758882Y-47731470D01*
X202669523Y-47556094D01*
X202553828Y-47396854D01*
X202414646Y-47257672D01*
X202255405Y-47141976D01*
X202080029Y-47052617D01*
X201892826Y-46991790D01*
X201698422Y-46961000D01*
X201698417Y-46961000D01*
X201501583Y-46961000D01*
X201501578Y-46961000D01*
X201307173Y-46991790D01*
X201119970Y-47052617D01*
X200944594Y-47141976D01*
X200853741Y-47207985D01*
X200785354Y-47257672D01*
X200785352Y-47257674D01*
X200785351Y-47257674D01*
X200646174Y-47396851D01*
X200646174Y-47396852D01*
X200646172Y-47396854D01*
X200596485Y-47465241D01*
X200530476Y-47556094D01*
X200441117Y-47731470D01*
X200380290Y-47918673D01*
X200349500Y-48113077D01*
X195230500Y-48113077D01*
X195199709Y-47918673D01*
X195138882Y-47731470D01*
X195049523Y-47556094D01*
X194933828Y-47396854D01*
X194794646Y-47257672D01*
X194635405Y-47141976D01*
X194460029Y-47052617D01*
X194272826Y-46991790D01*
X194078422Y-46961000D01*
X194078417Y-46961000D01*
X193881583Y-46961000D01*
X193881578Y-46961000D01*
X193687173Y-46991790D01*
X193499970Y-47052617D01*
X193324594Y-47141976D01*
X193233741Y-47207985D01*
X193165354Y-47257672D01*
X193165352Y-47257674D01*
X193165351Y-47257674D01*
X193026174Y-47396851D01*
X193026174Y-47396852D01*
X193026172Y-47396854D01*
X192976485Y-47465241D01*
X192910476Y-47556094D01*
X192821117Y-47731470D01*
X192760290Y-47918673D01*
X192729500Y-48113077D01*
X181180500Y-48113077D01*
X181180500Y-46449500D01*
X181200185Y-46382461D01*
X181252989Y-46336706D01*
X181304500Y-46325500D01*
X210825500Y-46325500D01*
X210892539Y-46345185D01*
G37*
%TD.AperFunction*%
%TD*%
M02*
