%TF.GenerationSoftware,KiCad,Pcbnew,9.0.2*%
%TF.CreationDate,2026-05-30T15:19:48-06:00*%
%TF.ProjectId,DaFO,4461464f-2e6b-4696-9361-645f70636258,v.1*%
%TF.SameCoordinates,Original*%
%TF.FileFunction,Copper,L4,Bot*%
%TF.FilePolarity,Positive*%
%FSLAX46Y46*%
G04 Gerber Fmt 4.6, Leading zero omitted, Abs format (unit mm)*
G04 Created by KiCad (PCBNEW 9.0.2) date 2026-05-30 15:19:48*
%MOMM*%
%LPD*%
G01*
G04 APERTURE LIST*
%TA.AperFunction,ComponentPad*%
%ADD10R,1.800000X1.800000*%
%TD*%
%TA.AperFunction,ComponentPad*%
%ADD11C,1.800000*%
%TD*%
%TA.AperFunction,ComponentPad*%
%ADD12C,1.320800*%
%TD*%
%TA.AperFunction,ComponentPad*%
%ADD13C,2.006600*%
%TD*%
%TA.AperFunction,ComponentPad*%
%ADD14C,2.000000*%
%TD*%
%TA.AperFunction,ComponentPad*%
%ADD15R,1.524000X1.524000*%
%TD*%
%TA.AperFunction,ComponentPad*%
%ADD16C,1.524000*%
%TD*%
%TA.AperFunction,ComponentPad*%
%ADD17R,1.500000X1.500000*%
%TD*%
%TA.AperFunction,ComponentPad*%
%ADD18C,1.500000*%
%TD*%
%TA.AperFunction,ComponentPad*%
%ADD19R,1.320800X1.320800*%
%TD*%
%TA.AperFunction,ViaPad*%
%ADD20C,0.600000*%
%TD*%
%TA.AperFunction,Conductor*%
%ADD21C,0.300000*%
%TD*%
G04 APERTURE END LIST*
D10*
%TO.P,J5,1_A,1*%
%TO.N,Net-(J5-1)*%
X186258200Y-57596800D03*
%TO.P,J5,1_B*%
%TO.N,N/C*%
X186258200Y-50596800D03*
D11*
%TO.P,J5,2_A,2*%
%TO.N,GND*%
X182758200Y-57596800D03*
%TO.P,J5,2_B*%
%TO.N,N/C*%
X182758200Y-50596800D03*
%TD*%
D12*
%TO.P,S1,1,1*%
%TO.N,Net-(BUFF1-A)*%
X182700000Y-76150000D03*
%TO.P,S1,2,2*%
%TO.N,/PWM*%
X182700000Y-78150000D03*
%TO.P,S1,3,3*%
%TO.N,Net-(INV1-Pad2)*%
X182700000Y-80150001D03*
D13*
%TO.P,S1,4*%
%TO.N,N/C*%
X182700000Y-74050001D03*
%TO.P,S1,5*%
X182700000Y-82249999D03*
%TD*%
D12*
%TO.P,S2,1,1*%
%TO.N,Net-(D1-Pad1)*%
X182660000Y-64360000D03*
%TO.P,S2,2,2*%
%TO.N,/NEG*%
X182660000Y-66360000D03*
%TO.P,S2,3,3*%
%TO.N,/TM*%
X182660000Y-68360001D03*
D13*
%TO.P,S2,4*%
%TO.N,N/C*%
X182660000Y-62260001D03*
%TO.P,S2,5*%
X182660000Y-70459999D03*
%TD*%
D14*
%TO.P,TP2,1,1*%
%TO.N,/TM*%
X207873600Y-80949800D03*
%TD*%
%TO.P,TP4,1,1*%
%TO.N,/V_INV2*%
X207873600Y-56921400D03*
%TD*%
D15*
%TO.P,J1,01,01*%
%TO.N,VCC*%
X192582800Y-84632800D03*
D16*
%TO.P,J1,02,02*%
%TO.N,/PWM*%
X192582800Y-87172800D03*
%TO.P,J1,03,03*%
%TO.N,GND*%
X192582800Y-89712800D03*
%TO.P,J1,04,04*%
%TO.N,/EN*%
X192582800Y-92252800D03*
%TD*%
D14*
%TO.P,TP1,1,1*%
%TO.N,/NEG*%
X203200000Y-91795600D03*
%TD*%
D17*
%TO.P,Tx1,1,ANODE*%
%TO.N,/V_INV2*%
X193980000Y-55911500D03*
D18*
%TO.P,Tx1,2,CATHODE*%
%TO.N,GND*%
X196520000Y-55911500D03*
%TO.P,Tx1,3,GROUND_1*%
%TO.N,unconnected-(Tx1-GROUND_1-Pad3)*%
X199060000Y-55911500D03*
%TO.P,Tx1,4,GROUND_2*%
%TO.N,unconnected-(Tx1-GROUND_2-Pad4)*%
X201600000Y-55911500D03*
%TO.P,Tx1,5,GROUND_3*%
%TO.N,unconnected-(Tx1-GROUND_3-Pad5)*%
X201600000Y-48211500D03*
%TO.P,Tx1,8,GROUND_4*%
%TO.N,unconnected-(Tx1-GROUND_4-Pad8)*%
X193980000Y-48211500D03*
%TD*%
D14*
%TO.P,TP3,1,1*%
%TO.N,/V_EN*%
X207873600Y-69799200D03*
%TD*%
D15*
%TO.P,J4,01,01*%
%TO.N,VCC*%
X207920000Y-84580000D03*
D16*
%TO.P,J4,02,02*%
%TO.N,/PWM*%
X207920000Y-87120000D03*
%TO.P,J4,03,03*%
%TO.N,GND*%
X207920000Y-89660000D03*
%TO.P,J4,04,04*%
%TO.N,/EN*%
X207920000Y-92200000D03*
%TD*%
D19*
%TO.P,J2,01,01*%
%TO.N,VCC*%
X192582800Y-71805800D03*
D12*
%TO.P,J2,02,02*%
%TO.N,/PWM*%
X192582800Y-74345800D03*
%TO.P,J2,03,03*%
%TO.N,GND*%
X192582800Y-76885800D03*
%TO.P,J2,04,04*%
%TO.N,/EN*%
X192582800Y-79425800D03*
%TD*%
D20*
%TO.N,Net-(INV1-Pad2)*%
X202279999Y-84950000D03*
%TO.N,GND*%
X187675000Y-65525000D03*
X189525000Y-69425000D03*
X200749200Y-83335100D03*
X200800000Y-74850000D03*
X195300000Y-84350000D03*
X188750000Y-60075000D03*
X199250000Y-71300000D03*
X204300000Y-81775000D03*
X189475000Y-82400000D03*
X193275000Y-62175000D03*
X196350000Y-81450000D03*
X202099200Y-89010100D03*
X203625000Y-67450000D03*
X199675000Y-78025000D03*
%TO.N,/NEG*%
X194850000Y-80175000D03*
X194850000Y-74925000D03*
%TO.N,VCC*%
X199400000Y-84400000D03*
X197025000Y-69550000D03*
X203750000Y-78075000D03*
X191875000Y-65475000D03*
X193292000Y-67533000D03*
%TO.N,Net-(BUFF1-A)*%
X190560600Y-78414400D03*
%TO.N,/TM*%
X189214999Y-68360001D03*
X194225000Y-60350000D03*
X184550000Y-77375000D03*
X184050000Y-88475000D03*
%TO.N,Net-(INV1-Pad2)*%
X195900000Y-85875000D03*
%TO.N,/V_EN*%
X198250000Y-64650000D03*
X199650000Y-73075000D03*
X194475000Y-64650000D03*
X201150000Y-71575000D03*
%TO.N,/V_INV2*%
X199875000Y-65725000D03*
%TO.N,Net-(D1-Pad1)*%
X185740763Y-67710001D03*
X185775000Y-77500000D03*
X186112500Y-66062500D03*
X185775000Y-84475000D03*
%TD*%
D21*
%TO.N,Net-(INV1-Pad2)*%
X201075000Y-84950000D02*
X200150000Y-85875000D01*
X202279999Y-84950000D02*
X201075000Y-84950000D01*
X200150000Y-85875000D02*
X195900000Y-85875000D01*
%TO.N,/NEG*%
X194850000Y-74925000D02*
X194850000Y-80175000D01*
%TO.N,Net-(BUFF1-A)*%
X190560600Y-78310600D02*
X188400000Y-76150000D01*
X188400000Y-76150000D02*
X182700000Y-76150000D01*
X190560600Y-78414400D02*
X190560600Y-78310600D01*
%TO.N,/TM*%
X189214999Y-68360001D02*
X182660000Y-68360001D01*
X190670001Y-60350000D02*
X194225000Y-60350000D01*
X184054300Y-82810969D02*
X184054300Y-81689029D01*
X184050000Y-88475000D02*
X184050000Y-82815269D01*
X182660000Y-68360001D02*
X190670001Y-60350000D01*
X184050000Y-82815269D02*
X184054300Y-82810969D01*
X184054300Y-81689029D02*
X184050000Y-81684729D01*
X184050000Y-81684729D02*
X184050000Y-77875000D01*
X184050000Y-77875000D02*
X184550000Y-77375000D01*
%TO.N,/V_EN*%
X199650000Y-73075000D02*
X200950000Y-71775000D01*
X194475000Y-64650000D02*
X198250000Y-64650000D01*
X200950000Y-71775000D02*
X201150000Y-71575000D01*
%TO.N,/V_INV2*%
X193980000Y-55911500D02*
X199875000Y-61806500D01*
X193980000Y-55911500D02*
X195191500Y-54700000D01*
X205652200Y-54700000D02*
X207873600Y-56921400D01*
X195191500Y-54700000D02*
X205652200Y-54700000D01*
X199875000Y-61806500D02*
X199875000Y-65725000D01*
%TO.N,/PWM*%
X193925000Y-85830600D02*
X192582800Y-87172800D01*
X192582800Y-74345800D02*
X193925000Y-75688000D01*
X207920000Y-87120000D02*
X192635600Y-87120000D01*
X193925000Y-75688000D02*
X193925000Y-85830600D01*
X192635600Y-87120000D02*
X192582800Y-87172800D01*
%TO.N,/EN*%
X192582800Y-92252800D02*
X194585600Y-90250000D01*
X205970000Y-90250000D02*
X207920000Y-92200000D01*
X194585600Y-90250000D02*
X205970000Y-90250000D01*
X191125000Y-90795000D02*
X192582800Y-92252800D01*
X191125000Y-80883600D02*
X191125000Y-90795000D01*
X192582800Y-79425800D02*
X191125000Y-80883600D01*
%TO.N,Net-(D1-Pad1)*%
X185775000Y-84475000D02*
X185775000Y-77500000D01*
X185850000Y-77500000D02*
X185900000Y-77450000D01*
X186112500Y-66062500D02*
X186125000Y-66050000D01*
X185740763Y-67710001D02*
X186125000Y-67325764D01*
X185775000Y-77500000D02*
X185850000Y-77500000D01*
X186125000Y-66075000D02*
X186112500Y-66062500D01*
X186125000Y-67325764D02*
X186125000Y-66075000D01*
%TD*%
M02*
