%TF.GenerationSoftware,KiCad,Pcbnew,9.0.2*%
%TF.CreationDate,2026-05-30T15:19:48-06:00*%
%TF.ProjectId,DaFO,4461464f-2e6b-4696-9361-645f70636258,v.1*%
%TF.SameCoordinates,Original*%
%TF.FileFunction,Soldermask,Top*%
%TF.FilePolarity,Negative*%
%FSLAX46Y46*%
G04 Gerber Fmt 4.6, Leading zero omitted, Abs format (unit mm)*
G04 Created by KiCad (PCBNEW 9.0.2) date 2026-05-30 15:19:48*
%MOMM*%
%LPD*%
G01*
G04 APERTURE LIST*
G04 Aperture macros list*
%AMRoundRect*
0 Rectangle with rounded corners*
0 $1 Rounding radius*
0 $2 $3 $4 $5 $6 $7 $8 $9 X,Y pos of 4 corners*
0 Add a 4 corners polygon primitive as box body*
4,1,4,$2,$3,$4,$5,$6,$7,$8,$9,$2,$3,0*
0 Add four circle primitives for the rounded corners*
1,1,$1+$1,$2,$3*
1,1,$1+$1,$4,$5*
1,1,$1+$1,$6,$7*
1,1,$1+$1,$8,$9*
0 Add four rect primitives between the rounded corners*
20,1,$1+$1,$2,$3,$4,$5,0*
20,1,$1+$1,$4,$5,$6,$7,0*
20,1,$1+$1,$6,$7,$8,$9,0*
20,1,$1+$1,$8,$9,$2,$3,0*%
G04 Aperture macros list end*
%ADD10C,3.200000*%
%ADD11RoundRect,0.198500X0.508500X0.198500X-0.508500X0.198500X-0.508500X-0.198500X0.508500X-0.198500X0*%
%ADD12RoundRect,0.102000X0.900000X0.900000X-0.900000X0.900000X-0.900000X-0.900000X0.900000X-0.900000X0*%
%ADD13C,2.004000*%
%ADD14C,1.320800*%
%ADD15C,2.006600*%
%ADD16C,2.000000*%
%ADD17RoundRect,0.102000X0.762000X-0.762000X0.762000X0.762000X-0.762000X0.762000X-0.762000X-0.762000X0*%
%ADD18C,1.728000*%
%ADD19RoundRect,0.198500X-0.198500X0.508500X-0.198500X-0.508500X0.198500X-0.508500X0.198500X0.508500X0*%
%ADD20RoundRect,0.250000X0.337500X0.475000X-0.337500X0.475000X-0.337500X-0.475000X0.337500X-0.475000X0*%
%ADD21RoundRect,0.237500X0.300000X0.237500X-0.300000X0.237500X-0.300000X-0.237500X0.300000X-0.237500X0*%
%ADD22RoundRect,0.250000X-0.350000X-0.450000X0.350000X-0.450000X0.350000X0.450000X-0.350000X0.450000X0*%
%ADD23R,0.990600X1.651000*%
%ADD24R,1.500000X1.500000*%
%ADD25C,1.500000*%
%ADD26RoundRect,0.237500X0.237500X-0.300000X0.237500X0.300000X-0.237500X0.300000X-0.237500X-0.300000X0*%
%ADD27RoundRect,0.237500X-0.237500X0.300000X-0.237500X-0.300000X0.237500X-0.300000X0.237500X0.300000X0*%
%ADD28RoundRect,0.102000X1.000000X0.650000X-1.000000X0.650000X-1.000000X-0.650000X1.000000X-0.650000X0*%
%ADD29RoundRect,0.102000X1.000000X1.000000X-1.000000X1.000000X-1.000000X-1.000000X1.000000X-1.000000X0*%
%ADD30RoundRect,0.102000X0.660400X-0.660400X0.660400X0.660400X-0.660400X0.660400X-0.660400X-0.660400X0*%
%ADD31C,1.524800*%
G04 APERTURE END LIST*
D10*
%TO.C,H1*%
X207797400Y-75285600D03*
%TD*%
%TO.C,H2*%
X207797400Y-62458600D03*
%TD*%
%TO.C,H3*%
X207797400Y-49631600D03*
%TD*%
D11*
%TO.C,INV2*%
X202357200Y-69316600D03*
X202357200Y-68366600D03*
X202357200Y-67416600D03*
X199847200Y-67416600D03*
X199847200Y-69316600D03*
%TD*%
D12*
%TO.C,J5*%
X186258200Y-57596800D03*
X186258200Y-50596800D03*
D13*
X182758200Y-57596800D03*
X182758200Y-50596800D03*
%TD*%
D14*
%TO.C,S1*%
X182700000Y-76150000D03*
X182700000Y-78150000D03*
X182700000Y-80150001D03*
D15*
X182700000Y-74050001D03*
X182700000Y-82249999D03*
%TD*%
D14*
%TO.C,S2*%
X182660000Y-64360000D03*
X182660000Y-66360000D03*
X182660000Y-68360001D03*
D15*
X182660000Y-62260001D03*
X182660000Y-70459999D03*
%TD*%
D16*
%TO.C,TP2*%
X207873600Y-80949800D03*
%TD*%
%TO.C,TP4*%
X207873600Y-56921400D03*
%TD*%
D17*
%TO.C,J1*%
X192582800Y-84632800D03*
D18*
X192582800Y-87172800D03*
X192582800Y-89712800D03*
X192582800Y-92252800D03*
%TD*%
D16*
%TO.C,TP1*%
X203200000Y-91795600D03*
%TD*%
D19*
%TO.C,BUFF1*%
X198275000Y-80195000D03*
X197325000Y-80195000D03*
X196375000Y-80195000D03*
X196375000Y-82705000D03*
X198275000Y-82705000D03*
%TD*%
D20*
%TO.C,C7*%
X196562500Y-62175000D03*
X194487500Y-62175000D03*
%TD*%
D21*
%TO.C,C6*%
X192425000Y-82325000D03*
X190700000Y-82325000D03*
%TD*%
D19*
%TO.C,INV3*%
X190637200Y-61305200D03*
X189687200Y-61305200D03*
X188737200Y-61305200D03*
X188737200Y-63815200D03*
X190637200Y-63815200D03*
%TD*%
D21*
%TO.C,C8*%
X192550000Y-70075000D03*
X190825000Y-70075000D03*
%TD*%
D22*
%TO.C,R1*%
X194525400Y-67533000D03*
X196525400Y-67533000D03*
%TD*%
D23*
%TO.C,D1*%
X199224900Y-62230000D03*
X202755500Y-62230000D03*
%TD*%
D21*
%TO.C,C4*%
X203813300Y-87901000D03*
X202088300Y-87901000D03*
%TD*%
D24*
%TO.C,Tx1*%
X193980000Y-55911500D03*
D25*
X196520000Y-55911500D03*
X199060000Y-55911500D03*
X201600000Y-55911500D03*
X201600000Y-48211500D03*
X193980000Y-48211500D03*
%TD*%
D16*
%TO.C,TP3*%
X207873600Y-69799200D03*
%TD*%
D21*
%TO.C,C5*%
X202592300Y-77979800D03*
X200867300Y-77979800D03*
%TD*%
%TO.C,C1*%
X198219100Y-84330600D03*
X196494100Y-84330600D03*
%TD*%
D19*
%TO.C,NAND1*%
X202702200Y-73634600D03*
X201752200Y-73634600D03*
X200802200Y-73634600D03*
X200802200Y-76144600D03*
X202702200Y-76144600D03*
%TD*%
%TO.C,INV1*%
X203850000Y-83725000D03*
X202900000Y-83725000D03*
X201950000Y-83725000D03*
X201950000Y-86235000D03*
X203850000Y-86235000D03*
%TD*%
D17*
%TO.C,J4*%
X207920000Y-84580000D03*
D18*
X207920000Y-87120000D03*
X207920000Y-89660000D03*
X207920000Y-92200000D03*
%TD*%
D21*
%TO.C,C3*%
X190600500Y-65481200D03*
X188875500Y-65481200D03*
%TD*%
D26*
%TO.C,C9*%
X205350000Y-83587500D03*
X205350000Y-81862500D03*
%TD*%
D27*
%TO.C,C2*%
X198175000Y-69587500D03*
X198175000Y-71312500D03*
%TD*%
D28*
%TO.C,TRIM1*%
X186200000Y-86925000D03*
D29*
X182200000Y-88075000D03*
D28*
X186200000Y-89225000D03*
%TD*%
D30*
%TO.C,J2*%
X192582800Y-71805800D03*
D31*
X192582800Y-74345800D03*
X192582800Y-76885800D03*
X192582800Y-79425800D03*
%TD*%
M02*
