%TF.GenerationSoftware,KiCad,Pcbnew,9.0.2*%
%TF.CreationDate,2026-05-30T15:20:28-06:00*%
%TF.ProjectId,DaFO,4461464f-2e6b-4696-9361-645f70636258,v.1*%
%TF.SameCoordinates,Original*%
%TF.FileFunction,Drillmap*%
%TF.FilePolarity,Positive*%
%FSLAX45Y45*%
G04 Gerber Fmt 4.5, Leading zero omitted, Abs format (unit mm)*
G04 Created by KiCad (PCBNEW 9.0.2) date 2026-05-30 15:20:28*
%MOMM*%
%LPD*%
G01*
G04 APERTURE LIST*
%ADD10C,0.200000*%
%ADD11C,0.100000*%
%ADD12C,0.101600*%
%ADD13C,0.120000*%
%ADD14C,0.149860*%
G04 APERTURE END LIST*
D10*
X18000000Y-4527500D02*
X21200000Y-4527500D01*
X21200000Y-9427500D01*
X18000000Y-9427500D01*
X18000000Y-4527500D01*
D11*
X18390000Y-8832500D02*
X18420000Y-8862500D01*
X18420000Y-8832500D02*
X18390000Y-8862500D01*
X18440000Y-7722500D02*
X18470000Y-7752500D01*
X18470000Y-7722500D02*
X18440000Y-7752500D01*
X18559076Y-6756000D02*
X18589076Y-6786000D01*
X18589076Y-6756000D02*
X18559076Y-6786000D01*
X18562500Y-7735000D02*
X18592500Y-7765000D01*
X18592500Y-7735000D02*
X18562500Y-7765000D01*
X18562500Y-8432500D02*
X18592500Y-8462500D01*
X18592500Y-8432500D02*
X18562500Y-8462500D01*
X18596250Y-6591250D02*
X18626250Y-6621250D01*
X18626250Y-6591250D02*
X18596250Y-6621250D01*
X18752500Y-6537500D02*
X18782500Y-6567500D01*
X18782500Y-6537500D02*
X18752500Y-6567500D01*
X18860000Y-5992500D02*
X18890000Y-6022500D01*
X18890000Y-5992500D02*
X18860000Y-6022500D01*
X18906500Y-6821000D02*
X18936500Y-6851000D01*
X18936500Y-6821000D02*
X18906500Y-6851000D01*
X18932500Y-8225000D02*
X18962500Y-8255000D01*
X18962500Y-8225000D02*
X18932500Y-8255000D01*
X18937500Y-6927500D02*
X18967500Y-6957500D01*
X18967500Y-6927500D02*
X18937500Y-6957500D01*
X19041060Y-7826440D02*
X19071060Y-7856440D01*
X19071060Y-7826440D02*
X19041060Y-7856440D01*
X19172500Y-6532500D02*
X19202500Y-6562500D01*
X19202500Y-6532500D02*
X19172500Y-6562500D01*
X19312500Y-6202500D02*
X19342500Y-6232500D01*
X19342500Y-6202500D02*
X19312500Y-6232500D01*
X19314200Y-6738300D02*
X19344200Y-6768300D01*
X19344200Y-6738300D02*
X19314200Y-6768300D01*
X19407500Y-6020000D02*
X19437500Y-6050000D01*
X19437500Y-6020000D02*
X19407500Y-6050000D01*
X19432500Y-6450000D02*
X19462500Y-6480000D01*
X19462500Y-6450000D02*
X19432500Y-6480000D01*
X19470000Y-7477500D02*
X19500000Y-7507500D01*
X19500000Y-7477500D02*
X19470000Y-7507500D01*
X19470000Y-8002500D02*
X19500000Y-8032500D01*
X19500000Y-8002500D02*
X19470000Y-8032500D01*
X19515000Y-8420000D02*
X19545000Y-8450000D01*
X19545000Y-8420000D02*
X19515000Y-8450000D01*
X19575000Y-8572500D02*
X19605000Y-8602500D01*
X19605000Y-8572500D02*
X19575000Y-8602500D01*
X19620000Y-8130000D02*
X19650000Y-8160000D01*
X19650000Y-8130000D02*
X19620000Y-8160000D01*
X19687500Y-6940000D02*
X19717500Y-6970000D01*
X19717500Y-6940000D02*
X19687500Y-6970000D01*
X19810000Y-6450000D02*
X19840000Y-6480000D01*
X19840000Y-6450000D02*
X19810000Y-6480000D01*
X19910000Y-7115000D02*
X19940000Y-7145000D01*
X19940000Y-7115000D02*
X19910000Y-7145000D01*
X19925000Y-8425000D02*
X19955000Y-8455000D01*
X19955000Y-8425000D02*
X19925000Y-8455000D01*
X19950000Y-7292500D02*
X19980000Y-7322500D01*
X19980000Y-7292500D02*
X19950000Y-7322500D01*
X19952500Y-7787500D02*
X19982500Y-7817500D01*
X19982500Y-7787500D02*
X19952500Y-7817500D01*
X19972500Y-6557500D02*
X20002500Y-6587500D01*
X20002500Y-6557500D02*
X19972500Y-6587500D01*
X20059920Y-8318510D02*
X20089920Y-8348510D01*
X20089920Y-8318510D02*
X20059920Y-8348510D01*
X20065000Y-7470000D02*
X20095000Y-7500000D01*
X20095000Y-7470000D02*
X20065000Y-7500000D01*
X20100000Y-7142500D02*
X20130000Y-7172500D01*
X20130000Y-7142500D02*
X20100000Y-7172500D01*
X20194920Y-8886010D02*
X20224920Y-8916010D01*
X20224920Y-8886010D02*
X20194920Y-8916010D01*
X20213000Y-8480000D02*
X20243000Y-8510000D01*
X20243000Y-8480000D02*
X20213000Y-8510000D01*
X20347500Y-6730000D02*
X20377500Y-6760000D01*
X20377500Y-6730000D02*
X20347500Y-6760000D01*
X20360000Y-7792500D02*
X20390000Y-7822500D01*
X20390000Y-7792500D02*
X20360000Y-7822500D01*
X20415000Y-8162500D02*
X20445000Y-8192500D01*
X20445000Y-8162500D02*
X20415000Y-8192500D01*
X18306640Y-6436000D02*
G75*
G02*
X18225360Y-6436000I-40640J0D01*
G01*
X18225360Y-6436000D02*
G75*
G02*
X18306640Y-6436000I40640J0D01*
G01*
X18306640Y-6636000D02*
G75*
G02*
X18225360Y-6636000I-40640J0D01*
G01*
X18225360Y-6636000D02*
G75*
G02*
X18306640Y-6636000I40640J0D01*
G01*
X18306640Y-6836000D02*
G75*
G02*
X18225360Y-6836000I-40640J0D01*
G01*
X18225360Y-6836000D02*
G75*
G02*
X18306640Y-6836000I40640J0D01*
G01*
X18310640Y-7615000D02*
G75*
G02*
X18229360Y-7615000I-40640J0D01*
G01*
X18229360Y-7615000D02*
G75*
G02*
X18310640Y-7615000I40640J0D01*
G01*
X18310640Y-7815000D02*
G75*
G02*
X18229360Y-7815000I-40640J0D01*
G01*
X18229360Y-7815000D02*
G75*
G02*
X18310640Y-7815000I40640J0D01*
G01*
X18310640Y-8015000D02*
G75*
G02*
X18229360Y-8015000I-40640J0D01*
G01*
X18229360Y-8015000D02*
G75*
G02*
X18310640Y-8015000I40640J0D01*
G01*
X19298920Y-7180580D02*
G75*
G02*
X19217640Y-7180580I-40640J0D01*
G01*
X19217640Y-7180580D02*
G75*
G02*
X19298920Y-7180580I40640J0D01*
G01*
X19298920Y-7434580D02*
G75*
G02*
X19217640Y-7434580I-40640J0D01*
G01*
X19217640Y-7434580D02*
G75*
G02*
X19298920Y-7434580I40640J0D01*
G01*
X19298920Y-7688580D02*
G75*
G02*
X19217640Y-7688580I-40640J0D01*
G01*
X19217640Y-7688580D02*
G75*
G02*
X19298920Y-7688580I40640J0D01*
G01*
X19298920Y-7942580D02*
G75*
G02*
X19217640Y-7942580I-40640J0D01*
G01*
X19217640Y-7942580D02*
G75*
G02*
X19298920Y-7942580I40640J0D01*
G01*
X19398000Y-4771150D02*
X19398000Y-4871150D01*
X19348000Y-4821150D02*
X19448000Y-4821150D01*
X19398000Y-5541150D02*
X19398000Y-5641150D01*
X19348000Y-5591150D02*
X19448000Y-5591150D01*
X19652000Y-5541150D02*
X19652000Y-5641150D01*
X19602000Y-5591150D02*
X19702000Y-5591150D01*
X19906000Y-5541150D02*
X19906000Y-5641150D01*
X19856000Y-5591150D02*
X19956000Y-5591150D01*
X20160000Y-4771150D02*
X20160000Y-4871150D01*
X20110000Y-4821150D02*
X20210000Y-4821150D01*
X20160000Y-5541150D02*
X20160000Y-5641150D01*
X20110000Y-5591150D02*
X20210000Y-5591150D01*
X20320000Y-9129560D02*
X20320000Y-9229560D01*
X20270000Y-9179560D02*
X20370000Y-9179560D01*
X20787360Y-5642140D02*
X20787360Y-5742140D01*
X20737360Y-5692140D02*
X20837360Y-5692140D01*
X20787360Y-6929920D02*
X20787360Y-7029920D01*
X20737360Y-6979920D02*
X20837360Y-6979920D01*
X20787360Y-8044980D02*
X20787360Y-8144980D01*
X20737360Y-8094980D02*
X20837360Y-8094980D01*
D12*
X19294201Y-8499201D02*
X19294201Y-8427359D01*
X19222359Y-8427359D01*
X19222359Y-8499201D01*
X19294201Y-8499201D01*
X19294201Y-8753201D02*
X19294201Y-8681359D01*
X19222359Y-8681359D01*
X19222359Y-8753201D01*
X19294201Y-8753201D01*
X19294201Y-9007201D02*
X19294201Y-8935359D01*
X19222359Y-8935359D01*
X19222359Y-9007201D01*
X19294201Y-9007201D01*
X19294201Y-9261201D02*
X19294201Y-9189359D01*
X19222359Y-9189359D01*
X19222359Y-9261201D01*
X19294201Y-9261201D01*
X20827921Y-8493921D02*
X20827921Y-8422079D01*
X20756079Y-8422079D01*
X20756079Y-8493921D01*
X20827921Y-8493921D01*
X20827921Y-8747921D02*
X20827921Y-8676079D01*
X20756079Y-8676079D01*
X20756079Y-8747921D01*
X20827921Y-8747921D01*
X20827921Y-9001921D02*
X20827921Y-8930079D01*
X20756079Y-8930079D01*
X20756079Y-9001921D01*
X20827921Y-9001921D01*
X20827921Y-9255921D02*
X20827921Y-9184079D01*
X20756079Y-9184079D01*
X20756079Y-9255921D01*
X20827921Y-9255921D01*
D13*
X18275820Y-5119680D02*
X18335820Y-5059680D01*
X18275820Y-4999680D01*
X18215820Y-5059680D01*
X18275820Y-5119680D01*
X18275820Y-5819680D02*
X18335820Y-5759680D01*
X18275820Y-5699680D01*
X18215820Y-5759680D01*
X18275820Y-5819680D01*
X18625820Y-5119680D02*
X18685820Y-5059680D01*
X18625820Y-4999680D01*
X18565820Y-5059680D01*
X18625820Y-5119680D01*
X18625820Y-5819680D02*
X18685820Y-5759680D01*
X18625820Y-5699680D01*
X18565820Y-5759680D01*
X18625820Y-5819680D01*
D14*
X18191070Y-6151070D02*
X18340930Y-6300930D01*
X18340930Y-6151070D02*
X18191070Y-6300930D01*
X18340930Y-6226000D02*
G75*
G02*
X18191070Y-6226000I-74930J0D01*
G01*
X18191070Y-6226000D02*
G75*
G02*
X18340930Y-6226000I74930J0D01*
G01*
X18191070Y-6971070D02*
X18340930Y-7120930D01*
X18340930Y-6971070D02*
X18191070Y-7120930D01*
X18340930Y-7046000D02*
G75*
G02*
X18191070Y-7046000I-74930J0D01*
G01*
X18191070Y-7046000D02*
G75*
G02*
X18340930Y-7046000I74930J0D01*
G01*
X18195070Y-7330070D02*
X18344930Y-7479930D01*
X18344930Y-7330070D02*
X18195070Y-7479930D01*
X18344930Y-7405000D02*
G75*
G02*
X18195070Y-7405000I-74930J0D01*
G01*
X18195070Y-7405000D02*
G75*
G02*
X18344930Y-7405000I74930J0D01*
G01*
X18195070Y-8150070D02*
X18344930Y-8299930D01*
X18344930Y-8150070D02*
X18195070Y-8299930D01*
X18344930Y-8225000D02*
G75*
G02*
X18195070Y-8225000I-74930J0D01*
G01*
X18195070Y-8225000D02*
G75*
G02*
X18344930Y-8225000I74930J0D01*
G01*
D10*
X18250777Y-9748984D02*
X18250777Y-9548984D01*
X18250777Y-9548984D02*
X18298396Y-9548984D01*
X18298396Y-9548984D02*
X18326967Y-9558508D01*
X18326967Y-9558508D02*
X18346015Y-9577555D01*
X18346015Y-9577555D02*
X18355539Y-9596603D01*
X18355539Y-9596603D02*
X18365063Y-9634698D01*
X18365063Y-9634698D02*
X18365063Y-9663270D01*
X18365063Y-9663270D02*
X18355539Y-9701365D01*
X18355539Y-9701365D02*
X18346015Y-9720412D01*
X18346015Y-9720412D02*
X18326967Y-9739460D01*
X18326967Y-9739460D02*
X18298396Y-9748984D01*
X18298396Y-9748984D02*
X18250777Y-9748984D01*
X18450777Y-9748984D02*
X18450777Y-9615650D01*
X18450777Y-9653746D02*
X18460301Y-9634698D01*
X18460301Y-9634698D02*
X18469824Y-9625174D01*
X18469824Y-9625174D02*
X18488872Y-9615650D01*
X18488872Y-9615650D02*
X18507920Y-9615650D01*
X18574586Y-9748984D02*
X18574586Y-9615650D01*
X18574586Y-9548984D02*
X18565063Y-9558508D01*
X18565063Y-9558508D02*
X18574586Y-9568031D01*
X18574586Y-9568031D02*
X18584110Y-9558508D01*
X18584110Y-9558508D02*
X18574586Y-9548984D01*
X18574586Y-9548984D02*
X18574586Y-9568031D01*
X18698396Y-9748984D02*
X18679348Y-9739460D01*
X18679348Y-9739460D02*
X18669824Y-9720412D01*
X18669824Y-9720412D02*
X18669824Y-9548984D01*
X18803158Y-9748984D02*
X18784110Y-9739460D01*
X18784110Y-9739460D02*
X18774586Y-9720412D01*
X18774586Y-9720412D02*
X18774586Y-9548984D01*
X19031729Y-9748984D02*
X19031729Y-9548984D01*
X19031729Y-9548984D02*
X19098396Y-9691841D01*
X19098396Y-9691841D02*
X19165063Y-9548984D01*
X19165063Y-9548984D02*
X19165063Y-9748984D01*
X19346015Y-9748984D02*
X19346015Y-9644222D01*
X19346015Y-9644222D02*
X19336491Y-9625174D01*
X19336491Y-9625174D02*
X19317444Y-9615650D01*
X19317444Y-9615650D02*
X19279348Y-9615650D01*
X19279348Y-9615650D02*
X19260301Y-9625174D01*
X19346015Y-9739460D02*
X19326967Y-9748984D01*
X19326967Y-9748984D02*
X19279348Y-9748984D01*
X19279348Y-9748984D02*
X19260301Y-9739460D01*
X19260301Y-9739460D02*
X19250777Y-9720412D01*
X19250777Y-9720412D02*
X19250777Y-9701365D01*
X19250777Y-9701365D02*
X19260301Y-9682317D01*
X19260301Y-9682317D02*
X19279348Y-9672793D01*
X19279348Y-9672793D02*
X19326967Y-9672793D01*
X19326967Y-9672793D02*
X19346015Y-9663270D01*
X19441253Y-9615650D02*
X19441253Y-9815650D01*
X19441253Y-9625174D02*
X19460301Y-9615650D01*
X19460301Y-9615650D02*
X19498396Y-9615650D01*
X19498396Y-9615650D02*
X19517444Y-9625174D01*
X19517444Y-9625174D02*
X19526967Y-9634698D01*
X19526967Y-9634698D02*
X19536491Y-9653746D01*
X19536491Y-9653746D02*
X19536491Y-9710889D01*
X19536491Y-9710889D02*
X19526967Y-9729936D01*
X19526967Y-9729936D02*
X19517444Y-9739460D01*
X19517444Y-9739460D02*
X19498396Y-9748984D01*
X19498396Y-9748984D02*
X19460301Y-9748984D01*
X19460301Y-9748984D02*
X19441253Y-9739460D01*
X19622205Y-9729936D02*
X19631729Y-9739460D01*
X19631729Y-9739460D02*
X19622205Y-9748984D01*
X19622205Y-9748984D02*
X19612682Y-9739460D01*
X19612682Y-9739460D02*
X19622205Y-9729936D01*
X19622205Y-9729936D02*
X19622205Y-9748984D01*
X19622205Y-9625174D02*
X19631729Y-9634698D01*
X19631729Y-9634698D02*
X19622205Y-9644222D01*
X19622205Y-9644222D02*
X19612682Y-9634698D01*
X19612682Y-9634698D02*
X19622205Y-9625174D01*
X19622205Y-9625174D02*
X19622205Y-9644222D01*
D11*
X17960000Y-10062500D02*
X17990000Y-10092500D01*
X17990000Y-10062500D02*
X17960000Y-10092500D01*
D10*
X18288872Y-9968984D02*
X18307920Y-9968984D01*
X18307920Y-9968984D02*
X18326967Y-9978508D01*
X18326967Y-9978508D02*
X18336491Y-9988031D01*
X18336491Y-9988031D02*
X18346015Y-10007079D01*
X18346015Y-10007079D02*
X18355539Y-10045174D01*
X18355539Y-10045174D02*
X18355539Y-10092793D01*
X18355539Y-10092793D02*
X18346015Y-10130889D01*
X18346015Y-10130889D02*
X18336491Y-10149936D01*
X18336491Y-10149936D02*
X18326967Y-10159460D01*
X18326967Y-10159460D02*
X18307920Y-10168984D01*
X18307920Y-10168984D02*
X18288872Y-10168984D01*
X18288872Y-10168984D02*
X18269824Y-10159460D01*
X18269824Y-10159460D02*
X18260301Y-10149936D01*
X18260301Y-10149936D02*
X18250777Y-10130889D01*
X18250777Y-10130889D02*
X18241253Y-10092793D01*
X18241253Y-10092793D02*
X18241253Y-10045174D01*
X18241253Y-10045174D02*
X18250777Y-10007079D01*
X18250777Y-10007079D02*
X18260301Y-9988031D01*
X18260301Y-9988031D02*
X18269824Y-9978508D01*
X18269824Y-9978508D02*
X18288872Y-9968984D01*
X18441253Y-10149936D02*
X18450777Y-10159460D01*
X18450777Y-10159460D02*
X18441253Y-10168984D01*
X18441253Y-10168984D02*
X18431729Y-10159460D01*
X18431729Y-10159460D02*
X18441253Y-10149936D01*
X18441253Y-10149936D02*
X18441253Y-10168984D01*
X18517444Y-9968984D02*
X18641253Y-9968984D01*
X18641253Y-9968984D02*
X18574586Y-10045174D01*
X18574586Y-10045174D02*
X18603158Y-10045174D01*
X18603158Y-10045174D02*
X18622205Y-10054698D01*
X18622205Y-10054698D02*
X18631729Y-10064222D01*
X18631729Y-10064222D02*
X18641253Y-10083270D01*
X18641253Y-10083270D02*
X18641253Y-10130889D01*
X18641253Y-10130889D02*
X18631729Y-10149936D01*
X18631729Y-10149936D02*
X18622205Y-10159460D01*
X18622205Y-10159460D02*
X18603158Y-10168984D01*
X18603158Y-10168984D02*
X18546015Y-10168984D01*
X18546015Y-10168984D02*
X18526967Y-10159460D01*
X18526967Y-10159460D02*
X18517444Y-10149936D01*
X18765063Y-9968984D02*
X18784110Y-9968984D01*
X18784110Y-9968984D02*
X18803158Y-9978508D01*
X18803158Y-9978508D02*
X18812682Y-9988031D01*
X18812682Y-9988031D02*
X18822205Y-10007079D01*
X18822205Y-10007079D02*
X18831729Y-10045174D01*
X18831729Y-10045174D02*
X18831729Y-10092793D01*
X18831729Y-10092793D02*
X18822205Y-10130889D01*
X18822205Y-10130889D02*
X18812682Y-10149936D01*
X18812682Y-10149936D02*
X18803158Y-10159460D01*
X18803158Y-10159460D02*
X18784110Y-10168984D01*
X18784110Y-10168984D02*
X18765063Y-10168984D01*
X18765063Y-10168984D02*
X18746015Y-10159460D01*
X18746015Y-10159460D02*
X18736491Y-10149936D01*
X18736491Y-10149936D02*
X18726967Y-10130889D01*
X18726967Y-10130889D02*
X18717444Y-10092793D01*
X18717444Y-10092793D02*
X18717444Y-10045174D01*
X18717444Y-10045174D02*
X18726967Y-10007079D01*
X18726967Y-10007079D02*
X18736491Y-9988031D01*
X18736491Y-9988031D02*
X18746015Y-9978508D01*
X18746015Y-9978508D02*
X18765063Y-9968984D01*
X18955539Y-9968984D02*
X18974586Y-9968984D01*
X18974586Y-9968984D02*
X18993634Y-9978508D01*
X18993634Y-9978508D02*
X19003158Y-9988031D01*
X19003158Y-9988031D02*
X19012682Y-10007079D01*
X19012682Y-10007079D02*
X19022205Y-10045174D01*
X19022205Y-10045174D02*
X19022205Y-10092793D01*
X19022205Y-10092793D02*
X19012682Y-10130889D01*
X19012682Y-10130889D02*
X19003158Y-10149936D01*
X19003158Y-10149936D02*
X18993634Y-10159460D01*
X18993634Y-10159460D02*
X18974586Y-10168984D01*
X18974586Y-10168984D02*
X18955539Y-10168984D01*
X18955539Y-10168984D02*
X18936491Y-10159460D01*
X18936491Y-10159460D02*
X18926967Y-10149936D01*
X18926967Y-10149936D02*
X18917444Y-10130889D01*
X18917444Y-10130889D02*
X18907920Y-10092793D01*
X18907920Y-10092793D02*
X18907920Y-10045174D01*
X18907920Y-10045174D02*
X18917444Y-10007079D01*
X18917444Y-10007079D02*
X18926967Y-9988031D01*
X18926967Y-9988031D02*
X18936491Y-9978508D01*
X18936491Y-9978508D02*
X18955539Y-9968984D01*
X19107920Y-10168984D02*
X19107920Y-10035650D01*
X19107920Y-10054698D02*
X19117444Y-10045174D01*
X19117444Y-10045174D02*
X19136491Y-10035650D01*
X19136491Y-10035650D02*
X19165063Y-10035650D01*
X19165063Y-10035650D02*
X19184110Y-10045174D01*
X19184110Y-10045174D02*
X19193634Y-10064222D01*
X19193634Y-10064222D02*
X19193634Y-10168984D01*
X19193634Y-10064222D02*
X19203158Y-10045174D01*
X19203158Y-10045174D02*
X19222205Y-10035650D01*
X19222205Y-10035650D02*
X19250777Y-10035650D01*
X19250777Y-10035650D02*
X19269825Y-10045174D01*
X19269825Y-10045174D02*
X19279348Y-10064222D01*
X19279348Y-10064222D02*
X19279348Y-10168984D01*
X19374586Y-10168984D02*
X19374586Y-10035650D01*
X19374586Y-10054698D02*
X19384110Y-10045174D01*
X19384110Y-10045174D02*
X19403158Y-10035650D01*
X19403158Y-10035650D02*
X19431729Y-10035650D01*
X19431729Y-10035650D02*
X19450777Y-10045174D01*
X19450777Y-10045174D02*
X19460301Y-10064222D01*
X19460301Y-10064222D02*
X19460301Y-10168984D01*
X19460301Y-10064222D02*
X19469825Y-10045174D01*
X19469825Y-10045174D02*
X19488872Y-10035650D01*
X19488872Y-10035650D02*
X19517444Y-10035650D01*
X19517444Y-10035650D02*
X19536491Y-10045174D01*
X19536491Y-10045174D02*
X19546015Y-10064222D01*
X19546015Y-10064222D02*
X19546015Y-10168984D01*
X19936491Y-9959460D02*
X19765063Y-10216603D01*
X20193634Y-9968984D02*
X20212682Y-9968984D01*
X20212682Y-9968984D02*
X20231729Y-9978508D01*
X20231729Y-9978508D02*
X20241253Y-9988031D01*
X20241253Y-9988031D02*
X20250777Y-10007079D01*
X20250777Y-10007079D02*
X20260301Y-10045174D01*
X20260301Y-10045174D02*
X20260301Y-10092793D01*
X20260301Y-10092793D02*
X20250777Y-10130889D01*
X20250777Y-10130889D02*
X20241253Y-10149936D01*
X20241253Y-10149936D02*
X20231729Y-10159460D01*
X20231729Y-10159460D02*
X20212682Y-10168984D01*
X20212682Y-10168984D02*
X20193634Y-10168984D01*
X20193634Y-10168984D02*
X20174587Y-10159460D01*
X20174587Y-10159460D02*
X20165063Y-10149936D01*
X20165063Y-10149936D02*
X20155539Y-10130889D01*
X20155539Y-10130889D02*
X20146015Y-10092793D01*
X20146015Y-10092793D02*
X20146015Y-10045174D01*
X20146015Y-10045174D02*
X20155539Y-10007079D01*
X20155539Y-10007079D02*
X20165063Y-9988031D01*
X20165063Y-9988031D02*
X20174587Y-9978508D01*
X20174587Y-9978508D02*
X20193634Y-9968984D01*
X20346015Y-10149936D02*
X20355539Y-10159460D01*
X20355539Y-10159460D02*
X20346015Y-10168984D01*
X20346015Y-10168984D02*
X20336491Y-10159460D01*
X20336491Y-10159460D02*
X20346015Y-10149936D01*
X20346015Y-10149936D02*
X20346015Y-10168984D01*
X20479348Y-9968984D02*
X20498396Y-9968984D01*
X20498396Y-9968984D02*
X20517444Y-9978508D01*
X20517444Y-9978508D02*
X20526968Y-9988031D01*
X20526968Y-9988031D02*
X20536491Y-10007079D01*
X20536491Y-10007079D02*
X20546015Y-10045174D01*
X20546015Y-10045174D02*
X20546015Y-10092793D01*
X20546015Y-10092793D02*
X20536491Y-10130889D01*
X20536491Y-10130889D02*
X20526968Y-10149936D01*
X20526968Y-10149936D02*
X20517444Y-10159460D01*
X20517444Y-10159460D02*
X20498396Y-10168984D01*
X20498396Y-10168984D02*
X20479348Y-10168984D01*
X20479348Y-10168984D02*
X20460301Y-10159460D01*
X20460301Y-10159460D02*
X20450777Y-10149936D01*
X20450777Y-10149936D02*
X20441253Y-10130889D01*
X20441253Y-10130889D02*
X20431729Y-10092793D01*
X20431729Y-10092793D02*
X20431729Y-10045174D01*
X20431729Y-10045174D02*
X20441253Y-10007079D01*
X20441253Y-10007079D02*
X20450777Y-9988031D01*
X20450777Y-9988031D02*
X20460301Y-9978508D01*
X20460301Y-9978508D02*
X20479348Y-9968984D01*
X20736491Y-10168984D02*
X20622206Y-10168984D01*
X20679348Y-10168984D02*
X20679348Y-9968984D01*
X20679348Y-9968984D02*
X20660301Y-9997555D01*
X20660301Y-9997555D02*
X20641253Y-10016603D01*
X20641253Y-10016603D02*
X20622206Y-10026127D01*
X20926968Y-10168984D02*
X20812682Y-10168984D01*
X20869825Y-10168984D02*
X20869825Y-9968984D01*
X20869825Y-9968984D02*
X20850777Y-9997555D01*
X20850777Y-9997555D02*
X20831729Y-10016603D01*
X20831729Y-10016603D02*
X20812682Y-10026127D01*
X21041253Y-10054698D02*
X21022206Y-10045174D01*
X21022206Y-10045174D02*
X21012682Y-10035650D01*
X21012682Y-10035650D02*
X21003158Y-10016603D01*
X21003158Y-10016603D02*
X21003158Y-10007079D01*
X21003158Y-10007079D02*
X21012682Y-9988031D01*
X21012682Y-9988031D02*
X21022206Y-9978508D01*
X21022206Y-9978508D02*
X21041253Y-9968984D01*
X21041253Y-9968984D02*
X21079349Y-9968984D01*
X21079349Y-9968984D02*
X21098396Y-9978508D01*
X21098396Y-9978508D02*
X21107920Y-9988031D01*
X21107920Y-9988031D02*
X21117444Y-10007079D01*
X21117444Y-10007079D02*
X21117444Y-10016603D01*
X21117444Y-10016603D02*
X21107920Y-10035650D01*
X21107920Y-10035650D02*
X21098396Y-10045174D01*
X21098396Y-10045174D02*
X21079349Y-10054698D01*
X21079349Y-10054698D02*
X21041253Y-10054698D01*
X21041253Y-10054698D02*
X21022206Y-10064222D01*
X21022206Y-10064222D02*
X21012682Y-10073746D01*
X21012682Y-10073746D02*
X21003158Y-10092793D01*
X21003158Y-10092793D02*
X21003158Y-10130889D01*
X21003158Y-10130889D02*
X21012682Y-10149936D01*
X21012682Y-10149936D02*
X21022206Y-10159460D01*
X21022206Y-10159460D02*
X21041253Y-10168984D01*
X21041253Y-10168984D02*
X21079349Y-10168984D01*
X21079349Y-10168984D02*
X21098396Y-10159460D01*
X21098396Y-10159460D02*
X21107920Y-10149936D01*
X21107920Y-10149936D02*
X21117444Y-10130889D01*
X21117444Y-10130889D02*
X21117444Y-10092793D01*
X21117444Y-10092793D02*
X21107920Y-10073746D01*
X21107920Y-10073746D02*
X21098396Y-10064222D01*
X21098396Y-10064222D02*
X21079349Y-10054698D01*
X21193634Y-9968984D02*
X21193634Y-10007079D01*
X21269825Y-9968984D02*
X21269825Y-10007079D01*
X21565063Y-10245174D02*
X21555539Y-10235650D01*
X21555539Y-10235650D02*
X21536491Y-10207079D01*
X21536491Y-10207079D02*
X21526968Y-10188031D01*
X21526968Y-10188031D02*
X21517444Y-10159460D01*
X21517444Y-10159460D02*
X21507920Y-10111841D01*
X21507920Y-10111841D02*
X21507920Y-10073746D01*
X21507920Y-10073746D02*
X21517444Y-10026127D01*
X21517444Y-10026127D02*
X21526968Y-9997555D01*
X21526968Y-9997555D02*
X21536491Y-9978508D01*
X21536491Y-9978508D02*
X21555539Y-9949936D01*
X21555539Y-9949936D02*
X21565063Y-9940412D01*
X21622206Y-9968984D02*
X21746015Y-9968984D01*
X21746015Y-9968984D02*
X21679349Y-10045174D01*
X21679349Y-10045174D02*
X21707920Y-10045174D01*
X21707920Y-10045174D02*
X21726968Y-10054698D01*
X21726968Y-10054698D02*
X21736491Y-10064222D01*
X21736491Y-10064222D02*
X21746015Y-10083270D01*
X21746015Y-10083270D02*
X21746015Y-10130889D01*
X21746015Y-10130889D02*
X21736491Y-10149936D01*
X21736491Y-10149936D02*
X21726968Y-10159460D01*
X21726968Y-10159460D02*
X21707920Y-10168984D01*
X21707920Y-10168984D02*
X21650777Y-10168984D01*
X21650777Y-10168984D02*
X21631730Y-10159460D01*
X21631730Y-10159460D02*
X21622206Y-10149936D01*
X21812682Y-9968984D02*
X21946015Y-9968984D01*
X21946015Y-9968984D02*
X21860301Y-10168984D01*
X22174587Y-10168984D02*
X22174587Y-9968984D01*
X22260301Y-10168984D02*
X22260301Y-10064222D01*
X22260301Y-10064222D02*
X22250777Y-10045174D01*
X22250777Y-10045174D02*
X22231730Y-10035650D01*
X22231730Y-10035650D02*
X22203158Y-10035650D01*
X22203158Y-10035650D02*
X22184111Y-10045174D01*
X22184111Y-10045174D02*
X22174587Y-10054698D01*
X22384110Y-10168984D02*
X22365063Y-10159460D01*
X22365063Y-10159460D02*
X22355539Y-10149936D01*
X22355539Y-10149936D02*
X22346015Y-10130889D01*
X22346015Y-10130889D02*
X22346015Y-10073746D01*
X22346015Y-10073746D02*
X22355539Y-10054698D01*
X22355539Y-10054698D02*
X22365063Y-10045174D01*
X22365063Y-10045174D02*
X22384110Y-10035650D01*
X22384110Y-10035650D02*
X22412682Y-10035650D01*
X22412682Y-10035650D02*
X22431730Y-10045174D01*
X22431730Y-10045174D02*
X22441253Y-10054698D01*
X22441253Y-10054698D02*
X22450777Y-10073746D01*
X22450777Y-10073746D02*
X22450777Y-10130889D01*
X22450777Y-10130889D02*
X22441253Y-10149936D01*
X22441253Y-10149936D02*
X22431730Y-10159460D01*
X22431730Y-10159460D02*
X22412682Y-10168984D01*
X22412682Y-10168984D02*
X22384110Y-10168984D01*
X22565063Y-10168984D02*
X22546015Y-10159460D01*
X22546015Y-10159460D02*
X22536491Y-10140412D01*
X22536491Y-10140412D02*
X22536491Y-9968984D01*
X22717444Y-10159460D02*
X22698396Y-10168984D01*
X22698396Y-10168984D02*
X22660301Y-10168984D01*
X22660301Y-10168984D02*
X22641253Y-10159460D01*
X22641253Y-10159460D02*
X22631730Y-10140412D01*
X22631730Y-10140412D02*
X22631730Y-10064222D01*
X22631730Y-10064222D02*
X22641253Y-10045174D01*
X22641253Y-10045174D02*
X22660301Y-10035650D01*
X22660301Y-10035650D02*
X22698396Y-10035650D01*
X22698396Y-10035650D02*
X22717444Y-10045174D01*
X22717444Y-10045174D02*
X22726968Y-10064222D01*
X22726968Y-10064222D02*
X22726968Y-10083270D01*
X22726968Y-10083270D02*
X22631730Y-10102317D01*
X22803158Y-10159460D02*
X22822206Y-10168984D01*
X22822206Y-10168984D02*
X22860301Y-10168984D01*
X22860301Y-10168984D02*
X22879349Y-10159460D01*
X22879349Y-10159460D02*
X22888872Y-10140412D01*
X22888872Y-10140412D02*
X22888872Y-10130889D01*
X22888872Y-10130889D02*
X22879349Y-10111841D01*
X22879349Y-10111841D02*
X22860301Y-10102317D01*
X22860301Y-10102317D02*
X22831730Y-10102317D01*
X22831730Y-10102317D02*
X22812682Y-10092793D01*
X22812682Y-10092793D02*
X22803158Y-10073746D01*
X22803158Y-10073746D02*
X22803158Y-10064222D01*
X22803158Y-10064222D02*
X22812682Y-10045174D01*
X22812682Y-10045174D02*
X22831730Y-10035650D01*
X22831730Y-10035650D02*
X22860301Y-10035650D01*
X22860301Y-10035650D02*
X22879349Y-10045174D01*
X22955539Y-10245174D02*
X22965063Y-10235650D01*
X22965063Y-10235650D02*
X22984111Y-10207079D01*
X22984111Y-10207079D02*
X22993634Y-10188031D01*
X22993634Y-10188031D02*
X23003158Y-10159460D01*
X23003158Y-10159460D02*
X23012682Y-10111841D01*
X23012682Y-10111841D02*
X23012682Y-10073746D01*
X23012682Y-10073746D02*
X23003158Y-10026127D01*
X23003158Y-10026127D02*
X22993634Y-9997555D01*
X22993634Y-9997555D02*
X22984111Y-9978508D01*
X22984111Y-9978508D02*
X22965063Y-9949936D01*
X22965063Y-9949936D02*
X22955539Y-9940412D01*
D11*
X17990000Y-10341500D02*
G75*
G02*
X17908720Y-10341500I-40640J0D01*
G01*
X17908720Y-10341500D02*
G75*
G02*
X17990000Y-10341500I40640J0D01*
G01*
D10*
X18288872Y-10232984D02*
X18307920Y-10232984D01*
X18307920Y-10232984D02*
X18326967Y-10242508D01*
X18326967Y-10242508D02*
X18336491Y-10252031D01*
X18336491Y-10252031D02*
X18346015Y-10271079D01*
X18346015Y-10271079D02*
X18355539Y-10309174D01*
X18355539Y-10309174D02*
X18355539Y-10356793D01*
X18355539Y-10356793D02*
X18346015Y-10394889D01*
X18346015Y-10394889D02*
X18336491Y-10413936D01*
X18336491Y-10413936D02*
X18326967Y-10423460D01*
X18326967Y-10423460D02*
X18307920Y-10432984D01*
X18307920Y-10432984D02*
X18288872Y-10432984D01*
X18288872Y-10432984D02*
X18269824Y-10423460D01*
X18269824Y-10423460D02*
X18260301Y-10413936D01*
X18260301Y-10413936D02*
X18250777Y-10394889D01*
X18250777Y-10394889D02*
X18241253Y-10356793D01*
X18241253Y-10356793D02*
X18241253Y-10309174D01*
X18241253Y-10309174D02*
X18250777Y-10271079D01*
X18250777Y-10271079D02*
X18260301Y-10252031D01*
X18260301Y-10252031D02*
X18269824Y-10242508D01*
X18269824Y-10242508D02*
X18288872Y-10232984D01*
X18441253Y-10413936D02*
X18450777Y-10423460D01*
X18450777Y-10423460D02*
X18441253Y-10432984D01*
X18441253Y-10432984D02*
X18431729Y-10423460D01*
X18431729Y-10423460D02*
X18441253Y-10413936D01*
X18441253Y-10413936D02*
X18441253Y-10432984D01*
X18565063Y-10318698D02*
X18546015Y-10309174D01*
X18546015Y-10309174D02*
X18536491Y-10299650D01*
X18536491Y-10299650D02*
X18526967Y-10280603D01*
X18526967Y-10280603D02*
X18526967Y-10271079D01*
X18526967Y-10271079D02*
X18536491Y-10252031D01*
X18536491Y-10252031D02*
X18546015Y-10242508D01*
X18546015Y-10242508D02*
X18565063Y-10232984D01*
X18565063Y-10232984D02*
X18603158Y-10232984D01*
X18603158Y-10232984D02*
X18622205Y-10242508D01*
X18622205Y-10242508D02*
X18631729Y-10252031D01*
X18631729Y-10252031D02*
X18641253Y-10271079D01*
X18641253Y-10271079D02*
X18641253Y-10280603D01*
X18641253Y-10280603D02*
X18631729Y-10299650D01*
X18631729Y-10299650D02*
X18622205Y-10309174D01*
X18622205Y-10309174D02*
X18603158Y-10318698D01*
X18603158Y-10318698D02*
X18565063Y-10318698D01*
X18565063Y-10318698D02*
X18546015Y-10328222D01*
X18546015Y-10328222D02*
X18536491Y-10337746D01*
X18536491Y-10337746D02*
X18526967Y-10356793D01*
X18526967Y-10356793D02*
X18526967Y-10394889D01*
X18526967Y-10394889D02*
X18536491Y-10413936D01*
X18536491Y-10413936D02*
X18546015Y-10423460D01*
X18546015Y-10423460D02*
X18565063Y-10432984D01*
X18565063Y-10432984D02*
X18603158Y-10432984D01*
X18603158Y-10432984D02*
X18622205Y-10423460D01*
X18622205Y-10423460D02*
X18631729Y-10413936D01*
X18631729Y-10413936D02*
X18641253Y-10394889D01*
X18641253Y-10394889D02*
X18641253Y-10356793D01*
X18641253Y-10356793D02*
X18631729Y-10337746D01*
X18631729Y-10337746D02*
X18622205Y-10328222D01*
X18622205Y-10328222D02*
X18603158Y-10318698D01*
X18831729Y-10432984D02*
X18717444Y-10432984D01*
X18774586Y-10432984D02*
X18774586Y-10232984D01*
X18774586Y-10232984D02*
X18755539Y-10261555D01*
X18755539Y-10261555D02*
X18736491Y-10280603D01*
X18736491Y-10280603D02*
X18717444Y-10290127D01*
X18898396Y-10232984D02*
X19022205Y-10232984D01*
X19022205Y-10232984D02*
X18955539Y-10309174D01*
X18955539Y-10309174D02*
X18984110Y-10309174D01*
X18984110Y-10309174D02*
X19003158Y-10318698D01*
X19003158Y-10318698D02*
X19012682Y-10328222D01*
X19012682Y-10328222D02*
X19022205Y-10347270D01*
X19022205Y-10347270D02*
X19022205Y-10394889D01*
X19022205Y-10394889D02*
X19012682Y-10413936D01*
X19012682Y-10413936D02*
X19003158Y-10423460D01*
X19003158Y-10423460D02*
X18984110Y-10432984D01*
X18984110Y-10432984D02*
X18926967Y-10432984D01*
X18926967Y-10432984D02*
X18907920Y-10423460D01*
X18907920Y-10423460D02*
X18898396Y-10413936D01*
X19107920Y-10432984D02*
X19107920Y-10299650D01*
X19107920Y-10318698D02*
X19117444Y-10309174D01*
X19117444Y-10309174D02*
X19136491Y-10299650D01*
X19136491Y-10299650D02*
X19165063Y-10299650D01*
X19165063Y-10299650D02*
X19184110Y-10309174D01*
X19184110Y-10309174D02*
X19193634Y-10328222D01*
X19193634Y-10328222D02*
X19193634Y-10432984D01*
X19193634Y-10328222D02*
X19203158Y-10309174D01*
X19203158Y-10309174D02*
X19222205Y-10299650D01*
X19222205Y-10299650D02*
X19250777Y-10299650D01*
X19250777Y-10299650D02*
X19269825Y-10309174D01*
X19269825Y-10309174D02*
X19279348Y-10328222D01*
X19279348Y-10328222D02*
X19279348Y-10432984D01*
X19374586Y-10432984D02*
X19374586Y-10299650D01*
X19374586Y-10318698D02*
X19384110Y-10309174D01*
X19384110Y-10309174D02*
X19403158Y-10299650D01*
X19403158Y-10299650D02*
X19431729Y-10299650D01*
X19431729Y-10299650D02*
X19450777Y-10309174D01*
X19450777Y-10309174D02*
X19460301Y-10328222D01*
X19460301Y-10328222D02*
X19460301Y-10432984D01*
X19460301Y-10328222D02*
X19469825Y-10309174D01*
X19469825Y-10309174D02*
X19488872Y-10299650D01*
X19488872Y-10299650D02*
X19517444Y-10299650D01*
X19517444Y-10299650D02*
X19536491Y-10309174D01*
X19536491Y-10309174D02*
X19546015Y-10328222D01*
X19546015Y-10328222D02*
X19546015Y-10432984D01*
X19936491Y-10223460D02*
X19765063Y-10480603D01*
X20193634Y-10232984D02*
X20212682Y-10232984D01*
X20212682Y-10232984D02*
X20231729Y-10242508D01*
X20231729Y-10242508D02*
X20241253Y-10252031D01*
X20241253Y-10252031D02*
X20250777Y-10271079D01*
X20250777Y-10271079D02*
X20260301Y-10309174D01*
X20260301Y-10309174D02*
X20260301Y-10356793D01*
X20260301Y-10356793D02*
X20250777Y-10394889D01*
X20250777Y-10394889D02*
X20241253Y-10413936D01*
X20241253Y-10413936D02*
X20231729Y-10423460D01*
X20231729Y-10423460D02*
X20212682Y-10432984D01*
X20212682Y-10432984D02*
X20193634Y-10432984D01*
X20193634Y-10432984D02*
X20174587Y-10423460D01*
X20174587Y-10423460D02*
X20165063Y-10413936D01*
X20165063Y-10413936D02*
X20155539Y-10394889D01*
X20155539Y-10394889D02*
X20146015Y-10356793D01*
X20146015Y-10356793D02*
X20146015Y-10309174D01*
X20146015Y-10309174D02*
X20155539Y-10271079D01*
X20155539Y-10271079D02*
X20165063Y-10252031D01*
X20165063Y-10252031D02*
X20174587Y-10242508D01*
X20174587Y-10242508D02*
X20193634Y-10232984D01*
X20346015Y-10413936D02*
X20355539Y-10423460D01*
X20355539Y-10423460D02*
X20346015Y-10432984D01*
X20346015Y-10432984D02*
X20336491Y-10423460D01*
X20336491Y-10423460D02*
X20346015Y-10413936D01*
X20346015Y-10413936D02*
X20346015Y-10432984D01*
X20479348Y-10232984D02*
X20498396Y-10232984D01*
X20498396Y-10232984D02*
X20517444Y-10242508D01*
X20517444Y-10242508D02*
X20526968Y-10252031D01*
X20526968Y-10252031D02*
X20536491Y-10271079D01*
X20536491Y-10271079D02*
X20546015Y-10309174D01*
X20546015Y-10309174D02*
X20546015Y-10356793D01*
X20546015Y-10356793D02*
X20536491Y-10394889D01*
X20536491Y-10394889D02*
X20526968Y-10413936D01*
X20526968Y-10413936D02*
X20517444Y-10423460D01*
X20517444Y-10423460D02*
X20498396Y-10432984D01*
X20498396Y-10432984D02*
X20479348Y-10432984D01*
X20479348Y-10432984D02*
X20460301Y-10423460D01*
X20460301Y-10423460D02*
X20450777Y-10413936D01*
X20450777Y-10413936D02*
X20441253Y-10394889D01*
X20441253Y-10394889D02*
X20431729Y-10356793D01*
X20431729Y-10356793D02*
X20431729Y-10309174D01*
X20431729Y-10309174D02*
X20441253Y-10271079D01*
X20441253Y-10271079D02*
X20450777Y-10252031D01*
X20450777Y-10252031D02*
X20460301Y-10242508D01*
X20460301Y-10242508D02*
X20479348Y-10232984D01*
X20612682Y-10232984D02*
X20736491Y-10232984D01*
X20736491Y-10232984D02*
X20669825Y-10309174D01*
X20669825Y-10309174D02*
X20698396Y-10309174D01*
X20698396Y-10309174D02*
X20717444Y-10318698D01*
X20717444Y-10318698D02*
X20726968Y-10328222D01*
X20726968Y-10328222D02*
X20736491Y-10347270D01*
X20736491Y-10347270D02*
X20736491Y-10394889D01*
X20736491Y-10394889D02*
X20726968Y-10413936D01*
X20726968Y-10413936D02*
X20717444Y-10423460D01*
X20717444Y-10423460D02*
X20698396Y-10432984D01*
X20698396Y-10432984D02*
X20641253Y-10432984D01*
X20641253Y-10432984D02*
X20622206Y-10423460D01*
X20622206Y-10423460D02*
X20612682Y-10413936D01*
X20812682Y-10252031D02*
X20822206Y-10242508D01*
X20822206Y-10242508D02*
X20841253Y-10232984D01*
X20841253Y-10232984D02*
X20888872Y-10232984D01*
X20888872Y-10232984D02*
X20907920Y-10242508D01*
X20907920Y-10242508D02*
X20917444Y-10252031D01*
X20917444Y-10252031D02*
X20926968Y-10271079D01*
X20926968Y-10271079D02*
X20926968Y-10290127D01*
X20926968Y-10290127D02*
X20917444Y-10318698D01*
X20917444Y-10318698D02*
X20803158Y-10432984D01*
X20803158Y-10432984D02*
X20926968Y-10432984D01*
X21050777Y-10232984D02*
X21069825Y-10232984D01*
X21069825Y-10232984D02*
X21088872Y-10242508D01*
X21088872Y-10242508D02*
X21098396Y-10252031D01*
X21098396Y-10252031D02*
X21107920Y-10271079D01*
X21107920Y-10271079D02*
X21117444Y-10309174D01*
X21117444Y-10309174D02*
X21117444Y-10356793D01*
X21117444Y-10356793D02*
X21107920Y-10394889D01*
X21107920Y-10394889D02*
X21098396Y-10413936D01*
X21098396Y-10413936D02*
X21088872Y-10423460D01*
X21088872Y-10423460D02*
X21069825Y-10432984D01*
X21069825Y-10432984D02*
X21050777Y-10432984D01*
X21050777Y-10432984D02*
X21031729Y-10423460D01*
X21031729Y-10423460D02*
X21022206Y-10413936D01*
X21022206Y-10413936D02*
X21012682Y-10394889D01*
X21012682Y-10394889D02*
X21003158Y-10356793D01*
X21003158Y-10356793D02*
X21003158Y-10309174D01*
X21003158Y-10309174D02*
X21012682Y-10271079D01*
X21012682Y-10271079D02*
X21022206Y-10252031D01*
X21022206Y-10252031D02*
X21031729Y-10242508D01*
X21031729Y-10242508D02*
X21050777Y-10232984D01*
X21193634Y-10232984D02*
X21193634Y-10271079D01*
X21269825Y-10232984D02*
X21269825Y-10271079D01*
X21565063Y-10509174D02*
X21555539Y-10499650D01*
X21555539Y-10499650D02*
X21536491Y-10471079D01*
X21536491Y-10471079D02*
X21526968Y-10452031D01*
X21526968Y-10452031D02*
X21517444Y-10423460D01*
X21517444Y-10423460D02*
X21507920Y-10375841D01*
X21507920Y-10375841D02*
X21507920Y-10337746D01*
X21507920Y-10337746D02*
X21517444Y-10290127D01*
X21517444Y-10290127D02*
X21526968Y-10261555D01*
X21526968Y-10261555D02*
X21536491Y-10242508D01*
X21536491Y-10242508D02*
X21555539Y-10213936D01*
X21555539Y-10213936D02*
X21565063Y-10204412D01*
X21746015Y-10432984D02*
X21631730Y-10432984D01*
X21688872Y-10432984D02*
X21688872Y-10232984D01*
X21688872Y-10232984D02*
X21669825Y-10261555D01*
X21669825Y-10261555D02*
X21650777Y-10280603D01*
X21650777Y-10280603D02*
X21631730Y-10290127D01*
X21869825Y-10232984D02*
X21888872Y-10232984D01*
X21888872Y-10232984D02*
X21907920Y-10242508D01*
X21907920Y-10242508D02*
X21917444Y-10252031D01*
X21917444Y-10252031D02*
X21926968Y-10271079D01*
X21926968Y-10271079D02*
X21936491Y-10309174D01*
X21936491Y-10309174D02*
X21936491Y-10356793D01*
X21936491Y-10356793D02*
X21926968Y-10394889D01*
X21926968Y-10394889D02*
X21917444Y-10413936D01*
X21917444Y-10413936D02*
X21907920Y-10423460D01*
X21907920Y-10423460D02*
X21888872Y-10432984D01*
X21888872Y-10432984D02*
X21869825Y-10432984D01*
X21869825Y-10432984D02*
X21850777Y-10423460D01*
X21850777Y-10423460D02*
X21841253Y-10413936D01*
X21841253Y-10413936D02*
X21831730Y-10394889D01*
X21831730Y-10394889D02*
X21822206Y-10356793D01*
X21822206Y-10356793D02*
X21822206Y-10309174D01*
X21822206Y-10309174D02*
X21831730Y-10271079D01*
X21831730Y-10271079D02*
X21841253Y-10252031D01*
X21841253Y-10252031D02*
X21850777Y-10242508D01*
X21850777Y-10242508D02*
X21869825Y-10232984D01*
X22174587Y-10432984D02*
X22174587Y-10232984D01*
X22260301Y-10432984D02*
X22260301Y-10328222D01*
X22260301Y-10328222D02*
X22250777Y-10309174D01*
X22250777Y-10309174D02*
X22231730Y-10299650D01*
X22231730Y-10299650D02*
X22203158Y-10299650D01*
X22203158Y-10299650D02*
X22184111Y-10309174D01*
X22184111Y-10309174D02*
X22174587Y-10318698D01*
X22384110Y-10432984D02*
X22365063Y-10423460D01*
X22365063Y-10423460D02*
X22355539Y-10413936D01*
X22355539Y-10413936D02*
X22346015Y-10394889D01*
X22346015Y-10394889D02*
X22346015Y-10337746D01*
X22346015Y-10337746D02*
X22355539Y-10318698D01*
X22355539Y-10318698D02*
X22365063Y-10309174D01*
X22365063Y-10309174D02*
X22384110Y-10299650D01*
X22384110Y-10299650D02*
X22412682Y-10299650D01*
X22412682Y-10299650D02*
X22431730Y-10309174D01*
X22431730Y-10309174D02*
X22441253Y-10318698D01*
X22441253Y-10318698D02*
X22450777Y-10337746D01*
X22450777Y-10337746D02*
X22450777Y-10394889D01*
X22450777Y-10394889D02*
X22441253Y-10413936D01*
X22441253Y-10413936D02*
X22431730Y-10423460D01*
X22431730Y-10423460D02*
X22412682Y-10432984D01*
X22412682Y-10432984D02*
X22384110Y-10432984D01*
X22565063Y-10432984D02*
X22546015Y-10423460D01*
X22546015Y-10423460D02*
X22536491Y-10404412D01*
X22536491Y-10404412D02*
X22536491Y-10232984D01*
X22717444Y-10423460D02*
X22698396Y-10432984D01*
X22698396Y-10432984D02*
X22660301Y-10432984D01*
X22660301Y-10432984D02*
X22641253Y-10423460D01*
X22641253Y-10423460D02*
X22631730Y-10404412D01*
X22631730Y-10404412D02*
X22631730Y-10328222D01*
X22631730Y-10328222D02*
X22641253Y-10309174D01*
X22641253Y-10309174D02*
X22660301Y-10299650D01*
X22660301Y-10299650D02*
X22698396Y-10299650D01*
X22698396Y-10299650D02*
X22717444Y-10309174D01*
X22717444Y-10309174D02*
X22726968Y-10328222D01*
X22726968Y-10328222D02*
X22726968Y-10347270D01*
X22726968Y-10347270D02*
X22631730Y-10366317D01*
X22803158Y-10423460D02*
X22822206Y-10432984D01*
X22822206Y-10432984D02*
X22860301Y-10432984D01*
X22860301Y-10432984D02*
X22879349Y-10423460D01*
X22879349Y-10423460D02*
X22888872Y-10404412D01*
X22888872Y-10404412D02*
X22888872Y-10394889D01*
X22888872Y-10394889D02*
X22879349Y-10375841D01*
X22879349Y-10375841D02*
X22860301Y-10366317D01*
X22860301Y-10366317D02*
X22831730Y-10366317D01*
X22831730Y-10366317D02*
X22812682Y-10356793D01*
X22812682Y-10356793D02*
X22803158Y-10337746D01*
X22803158Y-10337746D02*
X22803158Y-10328222D01*
X22803158Y-10328222D02*
X22812682Y-10309174D01*
X22812682Y-10309174D02*
X22831730Y-10299650D01*
X22831730Y-10299650D02*
X22860301Y-10299650D01*
X22860301Y-10299650D02*
X22879349Y-10309174D01*
X22955539Y-10509174D02*
X22965063Y-10499650D01*
X22965063Y-10499650D02*
X22984111Y-10471079D01*
X22984111Y-10471079D02*
X22993634Y-10452031D01*
X22993634Y-10452031D02*
X23003158Y-10423460D01*
X23003158Y-10423460D02*
X23012682Y-10375841D01*
X23012682Y-10375841D02*
X23012682Y-10337746D01*
X23012682Y-10337746D02*
X23003158Y-10290127D01*
X23003158Y-10290127D02*
X22993634Y-10261555D01*
X22993634Y-10261555D02*
X22984111Y-10242508D01*
X22984111Y-10242508D02*
X22965063Y-10213936D01*
X22965063Y-10213936D02*
X22955539Y-10204412D01*
D11*
X17940000Y-10555500D02*
X17940000Y-10655500D01*
X17890000Y-10605500D02*
X17990000Y-10605500D01*
D10*
X18355539Y-10696984D02*
X18241253Y-10696984D01*
X18298396Y-10696984D02*
X18298396Y-10496984D01*
X18298396Y-10496984D02*
X18279348Y-10525555D01*
X18279348Y-10525555D02*
X18260301Y-10544603D01*
X18260301Y-10544603D02*
X18241253Y-10554127D01*
X18441253Y-10677936D02*
X18450777Y-10687460D01*
X18450777Y-10687460D02*
X18441253Y-10696984D01*
X18441253Y-10696984D02*
X18431729Y-10687460D01*
X18431729Y-10687460D02*
X18441253Y-10677936D01*
X18441253Y-10677936D02*
X18441253Y-10696984D01*
X18574586Y-10496984D02*
X18593634Y-10496984D01*
X18593634Y-10496984D02*
X18612682Y-10506508D01*
X18612682Y-10506508D02*
X18622205Y-10516031D01*
X18622205Y-10516031D02*
X18631729Y-10535079D01*
X18631729Y-10535079D02*
X18641253Y-10573174D01*
X18641253Y-10573174D02*
X18641253Y-10620793D01*
X18641253Y-10620793D02*
X18631729Y-10658889D01*
X18631729Y-10658889D02*
X18622205Y-10677936D01*
X18622205Y-10677936D02*
X18612682Y-10687460D01*
X18612682Y-10687460D02*
X18593634Y-10696984D01*
X18593634Y-10696984D02*
X18574586Y-10696984D01*
X18574586Y-10696984D02*
X18555539Y-10687460D01*
X18555539Y-10687460D02*
X18546015Y-10677936D01*
X18546015Y-10677936D02*
X18536491Y-10658889D01*
X18536491Y-10658889D02*
X18526967Y-10620793D01*
X18526967Y-10620793D02*
X18526967Y-10573174D01*
X18526967Y-10573174D02*
X18536491Y-10535079D01*
X18536491Y-10535079D02*
X18546015Y-10516031D01*
X18546015Y-10516031D02*
X18555539Y-10506508D01*
X18555539Y-10506508D02*
X18574586Y-10496984D01*
X18765063Y-10496984D02*
X18784110Y-10496984D01*
X18784110Y-10496984D02*
X18803158Y-10506508D01*
X18803158Y-10506508D02*
X18812682Y-10516031D01*
X18812682Y-10516031D02*
X18822205Y-10535079D01*
X18822205Y-10535079D02*
X18831729Y-10573174D01*
X18831729Y-10573174D02*
X18831729Y-10620793D01*
X18831729Y-10620793D02*
X18822205Y-10658889D01*
X18822205Y-10658889D02*
X18812682Y-10677936D01*
X18812682Y-10677936D02*
X18803158Y-10687460D01*
X18803158Y-10687460D02*
X18784110Y-10696984D01*
X18784110Y-10696984D02*
X18765063Y-10696984D01*
X18765063Y-10696984D02*
X18746015Y-10687460D01*
X18746015Y-10687460D02*
X18736491Y-10677936D01*
X18736491Y-10677936D02*
X18726967Y-10658889D01*
X18726967Y-10658889D02*
X18717444Y-10620793D01*
X18717444Y-10620793D02*
X18717444Y-10573174D01*
X18717444Y-10573174D02*
X18726967Y-10535079D01*
X18726967Y-10535079D02*
X18736491Y-10516031D01*
X18736491Y-10516031D02*
X18746015Y-10506508D01*
X18746015Y-10506508D02*
X18765063Y-10496984D01*
X18955539Y-10496984D02*
X18974586Y-10496984D01*
X18974586Y-10496984D02*
X18993634Y-10506508D01*
X18993634Y-10506508D02*
X19003158Y-10516031D01*
X19003158Y-10516031D02*
X19012682Y-10535079D01*
X19012682Y-10535079D02*
X19022205Y-10573174D01*
X19022205Y-10573174D02*
X19022205Y-10620793D01*
X19022205Y-10620793D02*
X19012682Y-10658889D01*
X19012682Y-10658889D02*
X19003158Y-10677936D01*
X19003158Y-10677936D02*
X18993634Y-10687460D01*
X18993634Y-10687460D02*
X18974586Y-10696984D01*
X18974586Y-10696984D02*
X18955539Y-10696984D01*
X18955539Y-10696984D02*
X18936491Y-10687460D01*
X18936491Y-10687460D02*
X18926967Y-10677936D01*
X18926967Y-10677936D02*
X18917444Y-10658889D01*
X18917444Y-10658889D02*
X18907920Y-10620793D01*
X18907920Y-10620793D02*
X18907920Y-10573174D01*
X18907920Y-10573174D02*
X18917444Y-10535079D01*
X18917444Y-10535079D02*
X18926967Y-10516031D01*
X18926967Y-10516031D02*
X18936491Y-10506508D01*
X18936491Y-10506508D02*
X18955539Y-10496984D01*
X19107920Y-10696984D02*
X19107920Y-10563650D01*
X19107920Y-10582698D02*
X19117444Y-10573174D01*
X19117444Y-10573174D02*
X19136491Y-10563650D01*
X19136491Y-10563650D02*
X19165063Y-10563650D01*
X19165063Y-10563650D02*
X19184110Y-10573174D01*
X19184110Y-10573174D02*
X19193634Y-10592222D01*
X19193634Y-10592222D02*
X19193634Y-10696984D01*
X19193634Y-10592222D02*
X19203158Y-10573174D01*
X19203158Y-10573174D02*
X19222205Y-10563650D01*
X19222205Y-10563650D02*
X19250777Y-10563650D01*
X19250777Y-10563650D02*
X19269825Y-10573174D01*
X19269825Y-10573174D02*
X19279348Y-10592222D01*
X19279348Y-10592222D02*
X19279348Y-10696984D01*
X19374586Y-10696984D02*
X19374586Y-10563650D01*
X19374586Y-10582698D02*
X19384110Y-10573174D01*
X19384110Y-10573174D02*
X19403158Y-10563650D01*
X19403158Y-10563650D02*
X19431729Y-10563650D01*
X19431729Y-10563650D02*
X19450777Y-10573174D01*
X19450777Y-10573174D02*
X19460301Y-10592222D01*
X19460301Y-10592222D02*
X19460301Y-10696984D01*
X19460301Y-10592222D02*
X19469825Y-10573174D01*
X19469825Y-10573174D02*
X19488872Y-10563650D01*
X19488872Y-10563650D02*
X19517444Y-10563650D01*
X19517444Y-10563650D02*
X19536491Y-10573174D01*
X19536491Y-10573174D02*
X19546015Y-10592222D01*
X19546015Y-10592222D02*
X19546015Y-10696984D01*
X19936491Y-10487460D02*
X19765063Y-10744603D01*
X20193634Y-10496984D02*
X20212682Y-10496984D01*
X20212682Y-10496984D02*
X20231729Y-10506508D01*
X20231729Y-10506508D02*
X20241253Y-10516031D01*
X20241253Y-10516031D02*
X20250777Y-10535079D01*
X20250777Y-10535079D02*
X20260301Y-10573174D01*
X20260301Y-10573174D02*
X20260301Y-10620793D01*
X20260301Y-10620793D02*
X20250777Y-10658889D01*
X20250777Y-10658889D02*
X20241253Y-10677936D01*
X20241253Y-10677936D02*
X20231729Y-10687460D01*
X20231729Y-10687460D02*
X20212682Y-10696984D01*
X20212682Y-10696984D02*
X20193634Y-10696984D01*
X20193634Y-10696984D02*
X20174587Y-10687460D01*
X20174587Y-10687460D02*
X20165063Y-10677936D01*
X20165063Y-10677936D02*
X20155539Y-10658889D01*
X20155539Y-10658889D02*
X20146015Y-10620793D01*
X20146015Y-10620793D02*
X20146015Y-10573174D01*
X20146015Y-10573174D02*
X20155539Y-10535079D01*
X20155539Y-10535079D02*
X20165063Y-10516031D01*
X20165063Y-10516031D02*
X20174587Y-10506508D01*
X20174587Y-10506508D02*
X20193634Y-10496984D01*
X20346015Y-10677936D02*
X20355539Y-10687460D01*
X20355539Y-10687460D02*
X20346015Y-10696984D01*
X20346015Y-10696984D02*
X20336491Y-10687460D01*
X20336491Y-10687460D02*
X20346015Y-10677936D01*
X20346015Y-10677936D02*
X20346015Y-10696984D01*
X20479348Y-10496984D02*
X20498396Y-10496984D01*
X20498396Y-10496984D02*
X20517444Y-10506508D01*
X20517444Y-10506508D02*
X20526968Y-10516031D01*
X20526968Y-10516031D02*
X20536491Y-10535079D01*
X20536491Y-10535079D02*
X20546015Y-10573174D01*
X20546015Y-10573174D02*
X20546015Y-10620793D01*
X20546015Y-10620793D02*
X20536491Y-10658889D01*
X20536491Y-10658889D02*
X20526968Y-10677936D01*
X20526968Y-10677936D02*
X20517444Y-10687460D01*
X20517444Y-10687460D02*
X20498396Y-10696984D01*
X20498396Y-10696984D02*
X20479348Y-10696984D01*
X20479348Y-10696984D02*
X20460301Y-10687460D01*
X20460301Y-10687460D02*
X20450777Y-10677936D01*
X20450777Y-10677936D02*
X20441253Y-10658889D01*
X20441253Y-10658889D02*
X20431729Y-10620793D01*
X20431729Y-10620793D02*
X20431729Y-10573174D01*
X20431729Y-10573174D02*
X20441253Y-10535079D01*
X20441253Y-10535079D02*
X20450777Y-10516031D01*
X20450777Y-10516031D02*
X20460301Y-10506508D01*
X20460301Y-10506508D02*
X20479348Y-10496984D01*
X20612682Y-10496984D02*
X20736491Y-10496984D01*
X20736491Y-10496984D02*
X20669825Y-10573174D01*
X20669825Y-10573174D02*
X20698396Y-10573174D01*
X20698396Y-10573174D02*
X20717444Y-10582698D01*
X20717444Y-10582698D02*
X20726968Y-10592222D01*
X20726968Y-10592222D02*
X20736491Y-10611270D01*
X20736491Y-10611270D02*
X20736491Y-10658889D01*
X20736491Y-10658889D02*
X20726968Y-10677936D01*
X20726968Y-10677936D02*
X20717444Y-10687460D01*
X20717444Y-10687460D02*
X20698396Y-10696984D01*
X20698396Y-10696984D02*
X20641253Y-10696984D01*
X20641253Y-10696984D02*
X20622206Y-10687460D01*
X20622206Y-10687460D02*
X20612682Y-10677936D01*
X20831729Y-10696984D02*
X20869825Y-10696984D01*
X20869825Y-10696984D02*
X20888872Y-10687460D01*
X20888872Y-10687460D02*
X20898396Y-10677936D01*
X20898396Y-10677936D02*
X20917444Y-10649365D01*
X20917444Y-10649365D02*
X20926968Y-10611270D01*
X20926968Y-10611270D02*
X20926968Y-10535079D01*
X20926968Y-10535079D02*
X20917444Y-10516031D01*
X20917444Y-10516031D02*
X20907920Y-10506508D01*
X20907920Y-10506508D02*
X20888872Y-10496984D01*
X20888872Y-10496984D02*
X20850777Y-10496984D01*
X20850777Y-10496984D02*
X20831729Y-10506508D01*
X20831729Y-10506508D02*
X20822206Y-10516031D01*
X20822206Y-10516031D02*
X20812682Y-10535079D01*
X20812682Y-10535079D02*
X20812682Y-10582698D01*
X20812682Y-10582698D02*
X20822206Y-10601746D01*
X20822206Y-10601746D02*
X20831729Y-10611270D01*
X20831729Y-10611270D02*
X20850777Y-10620793D01*
X20850777Y-10620793D02*
X20888872Y-10620793D01*
X20888872Y-10620793D02*
X20907920Y-10611270D01*
X20907920Y-10611270D02*
X20917444Y-10601746D01*
X20917444Y-10601746D02*
X20926968Y-10582698D01*
X21098396Y-10563650D02*
X21098396Y-10696984D01*
X21050777Y-10487460D02*
X21003158Y-10630317D01*
X21003158Y-10630317D02*
X21126968Y-10630317D01*
X21193634Y-10496984D02*
X21193634Y-10535079D01*
X21269825Y-10496984D02*
X21269825Y-10535079D01*
X21565063Y-10773174D02*
X21555539Y-10763650D01*
X21555539Y-10763650D02*
X21536491Y-10735079D01*
X21536491Y-10735079D02*
X21526968Y-10716031D01*
X21526968Y-10716031D02*
X21517444Y-10687460D01*
X21517444Y-10687460D02*
X21507920Y-10639841D01*
X21507920Y-10639841D02*
X21507920Y-10601746D01*
X21507920Y-10601746D02*
X21517444Y-10554127D01*
X21517444Y-10554127D02*
X21526968Y-10525555D01*
X21526968Y-10525555D02*
X21536491Y-10506508D01*
X21536491Y-10506508D02*
X21555539Y-10477936D01*
X21555539Y-10477936D02*
X21565063Y-10468412D01*
X21746015Y-10696984D02*
X21631730Y-10696984D01*
X21688872Y-10696984D02*
X21688872Y-10496984D01*
X21688872Y-10496984D02*
X21669825Y-10525555D01*
X21669825Y-10525555D02*
X21650777Y-10544603D01*
X21650777Y-10544603D02*
X21631730Y-10554127D01*
X21869825Y-10496984D02*
X21888872Y-10496984D01*
X21888872Y-10496984D02*
X21907920Y-10506508D01*
X21907920Y-10506508D02*
X21917444Y-10516031D01*
X21917444Y-10516031D02*
X21926968Y-10535079D01*
X21926968Y-10535079D02*
X21936491Y-10573174D01*
X21936491Y-10573174D02*
X21936491Y-10620793D01*
X21936491Y-10620793D02*
X21926968Y-10658889D01*
X21926968Y-10658889D02*
X21917444Y-10677936D01*
X21917444Y-10677936D02*
X21907920Y-10687460D01*
X21907920Y-10687460D02*
X21888872Y-10696984D01*
X21888872Y-10696984D02*
X21869825Y-10696984D01*
X21869825Y-10696984D02*
X21850777Y-10687460D01*
X21850777Y-10687460D02*
X21841253Y-10677936D01*
X21841253Y-10677936D02*
X21831730Y-10658889D01*
X21831730Y-10658889D02*
X21822206Y-10620793D01*
X21822206Y-10620793D02*
X21822206Y-10573174D01*
X21822206Y-10573174D02*
X21831730Y-10535079D01*
X21831730Y-10535079D02*
X21841253Y-10516031D01*
X21841253Y-10516031D02*
X21850777Y-10506508D01*
X21850777Y-10506508D02*
X21869825Y-10496984D01*
X22174587Y-10696984D02*
X22174587Y-10496984D01*
X22260301Y-10696984D02*
X22260301Y-10592222D01*
X22260301Y-10592222D02*
X22250777Y-10573174D01*
X22250777Y-10573174D02*
X22231730Y-10563650D01*
X22231730Y-10563650D02*
X22203158Y-10563650D01*
X22203158Y-10563650D02*
X22184111Y-10573174D01*
X22184111Y-10573174D02*
X22174587Y-10582698D01*
X22384110Y-10696984D02*
X22365063Y-10687460D01*
X22365063Y-10687460D02*
X22355539Y-10677936D01*
X22355539Y-10677936D02*
X22346015Y-10658889D01*
X22346015Y-10658889D02*
X22346015Y-10601746D01*
X22346015Y-10601746D02*
X22355539Y-10582698D01*
X22355539Y-10582698D02*
X22365063Y-10573174D01*
X22365063Y-10573174D02*
X22384110Y-10563650D01*
X22384110Y-10563650D02*
X22412682Y-10563650D01*
X22412682Y-10563650D02*
X22431730Y-10573174D01*
X22431730Y-10573174D02*
X22441253Y-10582698D01*
X22441253Y-10582698D02*
X22450777Y-10601746D01*
X22450777Y-10601746D02*
X22450777Y-10658889D01*
X22450777Y-10658889D02*
X22441253Y-10677936D01*
X22441253Y-10677936D02*
X22431730Y-10687460D01*
X22431730Y-10687460D02*
X22412682Y-10696984D01*
X22412682Y-10696984D02*
X22384110Y-10696984D01*
X22565063Y-10696984D02*
X22546015Y-10687460D01*
X22546015Y-10687460D02*
X22536491Y-10668412D01*
X22536491Y-10668412D02*
X22536491Y-10496984D01*
X22717444Y-10687460D02*
X22698396Y-10696984D01*
X22698396Y-10696984D02*
X22660301Y-10696984D01*
X22660301Y-10696984D02*
X22641253Y-10687460D01*
X22641253Y-10687460D02*
X22631730Y-10668412D01*
X22631730Y-10668412D02*
X22631730Y-10592222D01*
X22631730Y-10592222D02*
X22641253Y-10573174D01*
X22641253Y-10573174D02*
X22660301Y-10563650D01*
X22660301Y-10563650D02*
X22698396Y-10563650D01*
X22698396Y-10563650D02*
X22717444Y-10573174D01*
X22717444Y-10573174D02*
X22726968Y-10592222D01*
X22726968Y-10592222D02*
X22726968Y-10611270D01*
X22726968Y-10611270D02*
X22631730Y-10630317D01*
X22803158Y-10687460D02*
X22822206Y-10696984D01*
X22822206Y-10696984D02*
X22860301Y-10696984D01*
X22860301Y-10696984D02*
X22879349Y-10687460D01*
X22879349Y-10687460D02*
X22888872Y-10668412D01*
X22888872Y-10668412D02*
X22888872Y-10658889D01*
X22888872Y-10658889D02*
X22879349Y-10639841D01*
X22879349Y-10639841D02*
X22860301Y-10630317D01*
X22860301Y-10630317D02*
X22831730Y-10630317D01*
X22831730Y-10630317D02*
X22812682Y-10620793D01*
X22812682Y-10620793D02*
X22803158Y-10601746D01*
X22803158Y-10601746D02*
X22803158Y-10592222D01*
X22803158Y-10592222D02*
X22812682Y-10573174D01*
X22812682Y-10573174D02*
X22831730Y-10563650D01*
X22831730Y-10563650D02*
X22860301Y-10563650D01*
X22860301Y-10563650D02*
X22879349Y-10573174D01*
X22955539Y-10773174D02*
X22965063Y-10763650D01*
X22965063Y-10763650D02*
X22984111Y-10735079D01*
X22984111Y-10735079D02*
X22993634Y-10716031D01*
X22993634Y-10716031D02*
X23003158Y-10687460D01*
X23003158Y-10687460D02*
X23012682Y-10639841D01*
X23012682Y-10639841D02*
X23012682Y-10601746D01*
X23012682Y-10601746D02*
X23003158Y-10554127D01*
X23003158Y-10554127D02*
X22993634Y-10525555D01*
X22993634Y-10525555D02*
X22984111Y-10506508D01*
X22984111Y-10506508D02*
X22965063Y-10477936D01*
X22965063Y-10477936D02*
X22955539Y-10468412D01*
D12*
X17975121Y-10905421D02*
X17975121Y-10833579D01*
X17903279Y-10833579D01*
X17903279Y-10905421D01*
X17975121Y-10905421D01*
D10*
X18355539Y-10960984D02*
X18241253Y-10960984D01*
X18298396Y-10960984D02*
X18298396Y-10760984D01*
X18298396Y-10760984D02*
X18279348Y-10789555D01*
X18279348Y-10789555D02*
X18260301Y-10808603D01*
X18260301Y-10808603D02*
X18241253Y-10818127D01*
X18441253Y-10941936D02*
X18450777Y-10951460D01*
X18450777Y-10951460D02*
X18441253Y-10960984D01*
X18441253Y-10960984D02*
X18431729Y-10951460D01*
X18431729Y-10951460D02*
X18441253Y-10941936D01*
X18441253Y-10941936D02*
X18441253Y-10960984D01*
X18574586Y-10760984D02*
X18593634Y-10760984D01*
X18593634Y-10760984D02*
X18612682Y-10770508D01*
X18612682Y-10770508D02*
X18622205Y-10780031D01*
X18622205Y-10780031D02*
X18631729Y-10799079D01*
X18631729Y-10799079D02*
X18641253Y-10837174D01*
X18641253Y-10837174D02*
X18641253Y-10884793D01*
X18641253Y-10884793D02*
X18631729Y-10922889D01*
X18631729Y-10922889D02*
X18622205Y-10941936D01*
X18622205Y-10941936D02*
X18612682Y-10951460D01*
X18612682Y-10951460D02*
X18593634Y-10960984D01*
X18593634Y-10960984D02*
X18574586Y-10960984D01*
X18574586Y-10960984D02*
X18555539Y-10951460D01*
X18555539Y-10951460D02*
X18546015Y-10941936D01*
X18546015Y-10941936D02*
X18536491Y-10922889D01*
X18536491Y-10922889D02*
X18526967Y-10884793D01*
X18526967Y-10884793D02*
X18526967Y-10837174D01*
X18526967Y-10837174D02*
X18536491Y-10799079D01*
X18536491Y-10799079D02*
X18546015Y-10780031D01*
X18546015Y-10780031D02*
X18555539Y-10770508D01*
X18555539Y-10770508D02*
X18574586Y-10760984D01*
X18831729Y-10960984D02*
X18717444Y-10960984D01*
X18774586Y-10960984D02*
X18774586Y-10760984D01*
X18774586Y-10760984D02*
X18755539Y-10789555D01*
X18755539Y-10789555D02*
X18736491Y-10808603D01*
X18736491Y-10808603D02*
X18717444Y-10818127D01*
X19003158Y-10760984D02*
X18965063Y-10760984D01*
X18965063Y-10760984D02*
X18946015Y-10770508D01*
X18946015Y-10770508D02*
X18936491Y-10780031D01*
X18936491Y-10780031D02*
X18917444Y-10808603D01*
X18917444Y-10808603D02*
X18907920Y-10846698D01*
X18907920Y-10846698D02*
X18907920Y-10922889D01*
X18907920Y-10922889D02*
X18917444Y-10941936D01*
X18917444Y-10941936D02*
X18926967Y-10951460D01*
X18926967Y-10951460D02*
X18946015Y-10960984D01*
X18946015Y-10960984D02*
X18984110Y-10960984D01*
X18984110Y-10960984D02*
X19003158Y-10951460D01*
X19003158Y-10951460D02*
X19012682Y-10941936D01*
X19012682Y-10941936D02*
X19022205Y-10922889D01*
X19022205Y-10922889D02*
X19022205Y-10875270D01*
X19022205Y-10875270D02*
X19012682Y-10856222D01*
X19012682Y-10856222D02*
X19003158Y-10846698D01*
X19003158Y-10846698D02*
X18984110Y-10837174D01*
X18984110Y-10837174D02*
X18946015Y-10837174D01*
X18946015Y-10837174D02*
X18926967Y-10846698D01*
X18926967Y-10846698D02*
X18917444Y-10856222D01*
X18917444Y-10856222D02*
X18907920Y-10875270D01*
X19107920Y-10960984D02*
X19107920Y-10827650D01*
X19107920Y-10846698D02*
X19117444Y-10837174D01*
X19117444Y-10837174D02*
X19136491Y-10827650D01*
X19136491Y-10827650D02*
X19165063Y-10827650D01*
X19165063Y-10827650D02*
X19184110Y-10837174D01*
X19184110Y-10837174D02*
X19193634Y-10856222D01*
X19193634Y-10856222D02*
X19193634Y-10960984D01*
X19193634Y-10856222D02*
X19203158Y-10837174D01*
X19203158Y-10837174D02*
X19222205Y-10827650D01*
X19222205Y-10827650D02*
X19250777Y-10827650D01*
X19250777Y-10827650D02*
X19269825Y-10837174D01*
X19269825Y-10837174D02*
X19279348Y-10856222D01*
X19279348Y-10856222D02*
X19279348Y-10960984D01*
X19374586Y-10960984D02*
X19374586Y-10827650D01*
X19374586Y-10846698D02*
X19384110Y-10837174D01*
X19384110Y-10837174D02*
X19403158Y-10827650D01*
X19403158Y-10827650D02*
X19431729Y-10827650D01*
X19431729Y-10827650D02*
X19450777Y-10837174D01*
X19450777Y-10837174D02*
X19460301Y-10856222D01*
X19460301Y-10856222D02*
X19460301Y-10960984D01*
X19460301Y-10856222D02*
X19469825Y-10837174D01*
X19469825Y-10837174D02*
X19488872Y-10827650D01*
X19488872Y-10827650D02*
X19517444Y-10827650D01*
X19517444Y-10827650D02*
X19536491Y-10837174D01*
X19536491Y-10837174D02*
X19546015Y-10856222D01*
X19546015Y-10856222D02*
X19546015Y-10960984D01*
X19936491Y-10751460D02*
X19765063Y-11008603D01*
X20193634Y-10760984D02*
X20212682Y-10760984D01*
X20212682Y-10760984D02*
X20231729Y-10770508D01*
X20231729Y-10770508D02*
X20241253Y-10780031D01*
X20241253Y-10780031D02*
X20250777Y-10799079D01*
X20250777Y-10799079D02*
X20260301Y-10837174D01*
X20260301Y-10837174D02*
X20260301Y-10884793D01*
X20260301Y-10884793D02*
X20250777Y-10922889D01*
X20250777Y-10922889D02*
X20241253Y-10941936D01*
X20241253Y-10941936D02*
X20231729Y-10951460D01*
X20231729Y-10951460D02*
X20212682Y-10960984D01*
X20212682Y-10960984D02*
X20193634Y-10960984D01*
X20193634Y-10960984D02*
X20174587Y-10951460D01*
X20174587Y-10951460D02*
X20165063Y-10941936D01*
X20165063Y-10941936D02*
X20155539Y-10922889D01*
X20155539Y-10922889D02*
X20146015Y-10884793D01*
X20146015Y-10884793D02*
X20146015Y-10837174D01*
X20146015Y-10837174D02*
X20155539Y-10799079D01*
X20155539Y-10799079D02*
X20165063Y-10780031D01*
X20165063Y-10780031D02*
X20174587Y-10770508D01*
X20174587Y-10770508D02*
X20193634Y-10760984D01*
X20346015Y-10941936D02*
X20355539Y-10951460D01*
X20355539Y-10951460D02*
X20346015Y-10960984D01*
X20346015Y-10960984D02*
X20336491Y-10951460D01*
X20336491Y-10951460D02*
X20346015Y-10941936D01*
X20346015Y-10941936D02*
X20346015Y-10960984D01*
X20479348Y-10760984D02*
X20498396Y-10760984D01*
X20498396Y-10760984D02*
X20517444Y-10770508D01*
X20517444Y-10770508D02*
X20526968Y-10780031D01*
X20526968Y-10780031D02*
X20536491Y-10799079D01*
X20536491Y-10799079D02*
X20546015Y-10837174D01*
X20546015Y-10837174D02*
X20546015Y-10884793D01*
X20546015Y-10884793D02*
X20536491Y-10922889D01*
X20536491Y-10922889D02*
X20526968Y-10941936D01*
X20526968Y-10941936D02*
X20517444Y-10951460D01*
X20517444Y-10951460D02*
X20498396Y-10960984D01*
X20498396Y-10960984D02*
X20479348Y-10960984D01*
X20479348Y-10960984D02*
X20460301Y-10951460D01*
X20460301Y-10951460D02*
X20450777Y-10941936D01*
X20450777Y-10941936D02*
X20441253Y-10922889D01*
X20441253Y-10922889D02*
X20431729Y-10884793D01*
X20431729Y-10884793D02*
X20431729Y-10837174D01*
X20431729Y-10837174D02*
X20441253Y-10799079D01*
X20441253Y-10799079D02*
X20450777Y-10780031D01*
X20450777Y-10780031D02*
X20460301Y-10770508D01*
X20460301Y-10770508D02*
X20479348Y-10760984D01*
X20717444Y-10827650D02*
X20717444Y-10960984D01*
X20669825Y-10751460D02*
X20622206Y-10894317D01*
X20622206Y-10894317D02*
X20746015Y-10894317D01*
X20860301Y-10760984D02*
X20879349Y-10760984D01*
X20879349Y-10760984D02*
X20898396Y-10770508D01*
X20898396Y-10770508D02*
X20907920Y-10780031D01*
X20907920Y-10780031D02*
X20917444Y-10799079D01*
X20917444Y-10799079D02*
X20926968Y-10837174D01*
X20926968Y-10837174D02*
X20926968Y-10884793D01*
X20926968Y-10884793D02*
X20917444Y-10922889D01*
X20917444Y-10922889D02*
X20907920Y-10941936D01*
X20907920Y-10941936D02*
X20898396Y-10951460D01*
X20898396Y-10951460D02*
X20879349Y-10960984D01*
X20879349Y-10960984D02*
X20860301Y-10960984D01*
X20860301Y-10960984D02*
X20841253Y-10951460D01*
X20841253Y-10951460D02*
X20831729Y-10941936D01*
X20831729Y-10941936D02*
X20822206Y-10922889D01*
X20822206Y-10922889D02*
X20812682Y-10884793D01*
X20812682Y-10884793D02*
X20812682Y-10837174D01*
X20812682Y-10837174D02*
X20822206Y-10799079D01*
X20822206Y-10799079D02*
X20831729Y-10780031D01*
X20831729Y-10780031D02*
X20841253Y-10770508D01*
X20841253Y-10770508D02*
X20860301Y-10760984D01*
X21050777Y-10760984D02*
X21069825Y-10760984D01*
X21069825Y-10760984D02*
X21088872Y-10770508D01*
X21088872Y-10770508D02*
X21098396Y-10780031D01*
X21098396Y-10780031D02*
X21107920Y-10799079D01*
X21107920Y-10799079D02*
X21117444Y-10837174D01*
X21117444Y-10837174D02*
X21117444Y-10884793D01*
X21117444Y-10884793D02*
X21107920Y-10922889D01*
X21107920Y-10922889D02*
X21098396Y-10941936D01*
X21098396Y-10941936D02*
X21088872Y-10951460D01*
X21088872Y-10951460D02*
X21069825Y-10960984D01*
X21069825Y-10960984D02*
X21050777Y-10960984D01*
X21050777Y-10960984D02*
X21031729Y-10951460D01*
X21031729Y-10951460D02*
X21022206Y-10941936D01*
X21022206Y-10941936D02*
X21012682Y-10922889D01*
X21012682Y-10922889D02*
X21003158Y-10884793D01*
X21003158Y-10884793D02*
X21003158Y-10837174D01*
X21003158Y-10837174D02*
X21012682Y-10799079D01*
X21012682Y-10799079D02*
X21022206Y-10780031D01*
X21022206Y-10780031D02*
X21031729Y-10770508D01*
X21031729Y-10770508D02*
X21050777Y-10760984D01*
X21193634Y-10760984D02*
X21193634Y-10799079D01*
X21269825Y-10760984D02*
X21269825Y-10799079D01*
X21565063Y-11037174D02*
X21555539Y-11027650D01*
X21555539Y-11027650D02*
X21536491Y-10999079D01*
X21536491Y-10999079D02*
X21526968Y-10980031D01*
X21526968Y-10980031D02*
X21517444Y-10951460D01*
X21517444Y-10951460D02*
X21507920Y-10903841D01*
X21507920Y-10903841D02*
X21507920Y-10865746D01*
X21507920Y-10865746D02*
X21517444Y-10818127D01*
X21517444Y-10818127D02*
X21526968Y-10789555D01*
X21526968Y-10789555D02*
X21536491Y-10770508D01*
X21536491Y-10770508D02*
X21555539Y-10741936D01*
X21555539Y-10741936D02*
X21565063Y-10732412D01*
X21669825Y-10846698D02*
X21650777Y-10837174D01*
X21650777Y-10837174D02*
X21641253Y-10827650D01*
X21641253Y-10827650D02*
X21631730Y-10808603D01*
X21631730Y-10808603D02*
X21631730Y-10799079D01*
X21631730Y-10799079D02*
X21641253Y-10780031D01*
X21641253Y-10780031D02*
X21650777Y-10770508D01*
X21650777Y-10770508D02*
X21669825Y-10760984D01*
X21669825Y-10760984D02*
X21707920Y-10760984D01*
X21707920Y-10760984D02*
X21726968Y-10770508D01*
X21726968Y-10770508D02*
X21736491Y-10780031D01*
X21736491Y-10780031D02*
X21746015Y-10799079D01*
X21746015Y-10799079D02*
X21746015Y-10808603D01*
X21746015Y-10808603D02*
X21736491Y-10827650D01*
X21736491Y-10827650D02*
X21726968Y-10837174D01*
X21726968Y-10837174D02*
X21707920Y-10846698D01*
X21707920Y-10846698D02*
X21669825Y-10846698D01*
X21669825Y-10846698D02*
X21650777Y-10856222D01*
X21650777Y-10856222D02*
X21641253Y-10865746D01*
X21641253Y-10865746D02*
X21631730Y-10884793D01*
X21631730Y-10884793D02*
X21631730Y-10922889D01*
X21631730Y-10922889D02*
X21641253Y-10941936D01*
X21641253Y-10941936D02*
X21650777Y-10951460D01*
X21650777Y-10951460D02*
X21669825Y-10960984D01*
X21669825Y-10960984D02*
X21707920Y-10960984D01*
X21707920Y-10960984D02*
X21726968Y-10951460D01*
X21726968Y-10951460D02*
X21736491Y-10941936D01*
X21736491Y-10941936D02*
X21746015Y-10922889D01*
X21746015Y-10922889D02*
X21746015Y-10884793D01*
X21746015Y-10884793D02*
X21736491Y-10865746D01*
X21736491Y-10865746D02*
X21726968Y-10856222D01*
X21726968Y-10856222D02*
X21707920Y-10846698D01*
X21984111Y-10960984D02*
X21984111Y-10760984D01*
X22069825Y-10960984D02*
X22069825Y-10856222D01*
X22069825Y-10856222D02*
X22060301Y-10837174D01*
X22060301Y-10837174D02*
X22041253Y-10827650D01*
X22041253Y-10827650D02*
X22012682Y-10827650D01*
X22012682Y-10827650D02*
X21993634Y-10837174D01*
X21993634Y-10837174D02*
X21984111Y-10846698D01*
X22193634Y-10960984D02*
X22174587Y-10951460D01*
X22174587Y-10951460D02*
X22165063Y-10941936D01*
X22165063Y-10941936D02*
X22155539Y-10922889D01*
X22155539Y-10922889D02*
X22155539Y-10865746D01*
X22155539Y-10865746D02*
X22165063Y-10846698D01*
X22165063Y-10846698D02*
X22174587Y-10837174D01*
X22174587Y-10837174D02*
X22193634Y-10827650D01*
X22193634Y-10827650D02*
X22222206Y-10827650D01*
X22222206Y-10827650D02*
X22241253Y-10837174D01*
X22241253Y-10837174D02*
X22250777Y-10846698D01*
X22250777Y-10846698D02*
X22260301Y-10865746D01*
X22260301Y-10865746D02*
X22260301Y-10922889D01*
X22260301Y-10922889D02*
X22250777Y-10941936D01*
X22250777Y-10941936D02*
X22241253Y-10951460D01*
X22241253Y-10951460D02*
X22222206Y-10960984D01*
X22222206Y-10960984D02*
X22193634Y-10960984D01*
X22374587Y-10960984D02*
X22355539Y-10951460D01*
X22355539Y-10951460D02*
X22346015Y-10932412D01*
X22346015Y-10932412D02*
X22346015Y-10760984D01*
X22526968Y-10951460D02*
X22507920Y-10960984D01*
X22507920Y-10960984D02*
X22469825Y-10960984D01*
X22469825Y-10960984D02*
X22450777Y-10951460D01*
X22450777Y-10951460D02*
X22441253Y-10932412D01*
X22441253Y-10932412D02*
X22441253Y-10856222D01*
X22441253Y-10856222D02*
X22450777Y-10837174D01*
X22450777Y-10837174D02*
X22469825Y-10827650D01*
X22469825Y-10827650D02*
X22507920Y-10827650D01*
X22507920Y-10827650D02*
X22526968Y-10837174D01*
X22526968Y-10837174D02*
X22536491Y-10856222D01*
X22536491Y-10856222D02*
X22536491Y-10875270D01*
X22536491Y-10875270D02*
X22441253Y-10894317D01*
X22612682Y-10951460D02*
X22631730Y-10960984D01*
X22631730Y-10960984D02*
X22669825Y-10960984D01*
X22669825Y-10960984D02*
X22688872Y-10951460D01*
X22688872Y-10951460D02*
X22698396Y-10932412D01*
X22698396Y-10932412D02*
X22698396Y-10922889D01*
X22698396Y-10922889D02*
X22688872Y-10903841D01*
X22688872Y-10903841D02*
X22669825Y-10894317D01*
X22669825Y-10894317D02*
X22641253Y-10894317D01*
X22641253Y-10894317D02*
X22622206Y-10884793D01*
X22622206Y-10884793D02*
X22612682Y-10865746D01*
X22612682Y-10865746D02*
X22612682Y-10856222D01*
X22612682Y-10856222D02*
X22622206Y-10837174D01*
X22622206Y-10837174D02*
X22641253Y-10827650D01*
X22641253Y-10827650D02*
X22669825Y-10827650D01*
X22669825Y-10827650D02*
X22688872Y-10837174D01*
X22765063Y-11037174D02*
X22774587Y-11027650D01*
X22774587Y-11027650D02*
X22793634Y-10999079D01*
X22793634Y-10999079D02*
X22803158Y-10980031D01*
X22803158Y-10980031D02*
X22812682Y-10951460D01*
X22812682Y-10951460D02*
X22822206Y-10903841D01*
X22822206Y-10903841D02*
X22822206Y-10865746D01*
X22822206Y-10865746D02*
X22812682Y-10818127D01*
X22812682Y-10818127D02*
X22803158Y-10789555D01*
X22803158Y-10789555D02*
X22793634Y-10770508D01*
X22793634Y-10770508D02*
X22774587Y-10741936D01*
X22774587Y-10741936D02*
X22765063Y-10732412D01*
D13*
X17930000Y-11193500D02*
X17990000Y-11133500D01*
X17930000Y-11073500D01*
X17870000Y-11133500D01*
X17930000Y-11193500D01*
D10*
X18355539Y-11224984D02*
X18241253Y-11224984D01*
X18298396Y-11224984D02*
X18298396Y-11024984D01*
X18298396Y-11024984D02*
X18279348Y-11053555D01*
X18279348Y-11053555D02*
X18260301Y-11072603D01*
X18260301Y-11072603D02*
X18241253Y-11082127D01*
X18441253Y-11205936D02*
X18450777Y-11215460D01*
X18450777Y-11215460D02*
X18441253Y-11224984D01*
X18441253Y-11224984D02*
X18431729Y-11215460D01*
X18431729Y-11215460D02*
X18441253Y-11205936D01*
X18441253Y-11205936D02*
X18441253Y-11224984D01*
X18526967Y-11044031D02*
X18536491Y-11034508D01*
X18536491Y-11034508D02*
X18555539Y-11024984D01*
X18555539Y-11024984D02*
X18603158Y-11024984D01*
X18603158Y-11024984D02*
X18622205Y-11034508D01*
X18622205Y-11034508D02*
X18631729Y-11044031D01*
X18631729Y-11044031D02*
X18641253Y-11063079D01*
X18641253Y-11063079D02*
X18641253Y-11082127D01*
X18641253Y-11082127D02*
X18631729Y-11110698D01*
X18631729Y-11110698D02*
X18517444Y-11224984D01*
X18517444Y-11224984D02*
X18641253Y-11224984D01*
X18765063Y-11024984D02*
X18784110Y-11024984D01*
X18784110Y-11024984D02*
X18803158Y-11034508D01*
X18803158Y-11034508D02*
X18812682Y-11044031D01*
X18812682Y-11044031D02*
X18822205Y-11063079D01*
X18822205Y-11063079D02*
X18831729Y-11101174D01*
X18831729Y-11101174D02*
X18831729Y-11148793D01*
X18831729Y-11148793D02*
X18822205Y-11186888D01*
X18822205Y-11186888D02*
X18812682Y-11205936D01*
X18812682Y-11205936D02*
X18803158Y-11215460D01*
X18803158Y-11215460D02*
X18784110Y-11224984D01*
X18784110Y-11224984D02*
X18765063Y-11224984D01*
X18765063Y-11224984D02*
X18746015Y-11215460D01*
X18746015Y-11215460D02*
X18736491Y-11205936D01*
X18736491Y-11205936D02*
X18726967Y-11186888D01*
X18726967Y-11186888D02*
X18717444Y-11148793D01*
X18717444Y-11148793D02*
X18717444Y-11101174D01*
X18717444Y-11101174D02*
X18726967Y-11063079D01*
X18726967Y-11063079D02*
X18736491Y-11044031D01*
X18736491Y-11044031D02*
X18746015Y-11034508D01*
X18746015Y-11034508D02*
X18765063Y-11024984D01*
X18955539Y-11024984D02*
X18974586Y-11024984D01*
X18974586Y-11024984D02*
X18993634Y-11034508D01*
X18993634Y-11034508D02*
X19003158Y-11044031D01*
X19003158Y-11044031D02*
X19012682Y-11063079D01*
X19012682Y-11063079D02*
X19022205Y-11101174D01*
X19022205Y-11101174D02*
X19022205Y-11148793D01*
X19022205Y-11148793D02*
X19012682Y-11186888D01*
X19012682Y-11186888D02*
X19003158Y-11205936D01*
X19003158Y-11205936D02*
X18993634Y-11215460D01*
X18993634Y-11215460D02*
X18974586Y-11224984D01*
X18974586Y-11224984D02*
X18955539Y-11224984D01*
X18955539Y-11224984D02*
X18936491Y-11215460D01*
X18936491Y-11215460D02*
X18926967Y-11205936D01*
X18926967Y-11205936D02*
X18917444Y-11186888D01*
X18917444Y-11186888D02*
X18907920Y-11148793D01*
X18907920Y-11148793D02*
X18907920Y-11101174D01*
X18907920Y-11101174D02*
X18917444Y-11063079D01*
X18917444Y-11063079D02*
X18926967Y-11044031D01*
X18926967Y-11044031D02*
X18936491Y-11034508D01*
X18936491Y-11034508D02*
X18955539Y-11024984D01*
X19107920Y-11224984D02*
X19107920Y-11091650D01*
X19107920Y-11110698D02*
X19117444Y-11101174D01*
X19117444Y-11101174D02*
X19136491Y-11091650D01*
X19136491Y-11091650D02*
X19165063Y-11091650D01*
X19165063Y-11091650D02*
X19184110Y-11101174D01*
X19184110Y-11101174D02*
X19193634Y-11120222D01*
X19193634Y-11120222D02*
X19193634Y-11224984D01*
X19193634Y-11120222D02*
X19203158Y-11101174D01*
X19203158Y-11101174D02*
X19222205Y-11091650D01*
X19222205Y-11091650D02*
X19250777Y-11091650D01*
X19250777Y-11091650D02*
X19269825Y-11101174D01*
X19269825Y-11101174D02*
X19279348Y-11120222D01*
X19279348Y-11120222D02*
X19279348Y-11224984D01*
X19374586Y-11224984D02*
X19374586Y-11091650D01*
X19374586Y-11110698D02*
X19384110Y-11101174D01*
X19384110Y-11101174D02*
X19403158Y-11091650D01*
X19403158Y-11091650D02*
X19431729Y-11091650D01*
X19431729Y-11091650D02*
X19450777Y-11101174D01*
X19450777Y-11101174D02*
X19460301Y-11120222D01*
X19460301Y-11120222D02*
X19460301Y-11224984D01*
X19460301Y-11120222D02*
X19469825Y-11101174D01*
X19469825Y-11101174D02*
X19488872Y-11091650D01*
X19488872Y-11091650D02*
X19517444Y-11091650D01*
X19517444Y-11091650D02*
X19536491Y-11101174D01*
X19536491Y-11101174D02*
X19546015Y-11120222D01*
X19546015Y-11120222D02*
X19546015Y-11224984D01*
X19936491Y-11015460D02*
X19765063Y-11272603D01*
X20193634Y-11024984D02*
X20212682Y-11024984D01*
X20212682Y-11024984D02*
X20231729Y-11034508D01*
X20231729Y-11034508D02*
X20241253Y-11044031D01*
X20241253Y-11044031D02*
X20250777Y-11063079D01*
X20250777Y-11063079D02*
X20260301Y-11101174D01*
X20260301Y-11101174D02*
X20260301Y-11148793D01*
X20260301Y-11148793D02*
X20250777Y-11186888D01*
X20250777Y-11186888D02*
X20241253Y-11205936D01*
X20241253Y-11205936D02*
X20231729Y-11215460D01*
X20231729Y-11215460D02*
X20212682Y-11224984D01*
X20212682Y-11224984D02*
X20193634Y-11224984D01*
X20193634Y-11224984D02*
X20174587Y-11215460D01*
X20174587Y-11215460D02*
X20165063Y-11205936D01*
X20165063Y-11205936D02*
X20155539Y-11186888D01*
X20155539Y-11186888D02*
X20146015Y-11148793D01*
X20146015Y-11148793D02*
X20146015Y-11101174D01*
X20146015Y-11101174D02*
X20155539Y-11063079D01*
X20155539Y-11063079D02*
X20165063Y-11044031D01*
X20165063Y-11044031D02*
X20174587Y-11034508D01*
X20174587Y-11034508D02*
X20193634Y-11024984D01*
X20346015Y-11205936D02*
X20355539Y-11215460D01*
X20355539Y-11215460D02*
X20346015Y-11224984D01*
X20346015Y-11224984D02*
X20336491Y-11215460D01*
X20336491Y-11215460D02*
X20346015Y-11205936D01*
X20346015Y-11205936D02*
X20346015Y-11224984D01*
X20479348Y-11024984D02*
X20498396Y-11024984D01*
X20498396Y-11024984D02*
X20517444Y-11034508D01*
X20517444Y-11034508D02*
X20526968Y-11044031D01*
X20526968Y-11044031D02*
X20536491Y-11063079D01*
X20536491Y-11063079D02*
X20546015Y-11101174D01*
X20546015Y-11101174D02*
X20546015Y-11148793D01*
X20546015Y-11148793D02*
X20536491Y-11186888D01*
X20536491Y-11186888D02*
X20526968Y-11205936D01*
X20526968Y-11205936D02*
X20517444Y-11215460D01*
X20517444Y-11215460D02*
X20498396Y-11224984D01*
X20498396Y-11224984D02*
X20479348Y-11224984D01*
X20479348Y-11224984D02*
X20460301Y-11215460D01*
X20460301Y-11215460D02*
X20450777Y-11205936D01*
X20450777Y-11205936D02*
X20441253Y-11186888D01*
X20441253Y-11186888D02*
X20431729Y-11148793D01*
X20431729Y-11148793D02*
X20431729Y-11101174D01*
X20431729Y-11101174D02*
X20441253Y-11063079D01*
X20441253Y-11063079D02*
X20450777Y-11044031D01*
X20450777Y-11044031D02*
X20460301Y-11034508D01*
X20460301Y-11034508D02*
X20479348Y-11024984D01*
X20717444Y-11091650D02*
X20717444Y-11224984D01*
X20669825Y-11015460D02*
X20622206Y-11158317D01*
X20622206Y-11158317D02*
X20746015Y-11158317D01*
X20803158Y-11024984D02*
X20936491Y-11024984D01*
X20936491Y-11024984D02*
X20850777Y-11224984D01*
X21003158Y-11044031D02*
X21012682Y-11034508D01*
X21012682Y-11034508D02*
X21031729Y-11024984D01*
X21031729Y-11024984D02*
X21079349Y-11024984D01*
X21079349Y-11024984D02*
X21098396Y-11034508D01*
X21098396Y-11034508D02*
X21107920Y-11044031D01*
X21107920Y-11044031D02*
X21117444Y-11063079D01*
X21117444Y-11063079D02*
X21117444Y-11082127D01*
X21117444Y-11082127D02*
X21107920Y-11110698D01*
X21107920Y-11110698D02*
X20993634Y-11224984D01*
X20993634Y-11224984D02*
X21117444Y-11224984D01*
X21193634Y-11024984D02*
X21193634Y-11063079D01*
X21269825Y-11024984D02*
X21269825Y-11063079D01*
X21565063Y-11301174D02*
X21555539Y-11291650D01*
X21555539Y-11291650D02*
X21536491Y-11263079D01*
X21536491Y-11263079D02*
X21526968Y-11244031D01*
X21526968Y-11244031D02*
X21517444Y-11215460D01*
X21517444Y-11215460D02*
X21507920Y-11167841D01*
X21507920Y-11167841D02*
X21507920Y-11129746D01*
X21507920Y-11129746D02*
X21517444Y-11082127D01*
X21517444Y-11082127D02*
X21526968Y-11053555D01*
X21526968Y-11053555D02*
X21536491Y-11034508D01*
X21536491Y-11034508D02*
X21555539Y-11005936D01*
X21555539Y-11005936D02*
X21565063Y-10996412D01*
X21726968Y-11091650D02*
X21726968Y-11224984D01*
X21679349Y-11015460D02*
X21631730Y-11158317D01*
X21631730Y-11158317D02*
X21755539Y-11158317D01*
X21984111Y-11224984D02*
X21984111Y-11024984D01*
X22069825Y-11224984D02*
X22069825Y-11120222D01*
X22069825Y-11120222D02*
X22060301Y-11101174D01*
X22060301Y-11101174D02*
X22041253Y-11091650D01*
X22041253Y-11091650D02*
X22012682Y-11091650D01*
X22012682Y-11091650D02*
X21993634Y-11101174D01*
X21993634Y-11101174D02*
X21984111Y-11110698D01*
X22193634Y-11224984D02*
X22174587Y-11215460D01*
X22174587Y-11215460D02*
X22165063Y-11205936D01*
X22165063Y-11205936D02*
X22155539Y-11186888D01*
X22155539Y-11186888D02*
X22155539Y-11129746D01*
X22155539Y-11129746D02*
X22165063Y-11110698D01*
X22165063Y-11110698D02*
X22174587Y-11101174D01*
X22174587Y-11101174D02*
X22193634Y-11091650D01*
X22193634Y-11091650D02*
X22222206Y-11091650D01*
X22222206Y-11091650D02*
X22241253Y-11101174D01*
X22241253Y-11101174D02*
X22250777Y-11110698D01*
X22250777Y-11110698D02*
X22260301Y-11129746D01*
X22260301Y-11129746D02*
X22260301Y-11186888D01*
X22260301Y-11186888D02*
X22250777Y-11205936D01*
X22250777Y-11205936D02*
X22241253Y-11215460D01*
X22241253Y-11215460D02*
X22222206Y-11224984D01*
X22222206Y-11224984D02*
X22193634Y-11224984D01*
X22374587Y-11224984D02*
X22355539Y-11215460D01*
X22355539Y-11215460D02*
X22346015Y-11196412D01*
X22346015Y-11196412D02*
X22346015Y-11024984D01*
X22526968Y-11215460D02*
X22507920Y-11224984D01*
X22507920Y-11224984D02*
X22469825Y-11224984D01*
X22469825Y-11224984D02*
X22450777Y-11215460D01*
X22450777Y-11215460D02*
X22441253Y-11196412D01*
X22441253Y-11196412D02*
X22441253Y-11120222D01*
X22441253Y-11120222D02*
X22450777Y-11101174D01*
X22450777Y-11101174D02*
X22469825Y-11091650D01*
X22469825Y-11091650D02*
X22507920Y-11091650D01*
X22507920Y-11091650D02*
X22526968Y-11101174D01*
X22526968Y-11101174D02*
X22536491Y-11120222D01*
X22536491Y-11120222D02*
X22536491Y-11139270D01*
X22536491Y-11139270D02*
X22441253Y-11158317D01*
X22612682Y-11215460D02*
X22631730Y-11224984D01*
X22631730Y-11224984D02*
X22669825Y-11224984D01*
X22669825Y-11224984D02*
X22688872Y-11215460D01*
X22688872Y-11215460D02*
X22698396Y-11196412D01*
X22698396Y-11196412D02*
X22698396Y-11186888D01*
X22698396Y-11186888D02*
X22688872Y-11167841D01*
X22688872Y-11167841D02*
X22669825Y-11158317D01*
X22669825Y-11158317D02*
X22641253Y-11158317D01*
X22641253Y-11158317D02*
X22622206Y-11148793D01*
X22622206Y-11148793D02*
X22612682Y-11129746D01*
X22612682Y-11129746D02*
X22612682Y-11120222D01*
X22612682Y-11120222D02*
X22622206Y-11101174D01*
X22622206Y-11101174D02*
X22641253Y-11091650D01*
X22641253Y-11091650D02*
X22669825Y-11091650D01*
X22669825Y-11091650D02*
X22688872Y-11101174D01*
X22765063Y-11301174D02*
X22774587Y-11291650D01*
X22774587Y-11291650D02*
X22793634Y-11263079D01*
X22793634Y-11263079D02*
X22803158Y-11244031D01*
X22803158Y-11244031D02*
X22812682Y-11215460D01*
X22812682Y-11215460D02*
X22822206Y-11167841D01*
X22822206Y-11167841D02*
X22822206Y-11129746D01*
X22822206Y-11129746D02*
X22812682Y-11082127D01*
X22812682Y-11082127D02*
X22803158Y-11053555D01*
X22803158Y-11053555D02*
X22793634Y-11034508D01*
X22793634Y-11034508D02*
X22774587Y-11005936D01*
X22774587Y-11005936D02*
X22765063Y-10996412D01*
D14*
X17840140Y-11322570D02*
X17990000Y-11472430D01*
X17990000Y-11322570D02*
X17840140Y-11472430D01*
X17990000Y-11397500D02*
G75*
G02*
X17840140Y-11397500I-74930J0D01*
G01*
X17840140Y-11397500D02*
G75*
G02*
X17990000Y-11397500I74930J0D01*
G01*
D10*
X18355539Y-11488984D02*
X18241253Y-11488984D01*
X18298396Y-11488984D02*
X18298396Y-11288984D01*
X18298396Y-11288984D02*
X18279348Y-11317555D01*
X18279348Y-11317555D02*
X18260301Y-11336603D01*
X18260301Y-11336603D02*
X18241253Y-11346127D01*
X18441253Y-11469936D02*
X18450777Y-11479460D01*
X18450777Y-11479460D02*
X18441253Y-11488984D01*
X18441253Y-11488984D02*
X18431729Y-11479460D01*
X18431729Y-11479460D02*
X18441253Y-11469936D01*
X18441253Y-11469936D02*
X18441253Y-11488984D01*
X18622205Y-11355650D02*
X18622205Y-11488984D01*
X18574586Y-11279460D02*
X18526967Y-11422317D01*
X18526967Y-11422317D02*
X18650777Y-11422317D01*
X18736491Y-11488984D02*
X18774586Y-11488984D01*
X18774586Y-11488984D02*
X18793634Y-11479460D01*
X18793634Y-11479460D02*
X18803158Y-11469936D01*
X18803158Y-11469936D02*
X18822205Y-11441365D01*
X18822205Y-11441365D02*
X18831729Y-11403269D01*
X18831729Y-11403269D02*
X18831729Y-11327079D01*
X18831729Y-11327079D02*
X18822205Y-11308031D01*
X18822205Y-11308031D02*
X18812682Y-11298508D01*
X18812682Y-11298508D02*
X18793634Y-11288984D01*
X18793634Y-11288984D02*
X18755539Y-11288984D01*
X18755539Y-11288984D02*
X18736491Y-11298508D01*
X18736491Y-11298508D02*
X18726967Y-11308031D01*
X18726967Y-11308031D02*
X18717444Y-11327079D01*
X18717444Y-11327079D02*
X18717444Y-11374698D01*
X18717444Y-11374698D02*
X18726967Y-11393746D01*
X18726967Y-11393746D02*
X18736491Y-11403269D01*
X18736491Y-11403269D02*
X18755539Y-11412793D01*
X18755539Y-11412793D02*
X18793634Y-11412793D01*
X18793634Y-11412793D02*
X18812682Y-11403269D01*
X18812682Y-11403269D02*
X18822205Y-11393746D01*
X18822205Y-11393746D02*
X18831729Y-11374698D01*
X18926967Y-11488984D02*
X18965063Y-11488984D01*
X18965063Y-11488984D02*
X18984110Y-11479460D01*
X18984110Y-11479460D02*
X18993634Y-11469936D01*
X18993634Y-11469936D02*
X19012682Y-11441365D01*
X19012682Y-11441365D02*
X19022205Y-11403269D01*
X19022205Y-11403269D02*
X19022205Y-11327079D01*
X19022205Y-11327079D02*
X19012682Y-11308031D01*
X19012682Y-11308031D02*
X19003158Y-11298508D01*
X19003158Y-11298508D02*
X18984110Y-11288984D01*
X18984110Y-11288984D02*
X18946015Y-11288984D01*
X18946015Y-11288984D02*
X18926967Y-11298508D01*
X18926967Y-11298508D02*
X18917444Y-11308031D01*
X18917444Y-11308031D02*
X18907920Y-11327079D01*
X18907920Y-11327079D02*
X18907920Y-11374698D01*
X18907920Y-11374698D02*
X18917444Y-11393746D01*
X18917444Y-11393746D02*
X18926967Y-11403269D01*
X18926967Y-11403269D02*
X18946015Y-11412793D01*
X18946015Y-11412793D02*
X18984110Y-11412793D01*
X18984110Y-11412793D02*
X19003158Y-11403269D01*
X19003158Y-11403269D02*
X19012682Y-11393746D01*
X19012682Y-11393746D02*
X19022205Y-11374698D01*
X19107920Y-11488984D02*
X19107920Y-11355650D01*
X19107920Y-11374698D02*
X19117444Y-11365174D01*
X19117444Y-11365174D02*
X19136491Y-11355650D01*
X19136491Y-11355650D02*
X19165063Y-11355650D01*
X19165063Y-11355650D02*
X19184110Y-11365174D01*
X19184110Y-11365174D02*
X19193634Y-11384222D01*
X19193634Y-11384222D02*
X19193634Y-11488984D01*
X19193634Y-11384222D02*
X19203158Y-11365174D01*
X19203158Y-11365174D02*
X19222205Y-11355650D01*
X19222205Y-11355650D02*
X19250777Y-11355650D01*
X19250777Y-11355650D02*
X19269825Y-11365174D01*
X19269825Y-11365174D02*
X19279348Y-11384222D01*
X19279348Y-11384222D02*
X19279348Y-11488984D01*
X19374586Y-11488984D02*
X19374586Y-11355650D01*
X19374586Y-11374698D02*
X19384110Y-11365174D01*
X19384110Y-11365174D02*
X19403158Y-11355650D01*
X19403158Y-11355650D02*
X19431729Y-11355650D01*
X19431729Y-11355650D02*
X19450777Y-11365174D01*
X19450777Y-11365174D02*
X19460301Y-11384222D01*
X19460301Y-11384222D02*
X19460301Y-11488984D01*
X19460301Y-11384222D02*
X19469825Y-11365174D01*
X19469825Y-11365174D02*
X19488872Y-11355650D01*
X19488872Y-11355650D02*
X19517444Y-11355650D01*
X19517444Y-11355650D02*
X19536491Y-11365174D01*
X19536491Y-11365174D02*
X19546015Y-11384222D01*
X19546015Y-11384222D02*
X19546015Y-11488984D01*
X19936491Y-11279460D02*
X19765063Y-11536603D01*
X20193634Y-11288984D02*
X20212682Y-11288984D01*
X20212682Y-11288984D02*
X20231729Y-11298508D01*
X20231729Y-11298508D02*
X20241253Y-11308031D01*
X20241253Y-11308031D02*
X20250777Y-11327079D01*
X20250777Y-11327079D02*
X20260301Y-11365174D01*
X20260301Y-11365174D02*
X20260301Y-11412793D01*
X20260301Y-11412793D02*
X20250777Y-11450888D01*
X20250777Y-11450888D02*
X20241253Y-11469936D01*
X20241253Y-11469936D02*
X20231729Y-11479460D01*
X20231729Y-11479460D02*
X20212682Y-11488984D01*
X20212682Y-11488984D02*
X20193634Y-11488984D01*
X20193634Y-11488984D02*
X20174587Y-11479460D01*
X20174587Y-11479460D02*
X20165063Y-11469936D01*
X20165063Y-11469936D02*
X20155539Y-11450888D01*
X20155539Y-11450888D02*
X20146015Y-11412793D01*
X20146015Y-11412793D02*
X20146015Y-11365174D01*
X20146015Y-11365174D02*
X20155539Y-11327079D01*
X20155539Y-11327079D02*
X20165063Y-11308031D01*
X20165063Y-11308031D02*
X20174587Y-11298508D01*
X20174587Y-11298508D02*
X20193634Y-11288984D01*
X20346015Y-11469936D02*
X20355539Y-11479460D01*
X20355539Y-11479460D02*
X20346015Y-11488984D01*
X20346015Y-11488984D02*
X20336491Y-11479460D01*
X20336491Y-11479460D02*
X20346015Y-11469936D01*
X20346015Y-11469936D02*
X20346015Y-11488984D01*
X20479348Y-11288984D02*
X20498396Y-11288984D01*
X20498396Y-11288984D02*
X20517444Y-11298508D01*
X20517444Y-11298508D02*
X20526968Y-11308031D01*
X20526968Y-11308031D02*
X20536491Y-11327079D01*
X20536491Y-11327079D02*
X20546015Y-11365174D01*
X20546015Y-11365174D02*
X20546015Y-11412793D01*
X20546015Y-11412793D02*
X20536491Y-11450888D01*
X20536491Y-11450888D02*
X20526968Y-11469936D01*
X20526968Y-11469936D02*
X20517444Y-11479460D01*
X20517444Y-11479460D02*
X20498396Y-11488984D01*
X20498396Y-11488984D02*
X20479348Y-11488984D01*
X20479348Y-11488984D02*
X20460301Y-11479460D01*
X20460301Y-11479460D02*
X20450777Y-11469936D01*
X20450777Y-11469936D02*
X20441253Y-11450888D01*
X20441253Y-11450888D02*
X20431729Y-11412793D01*
X20431729Y-11412793D02*
X20431729Y-11365174D01*
X20431729Y-11365174D02*
X20441253Y-11327079D01*
X20441253Y-11327079D02*
X20450777Y-11308031D01*
X20450777Y-11308031D02*
X20460301Y-11298508D01*
X20460301Y-11298508D02*
X20479348Y-11288984D01*
X20726968Y-11288984D02*
X20631729Y-11288984D01*
X20631729Y-11288984D02*
X20622206Y-11384222D01*
X20622206Y-11384222D02*
X20631729Y-11374698D01*
X20631729Y-11374698D02*
X20650777Y-11365174D01*
X20650777Y-11365174D02*
X20698396Y-11365174D01*
X20698396Y-11365174D02*
X20717444Y-11374698D01*
X20717444Y-11374698D02*
X20726968Y-11384222D01*
X20726968Y-11384222D02*
X20736491Y-11403269D01*
X20736491Y-11403269D02*
X20736491Y-11450888D01*
X20736491Y-11450888D02*
X20726968Y-11469936D01*
X20726968Y-11469936D02*
X20717444Y-11479460D01*
X20717444Y-11479460D02*
X20698396Y-11488984D01*
X20698396Y-11488984D02*
X20650777Y-11488984D01*
X20650777Y-11488984D02*
X20631729Y-11479460D01*
X20631729Y-11479460D02*
X20622206Y-11469936D01*
X20831729Y-11488984D02*
X20869825Y-11488984D01*
X20869825Y-11488984D02*
X20888872Y-11479460D01*
X20888872Y-11479460D02*
X20898396Y-11469936D01*
X20898396Y-11469936D02*
X20917444Y-11441365D01*
X20917444Y-11441365D02*
X20926968Y-11403269D01*
X20926968Y-11403269D02*
X20926968Y-11327079D01*
X20926968Y-11327079D02*
X20917444Y-11308031D01*
X20917444Y-11308031D02*
X20907920Y-11298508D01*
X20907920Y-11298508D02*
X20888872Y-11288984D01*
X20888872Y-11288984D02*
X20850777Y-11288984D01*
X20850777Y-11288984D02*
X20831729Y-11298508D01*
X20831729Y-11298508D02*
X20822206Y-11308031D01*
X20822206Y-11308031D02*
X20812682Y-11327079D01*
X20812682Y-11327079D02*
X20812682Y-11374698D01*
X20812682Y-11374698D02*
X20822206Y-11393746D01*
X20822206Y-11393746D02*
X20831729Y-11403269D01*
X20831729Y-11403269D02*
X20850777Y-11412793D01*
X20850777Y-11412793D02*
X20888872Y-11412793D01*
X20888872Y-11412793D02*
X20907920Y-11403269D01*
X20907920Y-11403269D02*
X20917444Y-11393746D01*
X20917444Y-11393746D02*
X20926968Y-11374698D01*
X21050777Y-11288984D02*
X21069825Y-11288984D01*
X21069825Y-11288984D02*
X21088872Y-11298508D01*
X21088872Y-11298508D02*
X21098396Y-11308031D01*
X21098396Y-11308031D02*
X21107920Y-11327079D01*
X21107920Y-11327079D02*
X21117444Y-11365174D01*
X21117444Y-11365174D02*
X21117444Y-11412793D01*
X21117444Y-11412793D02*
X21107920Y-11450888D01*
X21107920Y-11450888D02*
X21098396Y-11469936D01*
X21098396Y-11469936D02*
X21088872Y-11479460D01*
X21088872Y-11479460D02*
X21069825Y-11488984D01*
X21069825Y-11488984D02*
X21050777Y-11488984D01*
X21050777Y-11488984D02*
X21031729Y-11479460D01*
X21031729Y-11479460D02*
X21022206Y-11469936D01*
X21022206Y-11469936D02*
X21012682Y-11450888D01*
X21012682Y-11450888D02*
X21003158Y-11412793D01*
X21003158Y-11412793D02*
X21003158Y-11365174D01*
X21003158Y-11365174D02*
X21012682Y-11327079D01*
X21012682Y-11327079D02*
X21022206Y-11308031D01*
X21022206Y-11308031D02*
X21031729Y-11298508D01*
X21031729Y-11298508D02*
X21050777Y-11288984D01*
X21193634Y-11288984D02*
X21193634Y-11327079D01*
X21269825Y-11288984D02*
X21269825Y-11327079D01*
X21565063Y-11565174D02*
X21555539Y-11555650D01*
X21555539Y-11555650D02*
X21536491Y-11527079D01*
X21536491Y-11527079D02*
X21526968Y-11508031D01*
X21526968Y-11508031D02*
X21517444Y-11479460D01*
X21517444Y-11479460D02*
X21507920Y-11431841D01*
X21507920Y-11431841D02*
X21507920Y-11393746D01*
X21507920Y-11393746D02*
X21517444Y-11346127D01*
X21517444Y-11346127D02*
X21526968Y-11317555D01*
X21526968Y-11317555D02*
X21536491Y-11298508D01*
X21536491Y-11298508D02*
X21555539Y-11269936D01*
X21555539Y-11269936D02*
X21565063Y-11260412D01*
X21726968Y-11355650D02*
X21726968Y-11488984D01*
X21679349Y-11279460D02*
X21631730Y-11422317D01*
X21631730Y-11422317D02*
X21755539Y-11422317D01*
X21984111Y-11488984D02*
X21984111Y-11288984D01*
X22069825Y-11488984D02*
X22069825Y-11384222D01*
X22069825Y-11384222D02*
X22060301Y-11365174D01*
X22060301Y-11365174D02*
X22041253Y-11355650D01*
X22041253Y-11355650D02*
X22012682Y-11355650D01*
X22012682Y-11355650D02*
X21993634Y-11365174D01*
X21993634Y-11365174D02*
X21984111Y-11374698D01*
X22193634Y-11488984D02*
X22174587Y-11479460D01*
X22174587Y-11479460D02*
X22165063Y-11469936D01*
X22165063Y-11469936D02*
X22155539Y-11450888D01*
X22155539Y-11450888D02*
X22155539Y-11393746D01*
X22155539Y-11393746D02*
X22165063Y-11374698D01*
X22165063Y-11374698D02*
X22174587Y-11365174D01*
X22174587Y-11365174D02*
X22193634Y-11355650D01*
X22193634Y-11355650D02*
X22222206Y-11355650D01*
X22222206Y-11355650D02*
X22241253Y-11365174D01*
X22241253Y-11365174D02*
X22250777Y-11374698D01*
X22250777Y-11374698D02*
X22260301Y-11393746D01*
X22260301Y-11393746D02*
X22260301Y-11450888D01*
X22260301Y-11450888D02*
X22250777Y-11469936D01*
X22250777Y-11469936D02*
X22241253Y-11479460D01*
X22241253Y-11479460D02*
X22222206Y-11488984D01*
X22222206Y-11488984D02*
X22193634Y-11488984D01*
X22374587Y-11488984D02*
X22355539Y-11479460D01*
X22355539Y-11479460D02*
X22346015Y-11460412D01*
X22346015Y-11460412D02*
X22346015Y-11288984D01*
X22526968Y-11479460D02*
X22507920Y-11488984D01*
X22507920Y-11488984D02*
X22469825Y-11488984D01*
X22469825Y-11488984D02*
X22450777Y-11479460D01*
X22450777Y-11479460D02*
X22441253Y-11460412D01*
X22441253Y-11460412D02*
X22441253Y-11384222D01*
X22441253Y-11384222D02*
X22450777Y-11365174D01*
X22450777Y-11365174D02*
X22469825Y-11355650D01*
X22469825Y-11355650D02*
X22507920Y-11355650D01*
X22507920Y-11355650D02*
X22526968Y-11365174D01*
X22526968Y-11365174D02*
X22536491Y-11384222D01*
X22536491Y-11384222D02*
X22536491Y-11403269D01*
X22536491Y-11403269D02*
X22441253Y-11422317D01*
X22612682Y-11479460D02*
X22631730Y-11488984D01*
X22631730Y-11488984D02*
X22669825Y-11488984D01*
X22669825Y-11488984D02*
X22688872Y-11479460D01*
X22688872Y-11479460D02*
X22698396Y-11460412D01*
X22698396Y-11460412D02*
X22698396Y-11450888D01*
X22698396Y-11450888D02*
X22688872Y-11431841D01*
X22688872Y-11431841D02*
X22669825Y-11422317D01*
X22669825Y-11422317D02*
X22641253Y-11422317D01*
X22641253Y-11422317D02*
X22622206Y-11412793D01*
X22622206Y-11412793D02*
X22612682Y-11393746D01*
X22612682Y-11393746D02*
X22612682Y-11384222D01*
X22612682Y-11384222D02*
X22622206Y-11365174D01*
X22622206Y-11365174D02*
X22641253Y-11355650D01*
X22641253Y-11355650D02*
X22669825Y-11355650D01*
X22669825Y-11355650D02*
X22688872Y-11365174D01*
X22765063Y-11565174D02*
X22774587Y-11555650D01*
X22774587Y-11555650D02*
X22793634Y-11527079D01*
X22793634Y-11527079D02*
X22803158Y-11508031D01*
X22803158Y-11508031D02*
X22812682Y-11479460D01*
X22812682Y-11479460D02*
X22822206Y-11431841D01*
X22822206Y-11431841D02*
X22822206Y-11393746D01*
X22822206Y-11393746D02*
X22812682Y-11346127D01*
X22812682Y-11346127D02*
X22803158Y-11317555D01*
X22803158Y-11317555D02*
X22793634Y-11298508D01*
X22793634Y-11298508D02*
X22774587Y-11269936D01*
X22774587Y-11269936D02*
X22765063Y-11260412D01*
M02*
