%TF.GenerationSoftware,KiCad,Pcbnew,9.0.2*%
%TF.CreationDate,2026-05-30T15:20:28-06:00*%
%TF.ProjectId,DaFO,4461464f-2e6b-4696-9361-645f70636258,v.1*%
%TF.SameCoordinates,Original*%
%TF.FileFunction,Drillmap*%
%TF.FilePolarity,Positive*%
%FSLAX45Y45*%
G04 Gerber Fmt 4.5, Leading zero omitted, Abs format (unit mm)*
G04 Created by KiCad (PCBNEW 9.0.2) date 2026-05-30 15:20:28*
%MOMM*%
%LPD*%
G01*
G04 APERTURE LIST*
%ADD10C,0.200000*%
%ADD11C,0.320000*%
G04 APERTURE END LIST*
D10*
X18000000Y-4527500D02*
X21200000Y-4527500D01*
X21200000Y-9427500D01*
X18000000Y-9427500D01*
X18000000Y-4527500D01*
D11*
X20619740Y-4803160D02*
X20939740Y-5123160D01*
X20939740Y-4803160D02*
X20619740Y-5123160D01*
X20619740Y-6085860D02*
X20939740Y-6405860D01*
X20939740Y-6085860D02*
X20619740Y-6405860D01*
X20619740Y-7368560D02*
X20939740Y-7688560D01*
X20939740Y-7368560D02*
X20619740Y-7688560D01*
D10*
X18250777Y-9748984D02*
X18250777Y-9548984D01*
X18250777Y-9548984D02*
X18298396Y-9548984D01*
X18298396Y-9548984D02*
X18326967Y-9558508D01*
X18326967Y-9558508D02*
X18346015Y-9577555D01*
X18346015Y-9577555D02*
X18355539Y-9596603D01*
X18355539Y-9596603D02*
X18365063Y-9634698D01*
X18365063Y-9634698D02*
X18365063Y-9663270D01*
X18365063Y-9663270D02*
X18355539Y-9701365D01*
X18355539Y-9701365D02*
X18346015Y-9720412D01*
X18346015Y-9720412D02*
X18326967Y-9739460D01*
X18326967Y-9739460D02*
X18298396Y-9748984D01*
X18298396Y-9748984D02*
X18250777Y-9748984D01*
X18450777Y-9748984D02*
X18450777Y-9615650D01*
X18450777Y-9653746D02*
X18460301Y-9634698D01*
X18460301Y-9634698D02*
X18469824Y-9625174D01*
X18469824Y-9625174D02*
X18488872Y-9615650D01*
X18488872Y-9615650D02*
X18507920Y-9615650D01*
X18574586Y-9748984D02*
X18574586Y-9615650D01*
X18574586Y-9548984D02*
X18565063Y-9558508D01*
X18565063Y-9558508D02*
X18574586Y-9568031D01*
X18574586Y-9568031D02*
X18584110Y-9558508D01*
X18584110Y-9558508D02*
X18574586Y-9548984D01*
X18574586Y-9548984D02*
X18574586Y-9568031D01*
X18698396Y-9748984D02*
X18679348Y-9739460D01*
X18679348Y-9739460D02*
X18669824Y-9720412D01*
X18669824Y-9720412D02*
X18669824Y-9548984D01*
X18803158Y-9748984D02*
X18784110Y-9739460D01*
X18784110Y-9739460D02*
X18774586Y-9720412D01*
X18774586Y-9720412D02*
X18774586Y-9548984D01*
X19031729Y-9748984D02*
X19031729Y-9548984D01*
X19031729Y-9548984D02*
X19098396Y-9691841D01*
X19098396Y-9691841D02*
X19165063Y-9548984D01*
X19165063Y-9548984D02*
X19165063Y-9748984D01*
X19346015Y-9748984D02*
X19346015Y-9644222D01*
X19346015Y-9644222D02*
X19336491Y-9625174D01*
X19336491Y-9625174D02*
X19317444Y-9615650D01*
X19317444Y-9615650D02*
X19279348Y-9615650D01*
X19279348Y-9615650D02*
X19260301Y-9625174D01*
X19346015Y-9739460D02*
X19326967Y-9748984D01*
X19326967Y-9748984D02*
X19279348Y-9748984D01*
X19279348Y-9748984D02*
X19260301Y-9739460D01*
X19260301Y-9739460D02*
X19250777Y-9720412D01*
X19250777Y-9720412D02*
X19250777Y-9701365D01*
X19250777Y-9701365D02*
X19260301Y-9682317D01*
X19260301Y-9682317D02*
X19279348Y-9672793D01*
X19279348Y-9672793D02*
X19326967Y-9672793D01*
X19326967Y-9672793D02*
X19346015Y-9663270D01*
X19441253Y-9615650D02*
X19441253Y-9815650D01*
X19441253Y-9625174D02*
X19460301Y-9615650D01*
X19460301Y-9615650D02*
X19498396Y-9615650D01*
X19498396Y-9615650D02*
X19517444Y-9625174D01*
X19517444Y-9625174D02*
X19526967Y-9634698D01*
X19526967Y-9634698D02*
X19536491Y-9653746D01*
X19536491Y-9653746D02*
X19536491Y-9710889D01*
X19536491Y-9710889D02*
X19526967Y-9729936D01*
X19526967Y-9729936D02*
X19517444Y-9739460D01*
X19517444Y-9739460D02*
X19498396Y-9748984D01*
X19498396Y-9748984D02*
X19460301Y-9748984D01*
X19460301Y-9748984D02*
X19441253Y-9739460D01*
X19622205Y-9729936D02*
X19631729Y-9739460D01*
X19631729Y-9739460D02*
X19622205Y-9748984D01*
X19622205Y-9748984D02*
X19612682Y-9739460D01*
X19612682Y-9739460D02*
X19622205Y-9729936D01*
X19622205Y-9729936D02*
X19622205Y-9748984D01*
X19622205Y-9625174D02*
X19631729Y-9634698D01*
X19631729Y-9634698D02*
X19622205Y-9644222D01*
X19622205Y-9644222D02*
X19612682Y-9634698D01*
X19612682Y-9634698D02*
X19622205Y-9625174D01*
X19622205Y-9625174D02*
X19622205Y-9644222D01*
X17790000Y-9977500D02*
X17990000Y-10177500D01*
X17990000Y-9977500D02*
X17790000Y-10177500D01*
X18231729Y-9968984D02*
X18355539Y-9968984D01*
X18355539Y-9968984D02*
X18288872Y-10045174D01*
X18288872Y-10045174D02*
X18317444Y-10045174D01*
X18317444Y-10045174D02*
X18336491Y-10054698D01*
X18336491Y-10054698D02*
X18346015Y-10064222D01*
X18346015Y-10064222D02*
X18355539Y-10083270D01*
X18355539Y-10083270D02*
X18355539Y-10130889D01*
X18355539Y-10130889D02*
X18346015Y-10149936D01*
X18346015Y-10149936D02*
X18336491Y-10159460D01*
X18336491Y-10159460D02*
X18317444Y-10168984D01*
X18317444Y-10168984D02*
X18260301Y-10168984D01*
X18260301Y-10168984D02*
X18241253Y-10159460D01*
X18241253Y-10159460D02*
X18231729Y-10149936D01*
X18441253Y-10149936D02*
X18450777Y-10159460D01*
X18450777Y-10159460D02*
X18441253Y-10168984D01*
X18441253Y-10168984D02*
X18431729Y-10159460D01*
X18431729Y-10159460D02*
X18441253Y-10149936D01*
X18441253Y-10149936D02*
X18441253Y-10168984D01*
X18526967Y-9988031D02*
X18536491Y-9978508D01*
X18536491Y-9978508D02*
X18555539Y-9968984D01*
X18555539Y-9968984D02*
X18603158Y-9968984D01*
X18603158Y-9968984D02*
X18622205Y-9978508D01*
X18622205Y-9978508D02*
X18631729Y-9988031D01*
X18631729Y-9988031D02*
X18641253Y-10007079D01*
X18641253Y-10007079D02*
X18641253Y-10026127D01*
X18641253Y-10026127D02*
X18631729Y-10054698D01*
X18631729Y-10054698D02*
X18517444Y-10168984D01*
X18517444Y-10168984D02*
X18641253Y-10168984D01*
X18765063Y-9968984D02*
X18784110Y-9968984D01*
X18784110Y-9968984D02*
X18803158Y-9978508D01*
X18803158Y-9978508D02*
X18812682Y-9988031D01*
X18812682Y-9988031D02*
X18822205Y-10007079D01*
X18822205Y-10007079D02*
X18831729Y-10045174D01*
X18831729Y-10045174D02*
X18831729Y-10092793D01*
X18831729Y-10092793D02*
X18822205Y-10130889D01*
X18822205Y-10130889D02*
X18812682Y-10149936D01*
X18812682Y-10149936D02*
X18803158Y-10159460D01*
X18803158Y-10159460D02*
X18784110Y-10168984D01*
X18784110Y-10168984D02*
X18765063Y-10168984D01*
X18765063Y-10168984D02*
X18746015Y-10159460D01*
X18746015Y-10159460D02*
X18736491Y-10149936D01*
X18736491Y-10149936D02*
X18726967Y-10130889D01*
X18726967Y-10130889D02*
X18717444Y-10092793D01*
X18717444Y-10092793D02*
X18717444Y-10045174D01*
X18717444Y-10045174D02*
X18726967Y-10007079D01*
X18726967Y-10007079D02*
X18736491Y-9988031D01*
X18736491Y-9988031D02*
X18746015Y-9978508D01*
X18746015Y-9978508D02*
X18765063Y-9968984D01*
X18955539Y-9968984D02*
X18974586Y-9968984D01*
X18974586Y-9968984D02*
X18993634Y-9978508D01*
X18993634Y-9978508D02*
X19003158Y-9988031D01*
X19003158Y-9988031D02*
X19012682Y-10007079D01*
X19012682Y-10007079D02*
X19022205Y-10045174D01*
X19022205Y-10045174D02*
X19022205Y-10092793D01*
X19022205Y-10092793D02*
X19012682Y-10130889D01*
X19012682Y-10130889D02*
X19003158Y-10149936D01*
X19003158Y-10149936D02*
X18993634Y-10159460D01*
X18993634Y-10159460D02*
X18974586Y-10168984D01*
X18974586Y-10168984D02*
X18955539Y-10168984D01*
X18955539Y-10168984D02*
X18936491Y-10159460D01*
X18936491Y-10159460D02*
X18926967Y-10149936D01*
X18926967Y-10149936D02*
X18917444Y-10130889D01*
X18917444Y-10130889D02*
X18907920Y-10092793D01*
X18907920Y-10092793D02*
X18907920Y-10045174D01*
X18907920Y-10045174D02*
X18917444Y-10007079D01*
X18917444Y-10007079D02*
X18926967Y-9988031D01*
X18926967Y-9988031D02*
X18936491Y-9978508D01*
X18936491Y-9978508D02*
X18955539Y-9968984D01*
X19107920Y-10168984D02*
X19107920Y-10035650D01*
X19107920Y-10054698D02*
X19117444Y-10045174D01*
X19117444Y-10045174D02*
X19136491Y-10035650D01*
X19136491Y-10035650D02*
X19165063Y-10035650D01*
X19165063Y-10035650D02*
X19184110Y-10045174D01*
X19184110Y-10045174D02*
X19193634Y-10064222D01*
X19193634Y-10064222D02*
X19193634Y-10168984D01*
X19193634Y-10064222D02*
X19203158Y-10045174D01*
X19203158Y-10045174D02*
X19222205Y-10035650D01*
X19222205Y-10035650D02*
X19250777Y-10035650D01*
X19250777Y-10035650D02*
X19269825Y-10045174D01*
X19269825Y-10045174D02*
X19279348Y-10064222D01*
X19279348Y-10064222D02*
X19279348Y-10168984D01*
X19374586Y-10168984D02*
X19374586Y-10035650D01*
X19374586Y-10054698D02*
X19384110Y-10045174D01*
X19384110Y-10045174D02*
X19403158Y-10035650D01*
X19403158Y-10035650D02*
X19431729Y-10035650D01*
X19431729Y-10035650D02*
X19450777Y-10045174D01*
X19450777Y-10045174D02*
X19460301Y-10064222D01*
X19460301Y-10064222D02*
X19460301Y-10168984D01*
X19460301Y-10064222D02*
X19469825Y-10045174D01*
X19469825Y-10045174D02*
X19488872Y-10035650D01*
X19488872Y-10035650D02*
X19517444Y-10035650D01*
X19517444Y-10035650D02*
X19536491Y-10045174D01*
X19536491Y-10045174D02*
X19546015Y-10064222D01*
X19546015Y-10064222D02*
X19546015Y-10168984D01*
X19936491Y-9959460D02*
X19765063Y-10216603D01*
X20193634Y-9968984D02*
X20212682Y-9968984D01*
X20212682Y-9968984D02*
X20231729Y-9978508D01*
X20231729Y-9978508D02*
X20241253Y-9988031D01*
X20241253Y-9988031D02*
X20250777Y-10007079D01*
X20250777Y-10007079D02*
X20260301Y-10045174D01*
X20260301Y-10045174D02*
X20260301Y-10092793D01*
X20260301Y-10092793D02*
X20250777Y-10130889D01*
X20250777Y-10130889D02*
X20241253Y-10149936D01*
X20241253Y-10149936D02*
X20231729Y-10159460D01*
X20231729Y-10159460D02*
X20212682Y-10168984D01*
X20212682Y-10168984D02*
X20193634Y-10168984D01*
X20193634Y-10168984D02*
X20174587Y-10159460D01*
X20174587Y-10159460D02*
X20165063Y-10149936D01*
X20165063Y-10149936D02*
X20155539Y-10130889D01*
X20155539Y-10130889D02*
X20146015Y-10092793D01*
X20146015Y-10092793D02*
X20146015Y-10045174D01*
X20146015Y-10045174D02*
X20155539Y-10007079D01*
X20155539Y-10007079D02*
X20165063Y-9988031D01*
X20165063Y-9988031D02*
X20174587Y-9978508D01*
X20174587Y-9978508D02*
X20193634Y-9968984D01*
X20346015Y-10149936D02*
X20355539Y-10159460D01*
X20355539Y-10159460D02*
X20346015Y-10168984D01*
X20346015Y-10168984D02*
X20336491Y-10159460D01*
X20336491Y-10159460D02*
X20346015Y-10149936D01*
X20346015Y-10149936D02*
X20346015Y-10168984D01*
X20546015Y-10168984D02*
X20431729Y-10168984D01*
X20488872Y-10168984D02*
X20488872Y-9968984D01*
X20488872Y-9968984D02*
X20469825Y-9997555D01*
X20469825Y-9997555D02*
X20450777Y-10016603D01*
X20450777Y-10016603D02*
X20431729Y-10026127D01*
X20622206Y-9988031D02*
X20631729Y-9978508D01*
X20631729Y-9978508D02*
X20650777Y-9968984D01*
X20650777Y-9968984D02*
X20698396Y-9968984D01*
X20698396Y-9968984D02*
X20717444Y-9978508D01*
X20717444Y-9978508D02*
X20726968Y-9988031D01*
X20726968Y-9988031D02*
X20736491Y-10007079D01*
X20736491Y-10007079D02*
X20736491Y-10026127D01*
X20736491Y-10026127D02*
X20726968Y-10054698D01*
X20726968Y-10054698D02*
X20612682Y-10168984D01*
X20612682Y-10168984D02*
X20736491Y-10168984D01*
X20907920Y-9968984D02*
X20869825Y-9968984D01*
X20869825Y-9968984D02*
X20850777Y-9978508D01*
X20850777Y-9978508D02*
X20841253Y-9988031D01*
X20841253Y-9988031D02*
X20822206Y-10016603D01*
X20822206Y-10016603D02*
X20812682Y-10054698D01*
X20812682Y-10054698D02*
X20812682Y-10130889D01*
X20812682Y-10130889D02*
X20822206Y-10149936D01*
X20822206Y-10149936D02*
X20831729Y-10159460D01*
X20831729Y-10159460D02*
X20850777Y-10168984D01*
X20850777Y-10168984D02*
X20888872Y-10168984D01*
X20888872Y-10168984D02*
X20907920Y-10159460D01*
X20907920Y-10159460D02*
X20917444Y-10149936D01*
X20917444Y-10149936D02*
X20926968Y-10130889D01*
X20926968Y-10130889D02*
X20926968Y-10083270D01*
X20926968Y-10083270D02*
X20917444Y-10064222D01*
X20917444Y-10064222D02*
X20907920Y-10054698D01*
X20907920Y-10054698D02*
X20888872Y-10045174D01*
X20888872Y-10045174D02*
X20850777Y-10045174D01*
X20850777Y-10045174D02*
X20831729Y-10054698D01*
X20831729Y-10054698D02*
X20822206Y-10064222D01*
X20822206Y-10064222D02*
X20812682Y-10083270D01*
X21050777Y-9968984D02*
X21069825Y-9968984D01*
X21069825Y-9968984D02*
X21088872Y-9978508D01*
X21088872Y-9978508D02*
X21098396Y-9988031D01*
X21098396Y-9988031D02*
X21107920Y-10007079D01*
X21107920Y-10007079D02*
X21117444Y-10045174D01*
X21117444Y-10045174D02*
X21117444Y-10092793D01*
X21117444Y-10092793D02*
X21107920Y-10130889D01*
X21107920Y-10130889D02*
X21098396Y-10149936D01*
X21098396Y-10149936D02*
X21088872Y-10159460D01*
X21088872Y-10159460D02*
X21069825Y-10168984D01*
X21069825Y-10168984D02*
X21050777Y-10168984D01*
X21050777Y-10168984D02*
X21031729Y-10159460D01*
X21031729Y-10159460D02*
X21022206Y-10149936D01*
X21022206Y-10149936D02*
X21012682Y-10130889D01*
X21012682Y-10130889D02*
X21003158Y-10092793D01*
X21003158Y-10092793D02*
X21003158Y-10045174D01*
X21003158Y-10045174D02*
X21012682Y-10007079D01*
X21012682Y-10007079D02*
X21022206Y-9988031D01*
X21022206Y-9988031D02*
X21031729Y-9978508D01*
X21031729Y-9978508D02*
X21050777Y-9968984D01*
X21193634Y-9968984D02*
X21193634Y-10007079D01*
X21269825Y-9968984D02*
X21269825Y-10007079D01*
X21565063Y-10245174D02*
X21555539Y-10235650D01*
X21555539Y-10235650D02*
X21536491Y-10207079D01*
X21536491Y-10207079D02*
X21526968Y-10188031D01*
X21526968Y-10188031D02*
X21517444Y-10159460D01*
X21517444Y-10159460D02*
X21507920Y-10111841D01*
X21507920Y-10111841D02*
X21507920Y-10073746D01*
X21507920Y-10073746D02*
X21517444Y-10026127D01*
X21517444Y-10026127D02*
X21526968Y-9997555D01*
X21526968Y-9997555D02*
X21536491Y-9978508D01*
X21536491Y-9978508D02*
X21555539Y-9949936D01*
X21555539Y-9949936D02*
X21565063Y-9940412D01*
X21622206Y-9968984D02*
X21746015Y-9968984D01*
X21746015Y-9968984D02*
X21679349Y-10045174D01*
X21679349Y-10045174D02*
X21707920Y-10045174D01*
X21707920Y-10045174D02*
X21726968Y-10054698D01*
X21726968Y-10054698D02*
X21736491Y-10064222D01*
X21736491Y-10064222D02*
X21746015Y-10083270D01*
X21746015Y-10083270D02*
X21746015Y-10130889D01*
X21746015Y-10130889D02*
X21736491Y-10149936D01*
X21736491Y-10149936D02*
X21726968Y-10159460D01*
X21726968Y-10159460D02*
X21707920Y-10168984D01*
X21707920Y-10168984D02*
X21650777Y-10168984D01*
X21650777Y-10168984D02*
X21631730Y-10159460D01*
X21631730Y-10159460D02*
X21622206Y-10149936D01*
X21984111Y-10168984D02*
X21984111Y-9968984D01*
X22069825Y-10168984D02*
X22069825Y-10064222D01*
X22069825Y-10064222D02*
X22060301Y-10045174D01*
X22060301Y-10045174D02*
X22041253Y-10035650D01*
X22041253Y-10035650D02*
X22012682Y-10035650D01*
X22012682Y-10035650D02*
X21993634Y-10045174D01*
X21993634Y-10045174D02*
X21984111Y-10054698D01*
X22193634Y-10168984D02*
X22174587Y-10159460D01*
X22174587Y-10159460D02*
X22165063Y-10149936D01*
X22165063Y-10149936D02*
X22155539Y-10130889D01*
X22155539Y-10130889D02*
X22155539Y-10073746D01*
X22155539Y-10073746D02*
X22165063Y-10054698D01*
X22165063Y-10054698D02*
X22174587Y-10045174D01*
X22174587Y-10045174D02*
X22193634Y-10035650D01*
X22193634Y-10035650D02*
X22222206Y-10035650D01*
X22222206Y-10035650D02*
X22241253Y-10045174D01*
X22241253Y-10045174D02*
X22250777Y-10054698D01*
X22250777Y-10054698D02*
X22260301Y-10073746D01*
X22260301Y-10073746D02*
X22260301Y-10130889D01*
X22260301Y-10130889D02*
X22250777Y-10149936D01*
X22250777Y-10149936D02*
X22241253Y-10159460D01*
X22241253Y-10159460D02*
X22222206Y-10168984D01*
X22222206Y-10168984D02*
X22193634Y-10168984D01*
X22374587Y-10168984D02*
X22355539Y-10159460D01*
X22355539Y-10159460D02*
X22346015Y-10140412D01*
X22346015Y-10140412D02*
X22346015Y-9968984D01*
X22526968Y-10159460D02*
X22507920Y-10168984D01*
X22507920Y-10168984D02*
X22469825Y-10168984D01*
X22469825Y-10168984D02*
X22450777Y-10159460D01*
X22450777Y-10159460D02*
X22441253Y-10140412D01*
X22441253Y-10140412D02*
X22441253Y-10064222D01*
X22441253Y-10064222D02*
X22450777Y-10045174D01*
X22450777Y-10045174D02*
X22469825Y-10035650D01*
X22469825Y-10035650D02*
X22507920Y-10035650D01*
X22507920Y-10035650D02*
X22526968Y-10045174D01*
X22526968Y-10045174D02*
X22536491Y-10064222D01*
X22536491Y-10064222D02*
X22536491Y-10083270D01*
X22536491Y-10083270D02*
X22441253Y-10102317D01*
X22612682Y-10159460D02*
X22631730Y-10168984D01*
X22631730Y-10168984D02*
X22669825Y-10168984D01*
X22669825Y-10168984D02*
X22688872Y-10159460D01*
X22688872Y-10159460D02*
X22698396Y-10140412D01*
X22698396Y-10140412D02*
X22698396Y-10130889D01*
X22698396Y-10130889D02*
X22688872Y-10111841D01*
X22688872Y-10111841D02*
X22669825Y-10102317D01*
X22669825Y-10102317D02*
X22641253Y-10102317D01*
X22641253Y-10102317D02*
X22622206Y-10092793D01*
X22622206Y-10092793D02*
X22612682Y-10073746D01*
X22612682Y-10073746D02*
X22612682Y-10064222D01*
X22612682Y-10064222D02*
X22622206Y-10045174D01*
X22622206Y-10045174D02*
X22641253Y-10035650D01*
X22641253Y-10035650D02*
X22669825Y-10035650D01*
X22669825Y-10035650D02*
X22688872Y-10045174D01*
X22765063Y-10245174D02*
X22774587Y-10235650D01*
X22774587Y-10235650D02*
X22793634Y-10207079D01*
X22793634Y-10207079D02*
X22803158Y-10188031D01*
X22803158Y-10188031D02*
X22812682Y-10159460D01*
X22812682Y-10159460D02*
X22822206Y-10111841D01*
X22822206Y-10111841D02*
X22822206Y-10073746D01*
X22822206Y-10073746D02*
X22812682Y-10026127D01*
X22812682Y-10026127D02*
X22803158Y-9997555D01*
X22803158Y-9997555D02*
X22793634Y-9978508D01*
X22793634Y-9978508D02*
X22774587Y-9949936D01*
X22774587Y-9949936D02*
X22765063Y-9940412D01*
X23126968Y-10245174D02*
X23117444Y-10235650D01*
X23117444Y-10235650D02*
X23098396Y-10207079D01*
X23098396Y-10207079D02*
X23088872Y-10188031D01*
X23088872Y-10188031D02*
X23079349Y-10159460D01*
X23079349Y-10159460D02*
X23069825Y-10111841D01*
X23069825Y-10111841D02*
X23069825Y-10073746D01*
X23069825Y-10073746D02*
X23079349Y-10026127D01*
X23079349Y-10026127D02*
X23088872Y-9997555D01*
X23088872Y-9997555D02*
X23098396Y-9978508D01*
X23098396Y-9978508D02*
X23117444Y-9949936D01*
X23117444Y-9949936D02*
X23126968Y-9940412D01*
X23203158Y-10035650D02*
X23203158Y-10168984D01*
X23203158Y-10054698D02*
X23212682Y-10045174D01*
X23212682Y-10045174D02*
X23231730Y-10035650D01*
X23231730Y-10035650D02*
X23260301Y-10035650D01*
X23260301Y-10035650D02*
X23279349Y-10045174D01*
X23279349Y-10045174D02*
X23288872Y-10064222D01*
X23288872Y-10064222D02*
X23288872Y-10168984D01*
X23412682Y-10168984D02*
X23393634Y-10159460D01*
X23393634Y-10159460D02*
X23384111Y-10149936D01*
X23384111Y-10149936D02*
X23374587Y-10130889D01*
X23374587Y-10130889D02*
X23374587Y-10073746D01*
X23374587Y-10073746D02*
X23384111Y-10054698D01*
X23384111Y-10054698D02*
X23393634Y-10045174D01*
X23393634Y-10045174D02*
X23412682Y-10035650D01*
X23412682Y-10035650D02*
X23441253Y-10035650D01*
X23441253Y-10035650D02*
X23460301Y-10045174D01*
X23460301Y-10045174D02*
X23469825Y-10054698D01*
X23469825Y-10054698D02*
X23479349Y-10073746D01*
X23479349Y-10073746D02*
X23479349Y-10130889D01*
X23479349Y-10130889D02*
X23469825Y-10149936D01*
X23469825Y-10149936D02*
X23460301Y-10159460D01*
X23460301Y-10159460D02*
X23441253Y-10168984D01*
X23441253Y-10168984D02*
X23412682Y-10168984D01*
X23536492Y-10035650D02*
X23612682Y-10035650D01*
X23565063Y-9968984D02*
X23565063Y-10140412D01*
X23565063Y-10140412D02*
X23574587Y-10159460D01*
X23574587Y-10159460D02*
X23593634Y-10168984D01*
X23593634Y-10168984D02*
X23612682Y-10168984D01*
X23831730Y-10035650D02*
X23831730Y-10235650D01*
X23831730Y-10045174D02*
X23850777Y-10035650D01*
X23850777Y-10035650D02*
X23888873Y-10035650D01*
X23888873Y-10035650D02*
X23907920Y-10045174D01*
X23907920Y-10045174D02*
X23917444Y-10054698D01*
X23917444Y-10054698D02*
X23926968Y-10073746D01*
X23926968Y-10073746D02*
X23926968Y-10130889D01*
X23926968Y-10130889D02*
X23917444Y-10149936D01*
X23917444Y-10149936D02*
X23907920Y-10159460D01*
X23907920Y-10159460D02*
X23888873Y-10168984D01*
X23888873Y-10168984D02*
X23850777Y-10168984D01*
X23850777Y-10168984D02*
X23831730Y-10159460D01*
X24041253Y-10168984D02*
X24022206Y-10159460D01*
X24022206Y-10159460D02*
X24012682Y-10140412D01*
X24012682Y-10140412D02*
X24012682Y-9968984D01*
X24203158Y-10168984D02*
X24203158Y-10064222D01*
X24203158Y-10064222D02*
X24193634Y-10045174D01*
X24193634Y-10045174D02*
X24174587Y-10035650D01*
X24174587Y-10035650D02*
X24136492Y-10035650D01*
X24136492Y-10035650D02*
X24117444Y-10045174D01*
X24203158Y-10159460D02*
X24184111Y-10168984D01*
X24184111Y-10168984D02*
X24136492Y-10168984D01*
X24136492Y-10168984D02*
X24117444Y-10159460D01*
X24117444Y-10159460D02*
X24107920Y-10140412D01*
X24107920Y-10140412D02*
X24107920Y-10121365D01*
X24107920Y-10121365D02*
X24117444Y-10102317D01*
X24117444Y-10102317D02*
X24136492Y-10092793D01*
X24136492Y-10092793D02*
X24184111Y-10092793D01*
X24184111Y-10092793D02*
X24203158Y-10083270D01*
X24269825Y-10035650D02*
X24346015Y-10035650D01*
X24298396Y-9968984D02*
X24298396Y-10140412D01*
X24298396Y-10140412D02*
X24307920Y-10159460D01*
X24307920Y-10159460D02*
X24326968Y-10168984D01*
X24326968Y-10168984D02*
X24346015Y-10168984D01*
X24488873Y-10159460D02*
X24469825Y-10168984D01*
X24469825Y-10168984D02*
X24431730Y-10168984D01*
X24431730Y-10168984D02*
X24412682Y-10159460D01*
X24412682Y-10159460D02*
X24403158Y-10140412D01*
X24403158Y-10140412D02*
X24403158Y-10064222D01*
X24403158Y-10064222D02*
X24412682Y-10045174D01*
X24412682Y-10045174D02*
X24431730Y-10035650D01*
X24431730Y-10035650D02*
X24469825Y-10035650D01*
X24469825Y-10035650D02*
X24488873Y-10045174D01*
X24488873Y-10045174D02*
X24498396Y-10064222D01*
X24498396Y-10064222D02*
X24498396Y-10083270D01*
X24498396Y-10083270D02*
X24403158Y-10102317D01*
X24669825Y-10168984D02*
X24669825Y-9968984D01*
X24669825Y-10159460D02*
X24650777Y-10168984D01*
X24650777Y-10168984D02*
X24612682Y-10168984D01*
X24612682Y-10168984D02*
X24593634Y-10159460D01*
X24593634Y-10159460D02*
X24584111Y-10149936D01*
X24584111Y-10149936D02*
X24574587Y-10130889D01*
X24574587Y-10130889D02*
X24574587Y-10073746D01*
X24574587Y-10073746D02*
X24584111Y-10054698D01*
X24584111Y-10054698D02*
X24593634Y-10045174D01*
X24593634Y-10045174D02*
X24612682Y-10035650D01*
X24612682Y-10035650D02*
X24650777Y-10035650D01*
X24650777Y-10035650D02*
X24669825Y-10045174D01*
X24746015Y-10245174D02*
X24755539Y-10235650D01*
X24755539Y-10235650D02*
X24774587Y-10207079D01*
X24774587Y-10207079D02*
X24784111Y-10188031D01*
X24784111Y-10188031D02*
X24793634Y-10159460D01*
X24793634Y-10159460D02*
X24803158Y-10111841D01*
X24803158Y-10111841D02*
X24803158Y-10073746D01*
X24803158Y-10073746D02*
X24793634Y-10026127D01*
X24793634Y-10026127D02*
X24784111Y-9997555D01*
X24784111Y-9997555D02*
X24774587Y-9978508D01*
X24774587Y-9978508D02*
X24755539Y-9949936D01*
X24755539Y-9949936D02*
X24746015Y-9940412D01*
M02*
