%TF.GenerationSoftware,KiCad,Pcbnew,9.0.2*%
%TF.CreationDate,2026-05-30T15:19:47-06:00*%
%TF.ProjectId,DaFO,4461464f-2e6b-4696-9361-645f70636258,v.1*%
%TF.SameCoordinates,Original*%
%TF.FileFunction,Copper,L1,Top*%
%TF.FilePolarity,Positive*%
%FSLAX46Y46*%
G04 Gerber Fmt 4.6, Leading zero omitted, Abs format (unit mm)*
G04 Created by KiCad (PCBNEW 9.0.2) date 2026-05-30 15:19:47*
%MOMM*%
%LPD*%
G01*
G04 APERTURE LIST*
G04 Aperture macros list*
%AMRoundRect*
0 Rectangle with rounded corners*
0 $1 Rounding radius*
0 $2 $3 $4 $5 $6 $7 $8 $9 X,Y pos of 4 corners*
0 Add a 4 corners polygon primitive as box body*
4,1,4,$2,$3,$4,$5,$6,$7,$8,$9,$2,$3,0*
0 Add four circle primitives for the rounded corners*
1,1,$1+$1,$2,$3*
1,1,$1+$1,$4,$5*
1,1,$1+$1,$6,$7*
1,1,$1+$1,$8,$9*
0 Add four rect primitives between the rounded corners*
20,1,$1+$1,$2,$3,$4,$5,0*
20,1,$1+$1,$4,$5,$6,$7,0*
20,1,$1+$1,$6,$7,$8,$9,0*
20,1,$1+$1,$8,$9,$2,$3,0*%
G04 Aperture macros list end*
%TA.AperFunction,SMDPad,CuDef*%
%ADD10RoundRect,0.147500X0.457500X0.147500X-0.457500X0.147500X-0.457500X-0.147500X0.457500X-0.147500X0*%
%TD*%
%TA.AperFunction,ComponentPad*%
%ADD11R,1.800000X1.800000*%
%TD*%
%TA.AperFunction,ComponentPad*%
%ADD12C,1.800000*%
%TD*%
%TA.AperFunction,ComponentPad*%
%ADD13C,1.320800*%
%TD*%
%TA.AperFunction,ComponentPad*%
%ADD14C,2.006600*%
%TD*%
%TA.AperFunction,ComponentPad*%
%ADD15C,2.000000*%
%TD*%
%TA.AperFunction,ComponentPad*%
%ADD16R,1.524000X1.524000*%
%TD*%
%TA.AperFunction,ComponentPad*%
%ADD17C,1.524000*%
%TD*%
%TA.AperFunction,SMDPad,CuDef*%
%ADD18RoundRect,0.147500X-0.147500X0.457500X-0.147500X-0.457500X0.147500X-0.457500X0.147500X0.457500X0*%
%TD*%
%TA.AperFunction,SMDPad,CuDef*%
%ADD19RoundRect,0.250000X0.337500X0.475000X-0.337500X0.475000X-0.337500X-0.475000X0.337500X-0.475000X0*%
%TD*%
%TA.AperFunction,SMDPad,CuDef*%
%ADD20RoundRect,0.237500X0.300000X0.237500X-0.300000X0.237500X-0.300000X-0.237500X0.300000X-0.237500X0*%
%TD*%
%TA.AperFunction,SMDPad,CuDef*%
%ADD21RoundRect,0.250000X-0.350000X-0.450000X0.350000X-0.450000X0.350000X0.450000X-0.350000X0.450000X0*%
%TD*%
%TA.AperFunction,SMDPad,CuDef*%
%ADD22R,0.990600X1.651000*%
%TD*%
%TA.AperFunction,ComponentPad*%
%ADD23R,1.500000X1.500000*%
%TD*%
%TA.AperFunction,ComponentPad*%
%ADD24C,1.500000*%
%TD*%
%TA.AperFunction,SMDPad,CuDef*%
%ADD25RoundRect,0.237500X0.237500X-0.300000X0.237500X0.300000X-0.237500X0.300000X-0.237500X-0.300000X0*%
%TD*%
%TA.AperFunction,SMDPad,CuDef*%
%ADD26RoundRect,0.237500X-0.237500X0.300000X-0.237500X-0.300000X0.237500X-0.300000X0.237500X0.300000X0*%
%TD*%
%TA.AperFunction,SMDPad,CuDef*%
%ADD27R,2.000000X1.300000*%
%TD*%
%TA.AperFunction,SMDPad,CuDef*%
%ADD28R,2.000000X2.000000*%
%TD*%
%TA.AperFunction,ComponentPad*%
%ADD29R,1.320800X1.320800*%
%TD*%
%TA.AperFunction,ViaPad*%
%ADD30C,0.600000*%
%TD*%
%TA.AperFunction,Conductor*%
%ADD31C,0.300000*%
%TD*%
G04 APERTURE END LIST*
D10*
%TO.P,INV2,1*%
%TO.N,N/C*%
X202357200Y-69316600D03*
%TO.P,INV2,2,A*%
%TO.N,/V_EN*%
X202357200Y-68366600D03*
%TO.P,INV2,3,GND*%
%TO.N,GND*%
X202357200Y-67416600D03*
%TO.P,INV2,4,Y*%
%TO.N,/V_INV2*%
X199847200Y-67416600D03*
%TO.P,INV2,5,VCC*%
%TO.N,VCC*%
X199847200Y-69316600D03*
%TD*%
D11*
%TO.P,J5,1_A,1*%
%TO.N,Net-(J5-1)*%
X186258200Y-57596800D03*
%TO.P,J5,1_B*%
%TO.N,N/C*%
X186258200Y-50596800D03*
D12*
%TO.P,J5,2_A,2*%
%TO.N,GND*%
X182758200Y-57596800D03*
%TO.P,J5,2_B*%
%TO.N,N/C*%
X182758200Y-50596800D03*
%TD*%
D13*
%TO.P,S1,1,1*%
%TO.N,Net-(BUFF1-A)*%
X182700000Y-76150000D03*
%TO.P,S1,2,2*%
%TO.N,/PWM*%
X182700000Y-78150000D03*
%TO.P,S1,3,3*%
%TO.N,Net-(INV1-Pad2)*%
X182700000Y-80150001D03*
D14*
%TO.P,S1,4*%
%TO.N,N/C*%
X182700000Y-74050001D03*
%TO.P,S1,5*%
X182700000Y-82249999D03*
%TD*%
D13*
%TO.P,S2,1,1*%
%TO.N,Net-(D1-Pad1)*%
X182660000Y-64360000D03*
%TO.P,S2,2,2*%
%TO.N,/NEG*%
X182660000Y-66360000D03*
%TO.P,S2,3,3*%
%TO.N,/TM*%
X182660000Y-68360001D03*
D14*
%TO.P,S2,4*%
%TO.N,N/C*%
X182660000Y-62260001D03*
%TO.P,S2,5*%
X182660000Y-70459999D03*
%TD*%
D15*
%TO.P,TP2,1,1*%
%TO.N,/TM*%
X207873600Y-80949800D03*
%TD*%
%TO.P,TP4,1,1*%
%TO.N,/V_INV2*%
X207873600Y-56921400D03*
%TD*%
D16*
%TO.P,J1,01,01*%
%TO.N,VCC*%
X192582800Y-84632800D03*
D17*
%TO.P,J1,02,02*%
%TO.N,/PWM*%
X192582800Y-87172800D03*
%TO.P,J1,03,03*%
%TO.N,GND*%
X192582800Y-89712800D03*
%TO.P,J1,04,04*%
%TO.N,/EN*%
X192582800Y-92252800D03*
%TD*%
D15*
%TO.P,TP1,1,1*%
%TO.N,/NEG*%
X203200000Y-91795600D03*
%TD*%
D18*
%TO.P,BUFF1,1,N.C*%
%TO.N,unconnected-(BUFF1-N.C-Pad1)*%
X198275000Y-80195000D03*
%TO.P,BUFF1,2,A*%
%TO.N,Net-(BUFF1-A)*%
X197325000Y-80195000D03*
%TO.P,BUFF1,3,GND*%
%TO.N,GND*%
X196375000Y-80195000D03*
%TO.P,BUFF1,4,Y*%
%TO.N,/NEG*%
X196375000Y-82705000D03*
%TO.P,BUFF1,5,VCC*%
%TO.N,VCC*%
X198275000Y-82705000D03*
%TD*%
D19*
%TO.P,C7,1*%
%TO.N,/TM*%
X196562500Y-62175000D03*
%TO.P,C7,2*%
%TO.N,GND*%
X194487500Y-62175000D03*
%TD*%
D20*
%TO.P,C6,1*%
%TO.N,VCC*%
X192425000Y-82325000D03*
%TO.P,C6,2*%
%TO.N,GND*%
X190700000Y-82325000D03*
%TD*%
D18*
%TO.P,INV3,1*%
%TO.N,unconnected-(INV3-Pad1)*%
X190637200Y-61305200D03*
%TO.P,INV3,2*%
%TO.N,/V_EN*%
X189687200Y-61305200D03*
%TO.P,INV3,3*%
%TO.N,GND*%
X188737200Y-61305200D03*
%TO.P,INV3,4*%
%TO.N,Net-(J5-1)*%
X188737200Y-63815200D03*
%TO.P,INV3,5*%
%TO.N,VCC*%
X190637200Y-63815200D03*
%TD*%
D20*
%TO.P,C8,1*%
%TO.N,VCC*%
X192550000Y-70075000D03*
%TO.P,C8,2*%
%TO.N,GND*%
X190825000Y-70075000D03*
%TD*%
D21*
%TO.P,R1,1*%
%TO.N,VCC*%
X194525400Y-67533000D03*
%TO.P,R1,2*%
%TO.N,/V_INV2*%
X196525400Y-67533000D03*
%TD*%
D22*
%TO.P,D1,1*%
%TO.N,Net-(D1-Pad1)*%
X199224900Y-62230000D03*
%TO.P,D1,2*%
%TO.N,/TM*%
X202755500Y-62230000D03*
%TD*%
D20*
%TO.P,C4,1*%
%TO.N,VCC*%
X203813300Y-87901000D03*
%TO.P,C4,2*%
%TO.N,GND*%
X202088300Y-87901000D03*
%TD*%
D23*
%TO.P,Tx1,1,ANODE*%
%TO.N,/V_INV2*%
X193980000Y-55911500D03*
D24*
%TO.P,Tx1,2,CATHODE*%
%TO.N,GND*%
X196520000Y-55911500D03*
%TO.P,Tx1,3,GROUND_1*%
%TO.N,unconnected-(Tx1-GROUND_1-Pad3)*%
X199060000Y-55911500D03*
%TO.P,Tx1,4,GROUND_2*%
%TO.N,unconnected-(Tx1-GROUND_2-Pad4)*%
X201600000Y-55911500D03*
%TO.P,Tx1,5,GROUND_3*%
%TO.N,unconnected-(Tx1-GROUND_3-Pad5)*%
X201600000Y-48211500D03*
%TO.P,Tx1,8,GROUND_4*%
%TO.N,unconnected-(Tx1-GROUND_4-Pad8)*%
X193980000Y-48211500D03*
%TD*%
D15*
%TO.P,TP3,1,1*%
%TO.N,/V_EN*%
X207873600Y-69799200D03*
%TD*%
D20*
%TO.P,C5,1*%
%TO.N,VCC*%
X202592300Y-77979800D03*
%TO.P,C5,2*%
%TO.N,GND*%
X200867300Y-77979800D03*
%TD*%
%TO.P,C1,1*%
%TO.N,VCC*%
X198219100Y-84330600D03*
%TO.P,C1,2*%
%TO.N,GND*%
X196494100Y-84330600D03*
%TD*%
D18*
%TO.P,NAND1,1,A*%
%TO.N,unconnected-(NAND1-A-Pad1)*%
X202702200Y-73634600D03*
%TO.P,NAND1,2,B*%
%TO.N,/TM*%
X201752200Y-73634600D03*
%TO.P,NAND1,3,GND*%
%TO.N,GND*%
X200802200Y-73634600D03*
%TO.P,NAND1,4,Y*%
%TO.N,/V_EN*%
X200802200Y-76144600D03*
%TO.P,NAND1,5,VCC*%
%TO.N,VCC*%
X202702200Y-76144600D03*
%TD*%
%TO.P,INV1,1*%
%TO.N,unconnected-(INV1-Pad1)*%
X203850000Y-83725000D03*
%TO.P,INV1,2*%
%TO.N,Net-(INV1-Pad2)*%
X202900000Y-83725000D03*
%TO.P,INV1,3*%
%TO.N,GND*%
X201950000Y-83725000D03*
%TO.P,INV1,4*%
%TO.N,/NEG*%
X201950000Y-86235000D03*
%TO.P,INV1,5*%
%TO.N,VCC*%
X203850000Y-86235000D03*
%TD*%
D16*
%TO.P,J4,01,01*%
%TO.N,VCC*%
X207920000Y-84580000D03*
D17*
%TO.P,J4,02,02*%
%TO.N,/PWM*%
X207920000Y-87120000D03*
%TO.P,J4,03,03*%
%TO.N,GND*%
X207920000Y-89660000D03*
%TO.P,J4,04,04*%
%TO.N,/EN*%
X207920000Y-92200000D03*
%TD*%
D20*
%TO.P,C3,1*%
%TO.N,VCC*%
X190600500Y-65481200D03*
%TO.P,C3,2*%
%TO.N,GND*%
X188875500Y-65481200D03*
%TD*%
D25*
%TO.P,C9,1*%
%TO.N,VCC*%
X205350000Y-83587500D03*
%TO.P,C9,2*%
%TO.N,GND*%
X205350000Y-81862500D03*
%TD*%
D26*
%TO.P,C2,1*%
%TO.N,VCC*%
X198175000Y-69587500D03*
%TO.P,C2,2*%
%TO.N,GND*%
X198175000Y-71312500D03*
%TD*%
D27*
%TO.P,TRIM1,1*%
%TO.N,Net-(D1-Pad1)*%
X186200000Y-86925000D03*
D28*
%TO.P,TRIM1,2*%
X182200000Y-88075000D03*
D27*
%TO.P,TRIM1,3*%
%TO.N,/TM*%
X186200000Y-89225000D03*
%TD*%
D29*
%TO.P,J2,01,01*%
%TO.N,VCC*%
X192582800Y-71805800D03*
D13*
%TO.P,J2,02,02*%
%TO.N,/PWM*%
X192582800Y-74345800D03*
%TO.P,J2,03,03*%
%TO.N,GND*%
X192582800Y-76885800D03*
%TO.P,J2,04,04*%
%TO.N,/EN*%
X192582800Y-79425800D03*
%TD*%
D30*
%TO.N,Net-(INV1-Pad2)*%
X202279999Y-84950000D03*
%TO.N,GND*%
X187675000Y-65525000D03*
X189525000Y-69425000D03*
X200749200Y-83335100D03*
X200800000Y-74850000D03*
X195300000Y-84350000D03*
X188750000Y-60075000D03*
X199250000Y-71300000D03*
X204300000Y-81775000D03*
X189475000Y-82400000D03*
X193275000Y-62175000D03*
X196350000Y-81450000D03*
X202099200Y-89010100D03*
X203625000Y-67450000D03*
X199675000Y-78025000D03*
%TO.N,/NEG*%
X194850000Y-80175000D03*
X194850000Y-74925000D03*
%TO.N,VCC*%
X199400000Y-84400000D03*
X197025000Y-69550000D03*
X203750000Y-78075000D03*
X191875000Y-65475000D03*
X193292000Y-67533000D03*
%TO.N,Net-(BUFF1-A)*%
X190560600Y-78414400D03*
%TO.N,/TM*%
X189214999Y-68360001D03*
X194225000Y-60350000D03*
X184550000Y-77375000D03*
X184050000Y-88475000D03*
%TO.N,Net-(INV1-Pad2)*%
X195900000Y-85875000D03*
%TO.N,/V_EN*%
X198250000Y-64650000D03*
X199650000Y-73075000D03*
X194475000Y-64650000D03*
X201150000Y-71575000D03*
%TO.N,/V_INV2*%
X199875000Y-65725000D03*
%TO.N,Net-(D1-Pad1)*%
X185740763Y-67710001D03*
X185775000Y-77500000D03*
X186112500Y-66062500D03*
X185775000Y-84475000D03*
%TD*%
D31*
%TO.N,Net-(INV1-Pad2)*%
X202900000Y-84329999D02*
X202900000Y-83725000D01*
X202279999Y-84950000D02*
X202900000Y-84329999D01*
%TO.N,GND*%
X200800000Y-73636800D02*
X200802200Y-73634600D01*
X189525000Y-69425000D02*
X190175000Y-70075000D01*
X199675000Y-78025000D02*
X200822100Y-78025000D01*
X203625000Y-67450000D02*
X202390600Y-67450000D01*
X196350000Y-81450000D02*
X196350000Y-80220000D01*
X201139100Y-83725000D02*
X201950000Y-83725000D01*
X200822100Y-78025000D02*
X200867300Y-77979800D01*
X204300000Y-81775000D02*
X205262500Y-81775000D01*
X190625000Y-82400000D02*
X190700000Y-82325000D01*
X202099200Y-87911900D02*
X202088300Y-87901000D01*
X199250000Y-71300000D02*
X198187500Y-71300000D01*
X202390600Y-67450000D02*
X202357200Y-67416600D01*
X188831700Y-65525000D02*
X188875500Y-65481200D01*
X196474700Y-84350000D02*
X196494100Y-84330600D01*
X188750000Y-60075000D02*
X188750000Y-61292400D01*
X198187500Y-71300000D02*
X198175000Y-71312500D01*
X200800000Y-74850000D02*
X200800000Y-73636800D01*
X205525000Y-81775000D02*
X205625000Y-81875000D01*
X190175000Y-70075000D02*
X190825000Y-70075000D01*
X202099200Y-89010100D02*
X202099200Y-87911900D01*
X187675000Y-65525000D02*
X188831700Y-65525000D01*
X195300000Y-84350000D02*
X196474700Y-84350000D01*
X193275000Y-62175000D02*
X194487500Y-62175000D01*
X196350000Y-80220000D02*
X196375000Y-80195000D01*
X188750000Y-61292400D02*
X188737200Y-61305200D01*
X189475000Y-82400000D02*
X190625000Y-82400000D01*
X205262500Y-81775000D02*
X205350000Y-81862500D01*
X200749200Y-83335100D02*
X201139100Y-83725000D01*
%TO.N,/NEG*%
X196375000Y-82705000D02*
X196375000Y-82700000D01*
X201950000Y-86235000D02*
X200975000Y-87210000D01*
X196375000Y-82690000D02*
X196375000Y-82705000D01*
X193075000Y-73150000D02*
X194850000Y-74925000D01*
X182660000Y-66360000D02*
X185310000Y-66360000D01*
X201950000Y-86029346D02*
X199525000Y-83604346D01*
X185310000Y-66360000D02*
X192100000Y-73150000D01*
X201950000Y-86235000D02*
X201950000Y-86029346D01*
X200975000Y-87210000D02*
X200975000Y-89570600D01*
X199525000Y-83604346D02*
X199525000Y-82375000D01*
X192100000Y-73150000D02*
X193075000Y-73150000D01*
X196375000Y-82700000D02*
X194850000Y-81175000D01*
X197540000Y-81525000D02*
X196375000Y-82690000D01*
X198675000Y-81525000D02*
X197540000Y-81525000D01*
X200975000Y-89570600D02*
X203200000Y-91795600D01*
X194850000Y-81175000D02*
X194850000Y-80175000D01*
X199525000Y-82375000D02*
X198675000Y-81525000D01*
%TO.N,VCC*%
X202592300Y-76254500D02*
X202702200Y-76144600D01*
X190637200Y-65444500D02*
X190600500Y-65481200D01*
X207920000Y-84580000D02*
X205720700Y-84580000D01*
X203813300Y-86271700D02*
X203850000Y-86235000D01*
X203750000Y-78075000D02*
X202687500Y-78075000D01*
X198275000Y-84274700D02*
X198219100Y-84330600D01*
X193292000Y-67533000D02*
X194525400Y-67533000D01*
X192550000Y-71773000D02*
X192582800Y-71805800D01*
X206927500Y-83587500D02*
X205350000Y-83587500D01*
X205720700Y-84580000D02*
X204200800Y-86099900D01*
X198275000Y-82705000D02*
X198275000Y-84274700D01*
X199847200Y-69316600D02*
X198445900Y-69316600D01*
X192425000Y-82325000D02*
X192425000Y-84475000D01*
X198137500Y-69550000D02*
X198175000Y-69587500D01*
X199400000Y-84400000D02*
X198288500Y-84400000D01*
X190637200Y-63815200D02*
X190637200Y-65444500D01*
X192425000Y-84475000D02*
X192582800Y-84632800D01*
X202592300Y-77979800D02*
X202592300Y-76254500D01*
X207920000Y-84580000D02*
X206927500Y-83587500D01*
X198445900Y-69316600D02*
X198175000Y-69587500D01*
X191875000Y-65475000D02*
X190606700Y-65475000D01*
X198288500Y-84400000D02*
X198219100Y-84330600D01*
X203813300Y-87901000D02*
X203813300Y-86271700D01*
X197025000Y-69550000D02*
X198137500Y-69550000D01*
X190606700Y-65475000D02*
X190600500Y-65481200D01*
X202687500Y-78075000D02*
X202592300Y-77979800D01*
X192550000Y-70075000D02*
X192550000Y-71773000D01*
%TO.N,Net-(BUFF1-A)*%
X197325000Y-79225000D02*
X196514400Y-78414400D01*
X197325000Y-80195000D02*
X197325000Y-79225000D01*
X196514400Y-78414400D02*
X190560600Y-78414400D01*
%TO.N,/TM*%
X201752200Y-74239599D02*
X201752200Y-73634600D01*
X184550000Y-77375000D02*
X184550000Y-70250001D01*
X201242646Y-60275000D02*
X202755500Y-61787854D01*
X184050000Y-88475000D02*
X184075000Y-88475000D01*
X184075000Y-88475000D02*
X184825000Y-89225000D01*
X194737500Y-60350000D02*
X196562500Y-62175000D01*
X196825000Y-72400000D02*
X200881674Y-72400000D01*
X194225000Y-60350000D02*
X194737500Y-60350000D01*
X196562500Y-62175000D02*
X198462500Y-60275000D01*
X202755500Y-61787854D02*
X202755500Y-62230000D01*
X207873600Y-79403926D02*
X203348200Y-74878526D01*
X202391127Y-74878526D02*
X201752200Y-74239599D01*
X200881674Y-72400000D02*
X201752200Y-73270526D01*
X198462500Y-60275000D02*
X201242646Y-60275000D01*
X184825000Y-89225000D02*
X186200000Y-89225000D01*
X203348200Y-74878526D02*
X202391127Y-74878526D01*
X207873600Y-80949800D02*
X207873600Y-79403926D01*
X189214999Y-68360001D02*
X189229998Y-68375000D01*
X192800000Y-68375000D02*
X196825000Y-72400000D01*
X189229998Y-68375000D02*
X192800000Y-68375000D01*
X201752200Y-73270526D02*
X201752200Y-73634600D01*
X184550000Y-70250001D02*
X182660000Y-68360001D01*
%TO.N,Net-(INV1-Pad2)*%
X202900000Y-84089074D02*
X202900000Y-83725000D01*
X195900000Y-85875000D02*
X188424999Y-85875000D01*
X188424999Y-85875000D02*
X182700000Y-80150001D01*
%TO.N,/V_EN*%
X201150000Y-71575000D02*
X201150000Y-68968801D01*
X206441000Y-68366600D02*
X202357200Y-68366600D01*
X198250000Y-64650000D02*
X200350000Y-64650000D01*
X201752201Y-68366600D02*
X202357200Y-68366600D01*
X189687200Y-61305200D02*
X189687200Y-61910199D01*
X190636201Y-62859200D02*
X192684200Y-62859200D01*
X199650000Y-74992400D02*
X199650000Y-73075000D01*
X201097337Y-67711736D02*
X201752201Y-68366600D01*
X200802200Y-76144600D02*
X199650000Y-74992400D01*
X201097337Y-65397337D02*
X201097337Y-67711736D01*
X207873600Y-69799200D02*
X206441000Y-68366600D01*
X201150000Y-68968801D02*
X201752201Y-68366600D01*
X192684200Y-62859200D02*
X194475000Y-64650000D01*
X200350000Y-64650000D02*
X201097337Y-65397337D01*
X189687200Y-61910199D02*
X190636201Y-62859200D01*
%TO.N,/V_INV2*%
X199875000Y-65725000D02*
X199875000Y-67388800D01*
X199875000Y-67388800D02*
X199847200Y-67416600D01*
X199730800Y-67533000D02*
X199847200Y-67416600D01*
X196525400Y-67533000D02*
X199730800Y-67533000D01*
%TO.N,/PWM*%
X188778600Y-78150000D02*
X182700000Y-78150000D01*
X192582800Y-74345800D02*
X188778600Y-78150000D01*
%TO.N,Net-(J5-1)*%
X186258200Y-57596800D02*
X186258200Y-61336200D01*
X186258200Y-61336200D02*
X188737200Y-63815200D01*
%TO.N,Net-(D1-Pad1)*%
X187407200Y-66307200D02*
X185460000Y-64360000D01*
X186200000Y-86925000D02*
X183350000Y-86925000D01*
X199224900Y-62230000D02*
X195147700Y-66307200D01*
X183350000Y-86925000D02*
X182200000Y-88075000D01*
X185775000Y-77500000D02*
X185775000Y-77325000D01*
X185740763Y-77290763D02*
X185740763Y-67710001D01*
X185460000Y-64360000D02*
X182660000Y-64360000D01*
X184410000Y-64360000D02*
X182660000Y-64360000D01*
X185775000Y-84475000D02*
X185775000Y-86500000D01*
X185775000Y-77325000D02*
X185740763Y-77290763D01*
X195147700Y-66307200D02*
X187407200Y-66307200D01*
X186112500Y-66062500D02*
X184410000Y-64360000D01*
X185775000Y-86500000D02*
X186200000Y-86925000D01*
%TD*%
M02*
